<svg xmlns="http://www.w3.org/2000/svg" xmlns:xlink="http://www.w3.org/1999/xlink" width="2500" height="741" viewBox="0 0 539.856 160" xmlns:v="https://vecta.io/nano"><g transform="scale(4.00216 4.0011)"><use xlink:href="#C" fill="#fff"/><path fill="#a6a6a6" d="M130.198 39.99H4.73A4.73 4.73 0 0 1 0 35.268V4.726A4.733 4.733 0 0 1 4.729 0h125.468a4.735 4.735 0 0 1 4.729 4.726v30.542a4.73 4.73 0 0 1-4.728 4.721z"/><use xlink:href="#C"/><path fill="#fff" d="M30.128 19.784c-.03-3.223 2.64-4.79 2.76-4.864-1.51-2.203-3.853-2.504-4.676-2.528-1.967-.207-3.875 1.177-4.877 1.177-1.022 0-2.565-1.157-4.228-1.123-2.14.033-4.142 1.272-5.24 3.196-2.266 3.923-.576 9.688 1.595 12.86 1.086 1.554 2.355 3.287 4.016 3.226 1.625-.066 2.232-1.035 4.193-1.035 1.943 0 2.513 1.035 4.207.996 1.744-.027 2.842-1.56 3.9-3.127 1.255-1.78 1.76-3.533 1.78-3.623-.04-.014-3.386-1.292-3.42-5.154zm-3.2-9.478c.874-1.093 1.472-2.58 1.306-4.09-1.265.056-2.847.875-3.758 1.944-.806.942-1.526 2.486-1.34 3.938 1.42.106 2.88-.717 3.792-1.793z"/><linearGradient id="A" gradientUnits="userSpaceOnUse" x1="98.959" y1="40.095" x2="98.959" y2="-104.124"><stop offset="0" stop-color="#1a1a1a" stop-opacity=".1"/><stop offset=".123" stop-color="#212121" stop-opacity=".15"/><stop offset=".308" stop-color="#353535" stop-opacity=".227"/><stop offset=".532" stop-color="#575757" stop-opacity=".318"/><stop offset=".783" stop-color="#858585" stop-opacity=".42"/><stop offset="1" stop-color="#b3b3b3" stop-opacity=".5"/></linearGradient><path fill="url(#A)" d="M130.198 0H62.993l26.323 39.99h40.882a4.733 4.733 0 0 0 4.729-4.724V4.726A4.734 4.734 0 0 0 130.198 0z"/><path d="M53.665 31.504h-2.27l-1.244-3.9h-4.324l-1.185 3.9h-2.2l4.285-13.308h2.646l4.304 13.308zm-3.9-5.55L48.65 22.48c-.12-.355-.343-1.2-.67-2.507h-.04l-.632 2.507-1.106 3.475h3.574zm14.888.633c0 1.632-.443 2.922-1.33 3.87-.794.843-1.78 1.264-2.958 1.264-1.27 0-2.185-.453-2.74-1.36v5.035h-2.132V25.062l-.08-3.154H57.3l.12 1.52h.04c.7-1.146 1.8-1.72 3.238-1.72 1.132 0 2.077.447 2.833 1.342s1.134 2.075 1.134 3.536zm-2.172.078c0-.934-.2-1.704-.632-2.3a2.18 2.18 0 0 0-1.856-.947c-.526 0-1.004.176-1.43.523s-.708.807-.84 1.373a2.784 2.784 0 0 0-.099.649v1.6c0 .697.214 1.286.642 1.768s.984.72 1.668.72c.803 0 1.428-.3 1.875-.928s.672-1.435.672-2.45zm13.2-.078c0 1.632-.443 2.922-1.33 3.87a3.9 3.9 0 0 1-2.959 1.264c-1.27 0-2.185-.453-2.74-1.36v5.035H66.54V25.062l-.08-3.154h1.875l.12 1.52h.04c.7-1.146 1.8-1.72 3.238-1.72 1.13 0 2.076.447 2.834 1.342s1.134 2.075 1.134 3.536zm-2.173.078c0-.934-.2-1.704-.633-2.3a2.18 2.18 0 0 0-1.854-.947c-.526 0-1.004.176-1.433.523s-.707.807-.838 1.373c-.065.264-.1.48-.1.65v1.6c0 .697.215 1.286.64 1.768s.984.72 1.67.72c.804 0 1.43-.3 1.875-.928s.672-1.435.672-2.45zM88.04 27.77c0 1.133-.396 2.054-1.183 2.765-.866.776-2.075 1.165-3.625 1.165-1.432 0-2.58-.276-3.446-.83l.493-1.777a5.93 5.93 0 0 0 3.08.83c.804 0 1.43-.182 1.875-.543s.673-.846.673-1.45a1.86 1.86 0 0 0-.554-1.363c-.367-.37-.98-.7-1.836-1.026-2.33-.87-3.496-2.14-3.496-3.812 0-1.092.412-1.986 1.234-2.685S83.167 18 84.523 18c1.2 0 2.22.2 3.02.632l-.535 1.738c-.754-.408-1.605-.612-2.557-.612-.752 0-1.342.185-1.764.553a1.58 1.58 0 0 0-.535 1.206 1.63 1.63 0 0 0 .613 1.303c.354.315 1 .658 1.934 1.026 1.146.462 1.988 1 2.527 1.618s.813 1.4.813 2.308zm7.067-4.263h-2.35v4.66c0 1.185.414 1.776 1.244 1.776.38 0 .697-.032.947-.1l.06 1.62c-.42.157-.973.236-1.658.236-.842 0-1.5-.257-1.975-.77s-.7-1.375-.7-2.587v-4.837h-1.4v-1.6h1.4v-1.757l2.094-.632v2.4h2.35V23.5zm10.582 3.12c0 1.475-.422 2.686-1.264 3.633-.88.975-2.053 1.46-3.514 1.46-1.4 0-2.53-.467-3.367-1.4S96.3 28.208 96.3 26.787c0-1.487.432-2.705 1.293-3.652s2.025-1.422 3.486-1.422c1.408 0 2.54.468 3.395 1.402.818.906 1.225 2.076 1.225 3.512zm-2.2.05c0-.88-.2-1.633-.57-2.264-.447-.762-1.087-1.143-1.916-1.143-.854 0-1.5.38-1.955 1.143-.382.63-.572 1.398-.572 2.304 0 .88.2 1.636.572 2.265.46.762 1.104 1.143 1.937 1.143.815 0 1.454-.4 1.916-1.162.392-.646.6-1.405.6-2.286zm9.143-2.893a3.71 3.71 0 0 0-.672-.059c-.75 0-1.33.282-1.738.85-.354.5-.532 1.132-.532 1.895v5.035h-2.132V24.93a67.43 67.43 0 0 0-.062-3.021h1.857l.078 1.836h.06c.226-.63.58-1.14 1.066-1.52a2.578 2.578 0 0 1 1.541-.514 3.3 3.3 0 0 1 .533.04l.002 2.034zm9.535 2.47a5 5 0 0 1-.078.967h-6.396c.024.948.334 1.674.928 2.174.54.446 1.236.67 2.092.67.947 0 1.8-.15 2.588-.453l.334 1.48c-.908.396-1.98.593-3.217.593-1.488 0-2.656-.438-3.506-1.312s-1.273-2.05-1.273-3.524c0-1.446.395-2.65 1.186-3.612.828-1.026 1.947-1.54 3.355-1.54 1.383 0 2.43.513 3.14 1.54.563.813.846 1.82.846 3.018zm-2.033-.553c.015-.633-.125-1.178-.414-1.64-.37-.594-.937-.9-1.698-.9a2.02 2.02 0 0 0-1.697.87c-.355.46-.566 1.015-.63 1.658h4.44zM45.2 13.5c-.593 0-1.106-.03-1.533-.078V6.98a11.606 11.606 0 0 1 1.805-.136c2.445 0 3.57 1.203 3.57 3.164 0 2.262-1.33 3.484-3.843 3.484zm.358-5.823c-.33 0-.6.02-.844.068v4.9c.126.02.368.03.708.03 1.602 0 2.514-.912 2.514-2.62 0-1.523-.825-2.368-2.378-2.368zm6.994 5.872c-1.378 0-2.27-1.03-2.27-2.426 0-1.456.912-2.494 2.35-2.494 1.358 0 2.27.98 2.27 2.417 0 1.474-.94 2.503-2.35 2.503zm.04-4.154c-.757 0-1.242.708-1.242 1.698 0 .97.495 1.68 1.232 1.68s1.232-.757 1.232-1.7c0-.96-.485-1.678-1.222-1.678zm10.167-.67l-1.475 4.716h-.96l-.6-2.048a15.53 15.53 0 0 1-.379-1.523h-.02c-.077.514-.223 1.03-.378 1.523l-.65 2.048h-.97L55.94 8.715h1.077l.534 2.242.32 1.514h.02a15.54 15.54 0 0 1 .388-1.504l.67-2.25h.854l.64 2.203.38 1.553h.028c.068-.485.175-1 .32-1.553l.573-2.203 1.03-.001zm5.43 4.716H67.15v-2.708c0-.834-.32-1.252-.95-1.252-.62 0-1.048.534-1.048 1.155v2.805h-1.048v-3.368l-.04-1.35h.922l.05.728h.03c.282-.504.854-.824 1.495-.824 1 0 1.64.757 1.64 2v2.824zm2.9 0h-1.05V6.55h1.05v6.88zm3.82.107c-1.377 0-2.27-1.03-2.27-2.426 0-1.456.912-2.494 2.348-2.494 1.36 0 2.27.98 2.27 2.417.001 1.474-.94 2.503-2.348 2.503zm.04-4.154c-.757 0-1.242.708-1.242 1.698 0 .97.496 1.68 1.23 1.68s1.232-.757 1.232-1.7c.001-.96-.483-1.678-1.22-1.678zm6.44 4.047l-.076-.543h-.028c-.32.437-.787.65-1.38.65-.845 0-1.445-.592-1.445-1.388 0-1.164 1-1.766 2.756-1.766V10.3c0-.62-.33-.932-.98-.932-.465 0-.873.117-1.232.35l-.213-.7c.436-.272.98-.408 1.62-.408 1.232 0 1.854.65 1.854 1.95v1.737c0 .476.02.845.068 1.126l-.945-.001zm-.144-2.35c-1.164 0-1.748.282-1.748.95 0 .495.3.737.72.737.533 0 1.03-.407 1.03-.96v-.728zm6.1 2.35l-.05-.757h-.03c-.3.572-.807.864-1.514.864-1.137 0-1.98-1-1.98-2.407 0-1.475.873-2.514 2.065-2.514.63 0 1.078.213 1.33.64h.02V6.553h1.05v5.6l.04 1.27h-.933zm-.155-2.775c0-.66-.437-1.223-1.104-1.223-.777 0-1.252.7-1.252 1.66 0 .95.493 1.602 1.23 1.602.66 0 1.125-.573 1.125-1.252v-.786zm7.7 2.882c-1.377 0-2.27-1.03-2.27-2.426 0-1.456.912-2.494 2.348-2.494 1.36 0 2.27.98 2.27 2.417.001 1.474-.94 2.503-2.35 2.503zm.04-4.154c-.756 0-1.24.708-1.24 1.698 0 .97.495 1.68 1.23 1.68s1.232-.757 1.232-1.7c.002-.96-.483-1.678-1.222-1.678zm7.946 4.047h-1.05v-2.708c0-.834-.32-1.252-.95-1.252-.62 0-1.047.534-1.047 1.155v2.805h-1.05v-3.368l-.04-1.35h.922l.05.728h.03c.28-.504.854-.825 1.494-.825 1 0 1.64.757 1.64 2v2.825zm7.05-3.93h-1.153v2.3c0 .583.202.874.6.874.185 0 .34-.02.465-.05l.03.796c-.203.078-.475.117-.813.117-.826 0-1.32-.456-1.32-1.65V9.503h-.688v-.786h.688v-.864l1.03-.3v1.174h1.153v.787zm5.548 3.93h-1.047v-2.688c0-.844-.32-1.27-.95-1.27-.543 0-1.05.37-1.05 1.116v2.843H111.4v-6.88h1.047v2.833h.02c.33-.514.808-.767 1.418-.767.998 0 1.608.776 1.608 2v2.805zm5.684-2.106h-3.145c.02.893.6 1.397 1.486 1.397.465 0 .893-.078 1.27-.223l.163.728c-.446.194-.97.3-1.582.3-1.475 0-2.348-.932-2.348-2.377s.894-2.533 2.23-2.533c1.205 0 1.96.893 1.96 2.242a2.02 2.02 0 0 1-.036.475zm-.96-.747c0-.728-.367-1.242-1.037-1.242-.602 0-1.078.524-1.146 1.242h2.183z" fill="#fff"/></g><defs ><path id="C" d="M134.032 35.268a3.83 3.83 0 0 1-3.834 3.83H4.73a3.835 3.835 0 0 1-3.839-3.83V4.725A3.84 3.84 0 0 1 4.729.89h125.468a3.834 3.834 0 0 1 3.834 3.835l.001 30.543z"/></defs></svg>