<svg xmlns="http://www.w3.org/2000/svg" xmlns:xlink="http://www.w3.org/1999/xlink" width="216" height="224" xmlns:v="https://vecta.io/nano"><g fill="#f5af00"><use xlink:href="#A"/><use xlink:href="#A" y="22"/><use xlink:href="#A" y="-23"/><use xlink:href="#A" x="15"/><use xlink:href="#A" x="15" y="-23"/><use xlink:href="#A" x="15" y="22"/><path d="M212.275 41.067h-7.448v-11.2a3.73 3.73 0 0 0-3.724-3.733h-22.345a3.73 3.73 0 0 0-3.724 3.733v11.2h-7.448a3.73 3.73 0 0 0-3.724 3.733v59.733h-3.724v-11.2a3.73 3.73 0 0 0-3.724-3.733H152.7v-3.733a3.73 3.73 0 0 0-3.724-3.733 3.73 3.73 0 0 0-3.724 3.733V89.6h-3.724a3.73 3.73 0 0 0-3.724 3.733v11.2H126.62V29.867a3.73 3.73 0 0 0-3.724-3.733h-11.172v-22.4c0-2.06-1.67-3.734-3.724-3.734H63.3a3.73 3.73 0 0 0-3.724 3.733v22.4H48.413a3.73 3.73 0 0 0-3.724 3.733v97.067h-7.45v-11.2A3.73 3.73 0 0 0 33.517 112H11.172a3.73 3.73 0 0 0-3.724 3.733v11.2H3.724A3.73 3.73 0 0 0 0 130.667v89.6A3.73 3.73 0 0 0 3.724 224h208.552a3.73 3.73 0 0 0 3.724-3.733V44.8a3.73 3.73 0 0 0-3.725-3.733zm-108 3.733a3.73 3.73 0 0 1 3.724-3.733 3.73 3.73 0 0 1 3.724 3.733v59.733h-7.448V44.8zM89.378 18.667a3.73 3.73 0 0 1 3.724-3.733 3.73 3.73 0 0 1 3.724 3.733v11.2a3.73 3.73 0 0 1-3.724 3.733 3.73 3.73 0 0 1-3.724-3.733v-11.2zm0 26.133a3.73 3.73 0 0 1 3.724-3.733 3.73 3.73 0 0 1 3.724 3.733v59.733h-7.448V44.8zM74.482 18.667a3.73 3.73 0 0 1 3.724-3.733 3.73 3.73 0 0 1 3.724 3.733v11.2a3.73 3.73 0 0 1-3.724 3.733 3.73 3.73 0 0 1-3.724-3.733v-11.2zM59.586 44.8a3.73 3.73 0 0 1 3.724-3.733 3.73 3.73 0 0 1 3.724 3.733v82.133h-7.448V44.8zm14.896 164.267H63.3a3.73 3.73 0 0 1 0-7.466h11.172v7.466zm0-14.934H63.3a3.73 3.73 0 0 1 0-7.466h11.172v7.466zm0-14.933H63.3a3.73 3.73 0 0 1 0-7.466h11.172v7.466zm0-14.933H63.3a3.73 3.73 0 1 1 0-7.466h11.172v7.466zm0-22.4h-26.07a3.73 3.73 0 0 0-3.724 3.733v70.933H7.448V134.4h67.035v7.467zm0-33.6V44.8a3.73 3.73 0 0 1 3.724-3.733A3.73 3.73 0 0 1 81.93 44.8v59.733h-3.724a3.73 3.73 0 0 0-3.724 3.734zm89.38 108.267h-7.448V123.2a3.73 3.73 0 0 0-3.724-3.733 3.73 3.73 0 0 0-3.724 3.733v93.333h-7.448V123.2a3.73 3.73 0 0 0-3.724-3.733 3.73 3.73 0 0 0-3.724 3.733v93.333h-7.448V123.2a3.73 3.73 0 0 0-3.724-3.733 3.73 3.73 0 0 0-3.724 3.733v93.333h-7.448V123.2a3.73 3.73 0 0 0-3.724-3.733 3.73 3.73 0 0 0-3.724 3.733v93.333h-7.45V123.2a3.73 3.73 0 0 0-3.724-3.733 3.73 3.73 0 0 0-3.724 3.733v93.333h-7.45V112h81.93v104.533zm22.345-14.205a3.73 3.73 0 0 1-3.724 3.733 3.73 3.73 0 0 1-3.724-3.733v-7.467a3.73 3.73 0 0 1 3.724-3.733 3.73 3.73 0 0 1 3.724 3.733v7.467zm0-22.4a3.73 3.73 0 0 1-3.724 3.733 3.73 3.73 0 0 1-3.724-3.733v-7.467a3.73 3.73 0 0 1 3.724-3.733 3.73 3.73 0 0 1 3.724 3.733v7.467zm0-22.4a3.73 3.73 0 0 1-3.724 3.733 3.73 3.73 0 0 1-3.724-3.733v-7.467a3.73 3.73 0 0 1 3.724-3.733 3.73 3.73 0 0 1 3.724 3.733v7.467zm0-22.4a3.73 3.73 0 0 1-3.724 3.733 3.73 3.73 0 0 1-3.724-3.733v-7.467a3.73 3.73 0 0 1 3.724-3.733 3.73 3.73 0 0 1 3.724 3.733v7.467zm0-22.4a3.73 3.73 0 0 1-3.724 3.733 3.73 3.73 0 0 1-3.724-3.733v-7.467a3.73 3.73 0 0 1 3.724-3.733 3.73 3.73 0 0 1 3.724 3.733v7.467zm0-22.4a3.73 3.73 0 0 1-3.724 3.733 3.73 3.73 0 0 1-3.724-3.733v-7.47a3.73 3.73 0 0 1 3.724-3.733 3.73 3.73 0 0 1 3.724 3.733v7.467zm0-22.4a3.73 3.73 0 0 1-3.724 3.733 3.73 3.73 0 0 1-3.724-3.733v-7.47a3.73 3.73 0 0 1 3.724-3.733 3.73 3.73 0 0 1 3.724 3.733v7.467zm14.896 134.4a3.73 3.73 0 0 1-3.724 3.733 3.73 3.73 0 0 1-3.724-3.733v-7.467a3.73 3.73 0 0 1 3.724-3.733 3.73 3.73 0 0 1 3.724 3.733v7.467zm0-22.4a3.73 3.73 0 0 1-3.724 3.733 3.73 3.73 0 0 1-3.724-3.733v-7.467a3.73 3.73 0 0 1 3.724-3.733 3.73 3.73 0 0 1 3.724 3.733v7.467zm0-22.4a3.73 3.73 0 0 1-3.724 3.733 3.73 3.73 0 0 1-3.724-3.733v-7.467a3.73 3.73 0 0 1 3.724-3.733 3.73 3.73 0 0 1 3.724 3.733v7.467zm0-22.4a3.73 3.73 0 0 1-3.724 3.733 3.73 3.73 0 0 1-3.724-3.733v-7.467a3.73 3.73 0 0 1 3.724-3.733 3.73 3.73 0 0 1 3.724 3.733v7.467zm0-22.4a3.73 3.73 0 0 1-3.724 3.733 3.73 3.73 0 0 1-3.724-3.733v-7.467a3.73 3.73 0 0 1 3.724-3.733 3.73 3.73 0 0 1 3.724 3.733v7.467zm0-22.4a3.73 3.73 0 0 1-3.724 3.733 3.73 3.73 0 0 1-3.724-3.733v-7.47a3.73 3.73 0 0 1 3.724-3.733 3.73 3.73 0 0 1 3.724 3.733v7.467zm0-22.4a3.73 3.73 0 0 1-3.724 3.733 3.73 3.73 0 0 1-3.724-3.733v-7.47a3.73 3.73 0 0 1 3.724-3.733 3.73 3.73 0 0 1 3.724 3.733v7.467z"/></g><defs><path id="A" d="M18.5 165c-1.932 0-3.5 1.68-3.5 3.75v7.5c0 2.07 1.568 3.75 3.5 3.75s3.5-1.68 3.5-3.75v-7.5c0-2.07-1.568-3.75-3.5-3.75z"/></defs></svg>