<svg xmlns="http://www.w3.org/2000/svg" width="55" height="55" viewBox="0 0 55 55">
  <g id="code_cmt" transform="translate(1.5 1.5)">
    <path id="Shape" d="M9.67,51.877a1.627,1.627,0,0,1-1-1.5V41.167H5.958A5.964,5.964,0,0,1,0,35.208V5.958A5.963,5.963,0,0,1,5.958,0H46.041A5.964,5.964,0,0,1,52,5.958v29.25a5.964,5.964,0,0,1-5.959,5.959H21.8L11.443,51.523A1.626,1.626,0,0,1,10.292,52,1.651,1.651,0,0,1,9.67,51.877Z" fill="none" stroke="#5b4ddd" stroke-width="3"/>
    <path id="Path" d="M8.125,14.084a1.614,1.614,0,0,1-1.04-.377L.585,8.29a1.624,1.624,0,0,1,0-2.5L7.085.378a1.625,1.625,0,1,1,2.08,2.5l-5,4.169,5,4.169a1.625,1.625,0,0,1-1.042,2.873Z" transform="translate(10.292 13.541)" fill="#5b4ddd"/>
    <path id="Path-2" data-name="Path" d="M1.626,14.084a1.625,1.625,0,0,1-1.04-2.873l5-4.169-5-4.169A1.625,1.625,0,1,1,2.668.378l6.5,5.417a1.624,1.624,0,0,1,0,2.5l-6.5,5.417a1.624,1.624,0,0,1-1.042.377Z" transform="translate(29.791 13.541)" fill="#5b4ddd"/>
    <path id="Path-3" data-name="Path" d="M1.625,18.418a1.608,1.608,0,0,1-.446-.063A1.625,1.625,0,0,1,.063,16.346L4.4,1.18a1.625,1.625,0,0,1,3.124.893l-1.742,6.1-2.591,9.07a1.623,1.623,0,0,1-1.562,1.179Z" transform="translate(21.125 11.374)" fill="#5b4ddd"/>
  </g>
</svg>
