<?xml version="1.0" encoding="UTF-8"?>
<svg width="72px" height="72px" viewBox="0 0 72 72" version="1.1" xmlns="http://www.w3.org/2000/svg" xmlns:xlink="http://www.w3.org/1999/xlink">
    <title>Combined Shape Copy</title>
    <g id="Marketing-Pages" stroke="none" stroke-width="1" fill="none" fill-rule="evenodd">
        <g id="org-v1.3" transform="translate(-152.000000, -1843.000000)" fill="#A02541">
            <g id="Group-27" transform="translate(28.000000, 1334.000000)">
                <g id="Group-5" transform="translate(0.000000, 509.000000)">
                    <path d="M184.528656,0 C187.221203,0 189.411719,2.19051562 189.411719,4.8830625 L189.411719,4.8830625 L189.411719,19.4260781 L189.77875,19.4260781 C193.209156,19.4260781 196,22.2167812 196,25.6471875 L196,25.6471875 L196,39.3557344 C196,40.1322656 195.370422,40.7619844 194.59375,40.7619844 C193.817078,40.7619844 193.1875,40.1322656 193.1875,39.3557344 L193.1875,39.3557344 L193.1875,30.1322812 L175.336703,44.881875 L193.1875,61.102125 L193.1875,52.0700625 C193.1875,51.2935312 193.817078,50.6638125 194.59375,50.6638125 C195.370422,50.6638125 196,51.2935312 196,52.0700625 L196,52.0700625 L196,65.7781875 C196,69.208875 193.208875,72 189.778188,72 L189.778188,72 L130.221953,72 C126.791125,72 124,69.208875 124,65.7781875 L124,65.7781875 L124,25.6471875 C124,22.2167812 126.790844,19.4260781 130.22125,19.4260781 L130.22125,19.4260781 L130.588281,19.4260781 L130.588281,4.8830625 C130.588281,2.19051563 132.778797,0 135.471344,0 L135.471344,0 Z M173.146328,46.6917187 L164.876875,53.5245469 C164.624734,53.7326719 164.308047,53.8467187 163.981094,53.8467187 L163.981094,53.8467187 L156.018906,53.8467187 C155.691812,53.8467187 155.375125,53.7326719 155.123125,53.5245469 L155.123125,53.5245469 L146.853672,46.6917187 L126.8125,64.9022344 L126.8125,65.7781875 C126.8125,67.6580625 128.341938,69.1875 130.221953,69.1875 L130.221953,69.1875 L189.778047,69.1875 C191.658062,69.1875 193.1875,67.6580625 193.1875,65.7781875 L193.1875,65.7781875 L193.1875,64.9022344 L173.146328,46.6917187 Z M171.043703,62.0360156 C171.820375,62.0360156 172.449953,62.6657344 172.449953,63.4422656 C172.449953,64.2187969 171.820375,64.8485156 171.043703,64.8485156 L149.070344,64.8485156 C148.293672,64.8485156 147.664094,64.2187969 147.664094,63.4422656 C147.664094,62.6657344 148.293672,62.0360156 149.070344,62.0360156 L171.043703,62.0360156 Z M126.8125,30.1322812 L126.8125,61.102125 L144.663297,44.881875 L126.8125,30.1322812 Z M166.842953,56.4408281 C167.619625,56.4408281 168.249203,57.0705469 168.249203,57.8470781 C168.249203,58.6236094 167.619625,59.2533281 166.842953,59.2533281 L153.271094,59.2533281 C152.494422,59.2533281 151.864844,58.6236094 151.864844,57.8470781 C151.864844,57.0705469 152.494422,56.4408281 153.271094,56.4408281 L166.842953,56.4408281 Z M184.528656,2.8125 L135.471344,2.8125 C134.329609,2.8125 133.400781,3.74132812 133.400781,4.8830625 L133.400781,4.8830625 L133.400781,31.9276406 L156.524594,51.0342187 L163.475266,51.0342187 L186.599219,31.9276406 L186.599219,4.8830625 C186.599219,3.74132812 185.670391,2.8125 184.528656,2.8125 L184.528656,2.8125 Z M195.335828,44.4929063 C195.827172,44.7982031 196.086203,45.3945938 195.971875,45.961875 C195.841234,46.6107188 195.257219,47.0939063 194.59375,47.0939063 C194.005656,47.0939063 193.469172,46.7129531 193.271172,46.1607188 C193.075984,45.6163594 193.242484,44.9895938 193.684047,44.6151094 C194.144453,44.2245938 194.822828,44.17425 195.335828,44.4929063 Z M160.056953,39.0708281 C160.833625,39.0708281 161.463203,39.7005469 161.463203,40.4770781 L161.463203,41.8942969 C161.463203,42.6709688 160.833625,43.3005469 160.056953,43.3005469 C159.280281,43.3005469 158.650703,42.6708281 158.650703,41.8942969 L158.650703,40.4770781 C158.650703,39.7005469 159.280281,39.0708281 160.056953,39.0708281 Z M149.628203,34.7509687 C150.177344,35.3001094 150.177344,36.1905469 149.628203,36.7398281 L147.245172,39.1227187 C146.970531,39.3972187 146.610672,39.5346094 146.250812,39.5346094 C145.890813,39.5346094 145.531094,39.3972188 145.256453,39.1227188 C144.707313,38.5735781 144.707313,37.6831406 145.256453,37.1338594 L147.639484,34.7509687 C148.188625,34.2019688 149.078922,34.2021094 149.628203,34.7509687 Z M172.474562,34.7509687 L174.857594,37.1338594 C175.406734,37.683 175.406875,38.5734375 174.857594,39.1227187 C174.583094,39.3972188 174.223234,39.5346094 173.863234,39.5346094 C173.503375,39.5346094 173.143516,39.3972188 172.868875,39.1227187 L170.485844,36.7398281 C169.936703,36.1906875 169.936562,35.30025 170.485844,34.7509687 C171.034984,34.2019688 171.925422,34.2019688 172.474562,34.7509687 Z M160.056953,14.0333906 C160.910969,14.0333906 161.699453,14.4966094 162.114719,15.242625 L164.34925,19.2564844 L168.86275,20.1384844 C169.701719,20.3024531 170.386844,20.9091094 170.650656,21.7219219 C170.914328,22.5340313 170.716469,23.4268594 170.134422,24.0517969 L167.003125,27.4138594 L167.557609,31.9715156 C167.660687,32.8187813 167.295766,33.6567656 166.605297,34.1589375 C165.914266,34.66125 165.003297,34.7499844 164.228312,34.3902656 L160.057234,32.4542813 L155.886156,34.3902656 C155.570031,34.5369375 155.231547,34.6089764 154.894609,34.6089764 C154.404812,34.6089764 153.91825,34.4565 153.508891,34.1587969 C152.818422,33.6569063 152.4535,32.8187813 152.556578,31.9715156 L153.110922,27.4138594 L149.979625,24.0517969 C149.397578,23.4268594 149.199719,22.5338906 149.463531,21.7217813 C149.727344,20.90925 150.412469,20.3024531 151.251437,20.1384844 L155.764797,19.2564844 L157.999328,15.242625 C158.414594,14.49675 159.202937,14.0333906 160.056953,14.0333906 Z M160.056953,17.3286563 L157.904266,21.1954219 C157.70275,21.5573906 157.351891,21.8120625 156.945344,21.8915156 L152.601578,22.7404688 L155.615031,25.9759688 C155.897687,26.2794375 156.031984,26.6924531 155.981922,27.1042031 L155.448109,31.4929688 L159.465062,29.6285625 C159.652656,29.5412344 159.854875,29.4977813 160.056953,29.4977813 C160.259172,29.4977813 160.46125,29.541375 160.648984,29.6285625 L164.665937,31.4929688 L164.131984,27.1042031 C164.081922,26.6923125 164.216219,26.2794375 164.498875,25.9759688 L167.512328,22.7404688 L163.168562,21.8915156 C162.761875,21.8120625 162.411156,21.5573906 162.209641,21.1954219 L160.056953,17.3286563 Z M130.588281,22.2385781 L130.22125,22.2385781 C128.341656,22.2385781 126.8125,23.7677344 126.8125,25.6471875 L126.8125,25.6471875 L126.8125,26.4840469 L130.588281,29.6038125 L130.588281,22.2385781 Z M189.77875,22.2385781 L189.411719,22.2385781 L189.411719,29.6038125 L193.1875,26.4840469 L193.1875,25.6471875 C193.1875,23.7677344 191.658344,22.2385781 189.77875,22.2385781 L189.77875,22.2385781 Z M177.629172,22.9158281 C178.405844,22.9158281 179.035422,23.5455469 179.035422,24.3220781 C179.035422,25.0986094 178.405844,25.7283281 177.629172,25.7283281 L176.211953,25.7283281 C175.435281,25.7283281 174.805703,25.0986094 174.805703,24.3220781 C174.805703,23.5455469 175.435281,22.9158281 176.211953,22.9158281 L177.629172,22.9158281 Z M143.902094,22.9158281 C144.678766,22.9158281 145.308344,23.5455469 145.308344,24.3220781 C145.308344,25.0986094 144.678766,25.7283281 143.902094,25.7283281 L142.484875,25.7283281 C141.708203,25.7283281 141.078625,25.0986094 141.078625,24.3220781 C141.078625,23.5455469 141.708203,22.9158281 142.484875,22.9158281 L143.902094,22.9158281 Z M174.857734,9.5214375 C175.406875,10.0705781 175.406875,10.9610156 174.857734,11.5102969 L172.474703,13.8931875 C172.200063,14.1676875 171.840203,14.3050781 171.480344,14.3050781 C171.120344,14.3050781 170.760625,14.1676875 170.485984,13.8931875 C169.936844,13.3440469 169.936844,12.4536094 170.485984,11.9043281 L172.869016,9.5214375 C173.418156,8.97257813 174.308594,8.97257813 174.857734,9.5214375 Z M147.245031,9.5214375 L149.628062,11.9043281 C150.177203,12.4534687 150.177344,13.3439062 149.628062,13.8931875 C149.353563,14.1676875 148.993562,14.3050781 148.633703,14.3050781 C148.273844,14.3050781 147.913984,14.1676875 147.639344,13.8931875 L145.256313,11.5102969 C144.707172,10.9611563 144.707031,10.0707188 145.256313,9.5214375 C145.805453,8.9724375 146.695891,8.9724375 147.245031,9.5214375 Z M160.056953,5.34375 C160.833625,5.34375 161.463203,5.97346875 161.463203,6.75 L161.463203,8.16707812 C161.463203,8.94375 160.833625,9.57332812 160.056953,9.57332812 C159.280281,9.57332812 158.650703,8.94360937 158.650703,8.16707812 L158.650703,6.75 C158.650703,5.97346875 159.280281,5.34375 160.056953,5.34375 Z" id="Combined-Shape-Copy"></path>
                </g>
            </g>
        </g>
    </g>
</svg>