<svg xmlns="http://www.w3.org/2000/svg" xmlns:xlink="http://www.w3.org/1999/xlink" width="26" height="42" viewBox="0 0 26 42">
  <defs>
    <clipPath id="clip-Concerts-claimed-small">
      <rect width="26" height="42"/>
    </clipPath>
  </defs>
  <g id="Concerts-claimed-small" clip-path="url(#clip-Concerts-claimed-small)">
    <g id="Group_210" data-name="Group 210" transform="translate(-715.7 -179.022)">
      <g id="Group_55" data-name="Group 55" transform="translate(716 189.163)">
        <g id="Group_7" data-name="Group 7" transform="translate(0 0)">
          <path id="Path_9" data-name="Path 9" d="M21.2,3A12.685,12.685,0,0,0,8.516,15.684C8.516,26.228,21.2,34.859,21.2,34.859s12.685-9.266,12.685-19.176A12.684,12.684,0,0,0,21.2,3Z" transform="translate(-8.516 -3)" fill="#f63c03"/>
        </g>
        <g id="Group_9" data-name="Group 9" transform="translate(7.905 5.535)">
          <g id="Group_8" data-name="Group 8" transform="translate(1.376)">
            <path id="Path_10" data-name="Path 10" d="M36.9,15.055a2.156,2.156,0,1,0-2.02,2.284A2.156,2.156,0,0,0,36.9,15.055Z" transform="translate(-28.652 -13.03)" fill="#fff"/>
            <path id="Path_11" data-name="Path 11" d="M29.323,19,26.247,23.09l1.069.918,3.63-3.55A4.527,4.527,0,0,1,29.323,19Z" transform="translate(-25.771 -15.738)" fill="#fff"/>
            <path id="Path_12" data-name="Path 12" d="M26.194,28.3l.5-.414-1-.843-.321.541Z" transform="translate(-25.376 -19.389)" fill="#fff"/>
          </g>
          <path id="Path_13" data-name="Path 13" d="M24.036,28.381l-.216.558A3.387,3.387,0,0,0,22.86,31a1.078,1.078,0,0,0,.43.783c1.088.837,2.762-.748,2.824-.808.018-.016,1.783-1.57,2.606-.649a.854.854,0,0,1,.221.678c-.086.98-1.448,2.251-1.965,2.657a.3.3,0,1,0,.367.469c.085-.067,2.064-1.635,2.191-3.074a1.439,1.439,0,0,0-.37-1.128c-.363-.406-1.049-.768-2.252-.191a5.7,5.7,0,0,0-1.2.8c-.354.339-1.491,1.207-2.057.773a.481.481,0,0,1-.2-.36,2.827,2.827,0,0,1,.78-1.585l.658-.229" transform="translate(-22.856 -19.998)" fill="#fff"/>
        </g>
      </g>
      <path id="crown_1_" data-name="crown (1)" d="M17.07,47.509a.5.5,0,0,1-.013.148l-1.1,4.384a.5.5,0,0,1-.481.377L8.9,52.452H2.325a.5.5,0,0,1-.483-.378l-1.1-4.4a.5.5,0,0,1-.013-.152,1.047,1.047,0,1,1,.978-.19l1.372,1.383a1.862,1.862,0,0,0,2.807-.19l2.255-2.988a1.047,1.047,0,1,1,1.5-.018l0,0,2.239,3a1.869,1.869,0,0,0,1.49.747,1.848,1.848,0,0,0,1.315-.545l1.381-1.381a1.046,1.046,0,1,1,1,.171Zm-1.216,6.5a.5.5,0,0,0-.5-.5H2.469a.5.5,0,0,0-.5.5v1.2a.5.5,0,0,0,.5.5H15.356a.5.5,0,0,0,.5-.5Z" transform="translate(720 135.272)" fill="#f63c03"/>
    </g>
  </g>
</svg>
