<?xml version="1.0" encoding="UTF-8"?>
<svg width="80px" height="80px" viewBox="0 0 80 80" version="1.1" xmlns="http://www.w3.org/2000/svg" xmlns:xlink="http://www.w3.org/1999/xlink">
    <!-- Generator: Sketch 63.1 (92452) - https://sketch.com -->
    <title>congrats</title>
    <desc>Created with Sketch.</desc>
    <g id="Screens" stroke="none" stroke-width="1" fill="none" fill-rule="evenodd">
        <g id="6-view-analytics-attendee/regular-user-win-email" transform="translate(-560.000000, -129.000000)" fill-rule="nonzero">
            <g id="Group-4" transform="translate(250.000000, 99.000000)">
                <g id="congrats" transform="translate(310.000000, 30.000000)">
                    <path d="M65.2290432,47.7922078 L14.7709568,47.7922078 L9.35064935,57.7022977 L14.2535397,57.7022977 L14.2535397,80 L65.7464603,80 L65.7464603,57.7022977 L70.6493506,57.7022977 L65.2290432,47.7922078 Z M63.5537237,50.2697303 L66.2638775,55.2247752 L44.9028903,55.2247752 L42.1927366,50.2697303 L63.5537237,50.2697303 Z M16.4462763,50.2697303 L37.8072634,50.2697303 L35.0971097,55.2247752 L13.7361225,55.2247752 L16.4462763,50.2697303 Z M63.0363066,77.5224775 L41.3550769,77.5224775 L41.3550769,68.8511489 L38.6449231,68.8511489 L38.6449231,77.5224775 L16.9636934,77.5224775 L16.9636934,57.7022977 L36.7724292,57.7022977 L38.6449231,54.2781633 L38.6449231,65.1348651 L41.3550769,65.1348651 L41.3550769,54.2781633 L43.2275708,57.7022977 L63.0363066,57.7022977 L63.0363066,77.5224775 Z" id="Shape" fill="#5B4DDD"></path>
                    <polygon id="Path" fill="#EB9D01" points="19.7402597 68.5714286 27.012987 68.5714286 27.012987 70.6493506 19.7402597 70.6493506"></polygon>
                    <polygon id="Path" fill="#EB9D01" points="19.7402597 72.7272727 27.012987 72.7272727 27.012987 74.8051948 19.7402597 74.8051948"></polygon>
                    <polygon id="Path" fill="#EB9D01" points="30.1298701 72.7272727 32.2077922 72.7272727 32.2077922 74.8051948 30.1298701 74.8051948"></polygon>
                    <path d="M34.0655561,20.7792208 L40.5201629,19.1323748 L46.9747697,20.7778548 L47.4804649,13.8407466 L50.9090909,7.9787672 L44.844845,5.35173717 L40.5201629,0 L36.1941158,5.35173717 L30.1298701,7.9787672 L33.5584962,13.8407466 L34.0655561,20.7792208 Z M37.9357268,7.64475328 L40.5201629,4.44805516 L43.104599,7.6461193 L46.9031126,9.29296532 L44.7411127,12.9896598 L44.4305982,17.2437273 L40.5201629,16.2464668 L36.6097277,17.2423613 L36.2992131,12.9882938 L34.1372133,9.29091611 L37.9357268,7.64475328 Z" id="Shape" fill="#EB9D01"></path>
                    <path d="M14.0518937,23.8880251 L15.5844156,21.2679043 L12.8695448,20.0901134 L10.9090909,17.6623377 L8.94863698,20.089082 L6.23376623,21.2668731 L7.76628811,23.8869938 L7.99287065,27.0119557 L10.9090909,26.2693905 L13.826341,27.012987 L14.0518937,23.8880251 Z M11.984843,23.2434373 L11.9045092,24.3428463 L10.9090909,24.0896522 L9.91470252,24.3428463 L9.83333886,23.2434373 L9.25658331,22.2559286 L10.2617858,21.8201873 L10.9090909,21.0203826 L11.5553661,21.8212185 L12.5605687,22.2574757 L11.984843,23.2434373 Z" id="Shape" fill="#EB9D01"></path>
                    <path d="M72.2337119,23.8880251 L73.7662338,21.2679043 L71.051363,20.0901134 L69.0909091,17.6623377 L67.1304552,20.089082 L64.4155844,21.2668731 L65.9481063,23.8869938 L66.1746888,27.0119557 L69.0909091,26.2693905 L72.0081592,27.012987 L72.2337119,23.8880251 Z M70.1666611,23.2434373 L70.0863273,24.3428463 L69.0909091,24.0896522 L68.0965207,24.3428463 L68.0161869,23.2434373 L67.4394313,22.2559286 L68.4446339,21.8201873 L69.0909091,21.0203826 L69.7371843,21.8212185 L70.7423868,22.2574757 L70.1666611,23.2434373 Z" id="Shape" fill="#EB9D01"></path>
                    <path d="M16.6054248,31.1528864 C19.2512294,32.81178 21.6019251,34.8361277 23.5876354,37.1717172 L29.0909091,43.6363636 L27.9525346,35.0778503 C27.3582462,30.6094888 24.8196306,26.4963766 20.9879627,23.795333 L19.6569194,22.8571429 L15.5844156,30.5125446 L16.6054248,31.1528864 Z M20.6100876,26.9077516 C22.9594263,28.9977916 24.5530148,31.7798347 25.0991361,34.7895691 C23.3440857,32.8519608 21.352948,31.1254614 19.1582869,29.6374958 L20.6100876,26.9077516 Z" id="Shape" fill="#EB9D01"></path>
                    <path d="M52.0475798,35.0783756 L50.9090909,43.6363636 L56.4129175,37.1708385 C58.4001843,34.8353923 60.7497591,32.811169 63.3958295,31.1523773 L64.4155844,30.5120745 L60.3426713,22.8571429 L59.0114944,23.7978263 C55.1807985,26.4987041 52.6405709,30.6102884 52.0475798,35.0783756 L52.0475798,35.0783756 Z M60.8427109,29.638355 C58.6478294,31.1262293 56.6551346,32.8513474 54.9012649,34.7901121 C55.448798,31.7805625 57.0411897,28.9986902 59.3907644,26.9087784 L60.8427109,29.638355 Z" id="Shape" fill="#EB9D01"></path>
                    <path d="M45.7142857,41.5584416 L48.4770542,41.5584416 L48.4770542,35.9535224 C48.4770542,29.5282118 50.8155597,23.2733806 55.0649351,18.3360091 L52.9415964,16.6233766 C48.2807735,22.0401808 45.7142857,28.90508 45.7142857,35.9535224 L45.7142857,41.5584416 Z" id="Path" fill="#EB9D01"></path>
                    <polygon id="Path" fill="#5B4DDD" points="55.0649351 15.5844156 57.1428571 15.5844156 57.1428571 17.6623377 55.0649351 17.6623377"></polygon>
                    <polygon id="Path" fill="#5B4DDD" points="57.1428571 9.35064935 59.2207792 9.35064935 59.2207792 11.4285714 57.1428571 11.4285714"></polygon>
                    <path d="M31.5225471,41.5584416 L34.2857143,41.5584416 L34.2857143,35.9535224 C34.2857143,28.9037736 31.7188562,22.0401808 27.05871,16.6233766 L24.9350649,18.3360091 C29.1837042,23.2733806 31.5225471,29.5282118 31.5225471,35.9535224 L31.5225471,41.5584416 Z" id="Path" fill="#EB9D01"></path>
                    <polygon id="Path" fill="#5B4DDD" points="22.8571429 15.5844156 24.9350649 15.5844156 24.9350649 17.6623377 22.8571429 17.6623377"></polygon>
                    <polygon id="Path" fill="#5B4DDD" points="20.7792208 9.35064935 22.8571429 9.35064935 22.8571429 11.4285714 20.7792208 11.4285714"></polygon>
                    <polygon id="Path" fill="#5B4DDD" points="39.4805195 22.8571429 41.5584416 22.8571429 41.5584416 24.9350649 39.4805195 24.9350649"></polygon>
                    <polygon id="Path" fill="#EB9D01" points="39.4805195 28.0519481 41.5584416 28.0519481 41.5584416 45.7142857 39.4805195 45.7142857"></polygon>
                    <polygon id="Path" fill="#5B4DDD" points="75.8441558 36.3636364 77.9220779 36.3636364 77.9220779 38.4415584 75.8441558 38.4415584"></polygon>
                    <polygon id="Path" fill="#5B4DDD" points="75.8441558 39.4805195 77.9220779 39.4805195 77.9220779 41.5584416 75.8441558 41.5584416"></polygon>
                    <polygon id="Path" fill="#5B4DDD" points="77.9220779 38.4415584 80 38.4415584 80 40.5194805 77.9220779 40.5194805"></polygon>
                    <polygon id="Path" fill="#5B4DDD" points="72.7272727 38.4415584 74.8051948 38.4415584 74.8051948 40.5194805 72.7272727 40.5194805"></polygon>
                    <polygon id="Path" fill="#5B4DDD" points="70.6493506 0 72.7272727 0 72.7272727 2.07792208 70.6493506 2.07792208"></polygon>
                    <polygon id="Path" fill="#5B4DDD" points="70.6493506 5.19480519 72.7272727 5.19480519 72.7272727 7.27272727 70.6493506 7.27272727"></polygon>
                    <polygon id="Path" fill="#5B4DDD" points="75.8441558 2.07792208 77.9220779 2.07792208 77.9220779 4.15584416 75.8441558 4.15584416"></polygon>
                    <polygon id="Path" fill="#5B4DDD" points="68.5714286 2.07792208 70.6493506 2.07792208 70.6493506 4.15584416 68.5714286 4.15584416"></polygon>
                    <polygon id="Path" fill="#5B4DDD" points="2.07792208 39.4805195 4.15584416 39.4805195 4.15584416 41.5584416 2.07792208 41.5584416"></polygon>
                    <polygon id="Path" fill="#5B4DDD" points="2.07792208 45.7142857 4.15584416 45.7142857 4.15584416 47.7922078 2.07792208 47.7922078"></polygon>
                    <polygon id="Path" fill="#5B4DDD" points="5.19480519 41.5584416 7.27272727 41.5584416 7.27272727 43.6363636 5.19480519 43.6363636"></polygon>
                    <polygon id="Path" fill="#5B4DDD" points="0 41.5584416 2.07792208 41.5584416 2.07792208 43.6363636 0 43.6363636"></polygon>
                    <polygon id="Path" fill="#5B4DDD" points="2.07792208 0 4.15584416 0 4.15584416 2.07792208 2.07792208 2.07792208"></polygon>
                    <polygon id="Path" fill="#5B4DDD" points="2.07792208 5.19480519 4.15584416 5.19480519 4.15584416 7.27272727 2.07792208 7.27272727"></polygon>
                    <polygon id="Path" fill="#5B4DDD" points="5.19480519 2.07792208 7.27272727 2.07792208 7.27272727 4.15584416 5.19480519 4.15584416"></polygon>
                    <polygon id="Path" fill="#5B4DDD" points="0 2.07792208 2.07792208 2.07792208 2.07792208 4.15584416 0 4.15584416"></polygon>
                </g>
            </g>
        </g>
    </g>
</svg>