<?xml version="1.0" encoding="UTF-8"?>
<svg width="42px" height="38px" viewBox="0 0 42 38" version="1.1" xmlns="http://www.w3.org/2000/svg" xmlns:xlink="http://www.w3.org/1999/xlink">
    <!-- Generator: Sketch 63.1 (92452) - https://sketch.com -->
    <title>disqualify</title>
    <desc>Created with Sketch.</desc>
    <g id="Screens" stroke="none" stroke-width="1" fill="none" fill-rule="evenodd">
        <g id="5-view-analytics-attendee/regular-user-disqualified" transform="translate(-45.000000, -143.000000)" fill="#D0021B" fill-rule="nonzero">
            <g id="Group-16" transform="translate(15.000000, 128.000000)">
                <g id="disqualify" transform="translate(30.000000, 15.000000)">
                    <path d="M33.5990894,21.5255122 C32.932439,20.8588618 31.8513659,20.8588618 31.1846016,21.5255122 L29.9773008,22.7326992 L28.7701138,21.5255122 C28.1034634,20.8588618 27.0223902,20.8588618 26.355626,21.5255122 C25.6889756,22.1921626 25.6889756,23.2732358 26.355626,23.94 L27.562813,25.147187 L26.355626,26.354374 C25.6889756,27.0210244 25.6889756,28.1022114 26.355626,28.7688618 C26.6890081,29.1022439 27.1259675,29.2689919 27.562813,29.2689919 C27.9997724,29.2689919 28.4367317,29.1022439 28.77,28.7688618 L29.977187,27.5616748 L31.1844878,28.7688618 C31.5178699,29.1022439 31.9547154,29.2689919 32.3916748,29.2689919 C32.8286341,29.2689919 33.2655935,29.1022439 33.5989756,28.7688618 C34.265626,28.1022114 34.265626,27.0211382 33.5989756,26.354374 L32.3916748,25.147187 L33.5989756,23.94 C34.2658537,23.2733496 34.2658537,22.1922764 33.5990894,21.5255122 Z" id="XMLID_71_"></path>
                    <path d="M29.9774146,13.1959675 C26.0522927,13.1959675 22.5631057,15.0982602 20.3830894,18.0291545 C19.5120163,17.8459024 18.6095285,17.748813 17.6847317,17.748813 C16.7009756,17.748813 15.7424878,17.8586504 14.8204228,18.0653496 C10.4814472,19.0377236 6.94980488,22.1704228 5.41811382,26.2709431 C4.88668293,27.6937073 4.59530081,29.2325691 4.59530081,30.8382439 C4.59530081,31.7811382 5.35972358,32.545561 6.30261789,32.545561 L20.5980976,32.545561 C22.7886992,35.316878 26.178748,37.0984065 29.9774146,37.0984065 C36.5674309,37.0984065 41.9286341,31.7370894 41.9286341,25.147187 C41.9286341,18.5572846 36.5674309,13.1959675 29.9774146,13.1959675 Z M29.9774146,33.6837724 C28.4303577,33.6837724 26.9794797,33.2680976 25.726878,32.545561 C23.1681789,31.0696423 21.4408293,28.3073171 21.4408293,25.147187 C21.4408293,22.869626 22.3391057,20.7993333 23.7978374,19.2669593 C25.3537724,17.6326016 27.5477886,16.6106016 29.9774146,16.6106016 C34.6844878,16.6106016 38.514,20.4401138 38.514,25.147187 C38.514,29.8542602 34.6844878,33.6837724 29.9774146,33.6837724 Z" id="XMLID_85_"></path>
                    <path d="M3.71307317,7.19190244 C3.71307317,9.8855935 5.80362602,12.0986179 8.44734959,12.2975772 C7.60712195,10.7835285 7.12770732,9.04274797 7.12770732,7.19190244 C7.12770732,5.34105691 7.60712195,3.6001626 8.44734959,2.08622764 C5.80362602,2.28518699 3.71307317,4.49821138 3.71307317,7.19190244 Z" id="XMLID_88_"></path>
                    <path d="M10.6410244,15.9150407 C10.0525691,15.7924553 9.44795122,15.7284878 8.83502439,15.7284878 C3.96336585,15.7284878 0,19.6919675 0,24.563626 C0,25.5065203 0.764422764,26.2709431 1.70731707,26.2709431 L1.82398374,26.2709431 C3.14453659,21.6921463 6.39879675,17.9253496 10.6410244,15.9150407 Z" id="XMLID_89_"></path>
                    <path d="M17.6847317,0.0496260163 C15.2839024,0.0496260163 13.1576098,1.2416748 11.8619837,3.06338211 C11.0323415,4.23004878 10.5423415,5.6544065 10.5423415,7.19178862 C10.5423415,8.72917073 11.0323415,10.1535285 11.8619837,11.3201951 C13.1576098,13.1420163 15.2839024,14.334065 17.6847317,14.334065 C21.6230569,14.334065 24.8270081,11.1301138 24.8270081,7.19178862 C24.8270081,3.25346341 21.6230569,0.0496260163 17.6847317,0.0496260163 Z" id="XMLID_90_"></path>
                </g>
            </g>
        </g>
    </g>
</svg>