<?xml version="1.0" encoding="utf-8"?>
<!-- Generator: Adobe Illustrator 20.0.0, SVG Export Plug-In . SVG Version: 6.00 Build 0)  -->
<svg version="1.1" id="Layer_1" xmlns="http://www.w3.org/2000/svg" xmlns:xlink="http://www.w3.org/1999/xlink" x="0px" y="0px"
	 viewBox="0 0 26 42" style="enable-background:new 0 0 26 42;" xml:space="preserve">
<style type="text/css">
	.st0{clip-path:url(#SVGID_2_);}
	.st1{fill:#B7252F;}
	.st2{fill:#FFFFFF;}
</style>
<g>
	<g>
		<defs>
			<rect id="SVGID_1_" width="26" height="42"/>
		</defs>
		<clipPath id="SVGID_2_">
			<use xlink:href="#SVGID_1_"  style="overflow:visible;"/>
		</clipPath>
		<g id="Concerts-claimed-small" class="st0">
			<g id="Group_210" transform="translate(-715.7 -179.022)">
				<g>
					<path class="st1" d="M728.7,189.2c-7,0-12.7,5.7-12.7,12.7c0,10.6,12.7,19.2,12.7,19.2s12.7-9.3,12.7-19.2
						C741.4,194.9,735.7,189.2,728.7,189.2z"/>
					<path class="st2" d="M732.8,203.2v3.9c0,0.5,0.4,0.9,0.9,0.9c0.5,0,0.9-0.4,0.9-0.9v-3.9H732.8z"/>
					<path class="st2" d="M733.8,196c-0.2-0.2-0.6-0.2-0.8,0c-0.1,0.1-0.2,0.2-0.2,0.4v6.4h1.2c0.3,0,0.6-0.3,0.6-0.6v-4.4
						C734.6,197.1,734.3,196.4,733.8,196z"/>
					<path class="st2" d="M726.3,198.7c0-1.6-0.8-2.8-1.7-2.8c-1,0-1.7,1.3-1.7,2.8c0,0.7,0.2,1.4,0.5,2.1c0.5,0.6,0.7,1.3,0.6,2
						l-0.3,4.3c-0.1,0.5,0.3,0.9,0.8,1c0.5,0.1,0.9-0.3,1-0.8c0-0.1,0-0.1,0-0.2l-0.3-4.3c-0.1-0.7,0.1-1.5,0.6-2
						C726.1,200.1,726.3,199.4,726.3,198.7z"/>
					<path class="st2" d="M731.1,199.5c0-0.1,0-0.1,0-0.2c0-0.8-0.4-3.5-0.4-3.5h-0.4v3.9h-0.5l-0.2-3.9h-0.5l-0.2,3.9h-0.5v-3.9
						h-0.4c0,0-0.4,2.6-0.4,3.5c0,0.1,0,0.1,0,0.2c0,0.7,0.2,1.4,0.5,2.1c0.5,0.6,0.7,1.3,0.6,2l-0.3,3.4c-0.1,0.5,0.3,0.9,0.8,1
						s0.9-0.3,1-0.8c0-0.1,0-0.1,0-0.2l-0.3-3.4c-0.1-0.7,0.1-1.5,0.6-2C730.9,201,731.1,200.3,731.1,199.5z"/>
				</g>
				<path id="crown_1_" class="st1" d="M737.1,182.8v0.1l-1.1,4.4c-0.1,0.2-0.3,0.4-0.5,0.4h-6.6h-6.6c-0.2,0-0.4-0.2-0.5-0.4
					l-1.1-4.4c0,0,0-0.1,0-0.2c-0.6-0.2-0.9-0.8-0.7-1.3c0.2-0.6,0.8-0.9,1.3-0.7c0.6,0.2,0.9,0.8,0.7,1.3c-0.1,0.2-0.2,0.4-0.3,0.5
					l1.4,1.4c0.7,0.7,1.9,0.7,2.6,0c0.1-0.1,0.1-0.1,0.2-0.2l2.3-3c-0.4-0.4-0.4-1.1,0-1.5s1.1-0.4,1.5,0s0.4,1,0,1.5l0,0l2.2,3
					c0.4,0.5,0.9,0.7,1.5,0.7c0.5,0,1-0.2,1.3-0.5l1.4-1.4c-0.5-0.4-0.5-1-0.2-1.5c0.4-0.5,1-0.5,1.5-0.2c0.5,0.4,0.5,1,0.2,1.5
					C737.4,182.6,737.3,182.7,737.1,182.8L737.1,182.8z M735.9,189.3c0-0.3-0.2-0.5-0.5-0.5h-12.9c-0.3,0-0.5,0.2-0.5,0.5v1.2
					c0,0.3,0.2,0.5,0.5,0.5h12.9c0.3,0,0.5-0.2,0.5-0.5V189.3z"/>
			</g>
		</g>
	</g>
</g>
</svg>
