<?xml version="1.0" encoding="UTF-8"?>
<svg width="65px" height="65px" viewBox="0 0 65 65" version="1.1" xmlns="http://www.w3.org/2000/svg" xmlns:xlink="http://www.w3.org/1999/xlink">
    <title>list-view-icon</title>
    <g id="Page-1" stroke="none" stroke-width="1" fill="none" fill-rule="evenodd">
        <g id="embed-widget-event-listing" transform="translate(-74.000000, -464.000000)">
            <g id="Group-3" transform="translate(15.000000, 124.000000)">
                <g id="list-view-icon" transform="translate(59.000000, 340.000000)">
                    <g id="Group-2"></g>
                    <rect id="Rectangle" x="0.5" y="0.5" width="64" height="64"></rect>
                    <g id="Group-4" transform="translate(4.000000, 10.000000)" stroke="#979797">
                        <g id="Group">
                            <rect id="Rectangle" x="0" y="0" width="28" height="14"></rect>
                            <circle id="Oval" cx="7.5" cy="4.5" r="1.5"></circle>
                            <polyline id="Path-2" points="4 13 7.675 9.26666667 10.3 11.9333333 17.125 5 25 13"></polyline>
                        </g>
                        <line x1="33" y1="11.5" x2="56" y2="11.5" id="Line" stroke-linecap="square"></line>
                        <line x1="33" y1="3.5" x2="48" y2="3.5" id="Line" stroke-linecap="square"></line>
                    </g>
                    <g id="Group-4" transform="translate(4.000000, 38.000000)" stroke="#979797">
                        <g id="Group">
                            <rect id="Rectangle" x="0" y="0" width="28" height="14"></rect>
                            <circle id="Oval" cx="7.5" cy="4.5" r="1.5"></circle>
                            <polyline id="Path-2" points="4 13 7.675 9.26666667 10.3 11.9333333 17.125 5 25 13"></polyline>
                        </g>
                        <line x1="33" y1="11.5" x2="56" y2="11.5" id="Line" stroke-linecap="square"></line>
                        <line x1="33" y1="3.5" x2="48" y2="3.5" id="Line" stroke-linecap="square"></line>
                    </g>
                </g>
            </g>
        </g>
    </g>
</svg>