<?xml version="1.0" encoding="UTF-8"?>
<svg width="64px" height="64px" viewBox="0 0 64 64" version="1.1" xmlns="http://www.w3.org/2000/svg" xmlns:xlink="http://www.w3.org/1999/xlink">
    <title>location-icon</title>
    <g id="Page-1" stroke="none" stroke-width="1" fill="none" fill-rule="evenodd">
        <g id="embed-widget-event-listing" transform="translate(-74.000000, -624.000000)">
            <g id="Group-3" transform="translate(15.000000, 124.000000)">
                <g id="location-icon" transform="translate(59.000000, 500.000000)">
                    <g id="Group-3">
                        <rect id="Rectangle" x="0" y="0" width="64" height="64"></rect>
                    </g>
                    <g id="Group" transform="translate(17.000000, 7.750000)">
                        <path d="M15,0.25 C21.627417,0.25 27,5.44927387 27,11.8629032 C27,13.2200979 26.7594199,14.5229148 26.3172785,15.7335935 L26.3333333,15.733871 L16.3333333,40.25 L4.92991596,18.1812512 C4.44253948,17.4552745 4.03671496,16.6732955 3.72500663,15.8474729 L3.66666667,15.733871 L3.68272148,15.7335935 C3.24058012,14.5229148 3,13.2200979 3,11.8629032 C3,5.44927387 8.372583,0.25 15,0.25 Z M15.5,6.25 C12.4624339,6.25 10,8.48857625 10,11.25 C10,14.0114237 12.4624339,16.25 15.5,16.25 C18.5375661,16.25 21,14.0114237 21,11.25 C21,8.48857625 18.5375661,6.25 15.5,6.25 Z" id="Combined-Shape" stroke="#979797"></path>
                        <path d="M7.00001585,30.6955044 L7.00063514,32.0880167 C3.51347564,33.4256681 1.28,35.501551 1.28,37.75 C1.28,41.5989994 7.82501758,44.9423077 16,44.9423077 C24.1749824,44.9423077 30.72,41.5989994 30.72,37.75 C30.72,35.5017679 28.4869553,33.4260687 25.000374,32.0884038 L25.0009877,30.6958628 C29.2171704,32.2017173 32,34.7567378 32,37.75 C32,42.5676228 24.7912051,46.25 16,46.25 C7.2087949,46.25 0,42.5676228 0,37.75 C0,34.7565003 2.78327121,32.2013119 7.00001585,30.6955044 Z" id="Combined-Shape" fill="#979797" fill-rule="nonzero"></path>
                    </g>
                </g>
            </g>
        </g>
    </g>
</svg>