<?xml version="1.0" encoding="UTF-8"?>
<svg width="65px" height="65px" viewBox="0 0 65 65" version="1.1" xmlns="http://www.w3.org/2000/svg" xmlns:xlink="http://www.w3.org/1999/xlink">
    <title>button-icon</title>
    <g id="Page-1" stroke="none" stroke-width="1" fill="none" fill-rule="evenodd">
        <g id="embed-widget-event-listing" transform="translate(-74.000000, -144.000000)">
            <g id="Group-3" transform="translate(15.000000, 124.000000)">
                <g id="button-icon" transform="translate(59.000000, 20.000000)">
                    <rect id="Rectangle" x="0.5" y="0.5" width="64" height="64"></rect>
                    <path d="M54.5,11 C56.9852814,11 59,13.0147186 59,15.5 L59,15.5 L59,25.5 C59,27.9852814 56.9852814,30 54.5,30 L54.5,30 L49,30 L49,29 L54.5,29 C56.3685634,29 57.8951264,27.5357224 57.9948211,25.6920352 L58,25.5 L58,15.5 C58,13.5670034 56.4329966,12 54.5,12 L54.5,12 L9.5,12 C7.56700338,12 6,13.5670034 6,15.5 L6,15.5 L6,25.5 C6,27.4329966 7.56700338,29 9.5,29 L9.5,29 L31,29 L31,30 L9.5,30 C7.08572667,30 5.11551091,28.0987635 5.00489799,25.7118357 L5,25.5 L5,15.5 C5,13.0147186 7.01471863,11 9.5,11 L9.5,11 Z" id="Combined-Shape" fill="#666666" fill-rule="nonzero"></path>
                    <g id="Group" transform="translate(30.500000, 24.500000)" fill="#666666" fill-rule="nonzero">
                        <path d="M7.54451167,17 C7.24378618,17 7,16.7615137 7,16.4673467 L7,2.44547813 C7,1.09487785 8.11928813,-1.13686838e-13 9.5,-1.13686838e-13 C10.8807119,-1.13686838e-13 12,1.09487785 12,2.44547813 L12,15.1949371 C12,15.4891042 11.7562138,15.7275737 11.4554883,15.7275737 C11.1547628,15.7275737 10.9109767,15.4891042 10.9109767,15.1949371 L10.9109767,2.44547813 C10.9109767,1.68437927 10.2802283,1.06738674 9.50216076,1.06738674 C8.72409322,1.06738674 8.09334486,1.68437927 8.09334486,2.44547813 L8.09334486,16.4673467 C8.09334943,16.6093461 8.03538856,16.7454689 7.93233624,16.84548 C7.82928392,16.9454912 7.68967245,17.0011102 7.54451167,17 L7.54451167,17 Z" id="Path"></path>
                        <path d="M15.4494752,17 C15.1490104,17 14.9054356,16.7370616 14.9054356,16.412737 L14.9054356,10.8106377 C14.9054356,9.97151202 14.2752341,9.29126629 13.4978411,9.29126629 C12.7204481,9.29126629 12.0902466,9.97151202 12.0902466,10.8106377 C12.0902466,11.1349623 11.8466718,11.3978793 11.546207,11.3978793 C11.2457423,11.3978793 11.0021674,11.1349623 11.0021674,10.8106377 C10.9640268,9.82064387 11.4315933,8.8877134 12.2201308,8.3804486 C13.0086683,7.8731838 13.9913317,7.8731838 14.7798692,8.3804486 C15.5684067,8.8877134 16.0359732,9.82064387 15.9978326,10.8106377 L15.9978326,16.4313796 C15.9884611,16.7502186 15.744996,17.0026708 15.4494752,17 Z" id="Path"></path>
                        <path d="M19.4511668,17 C19.1504413,17 18.9066551,16.7538724 18.9066551,16.4502801 L18.9066551,12.523833 C18.9066551,11.738348 18.2759068,11.1015866 17.4978392,11.1015866 C16.7197717,11.1015866 16.0890233,11.738348 16.0890233,12.523833 C16.0890233,12.8274253 15.8452372,13.0735355 15.5445117,13.0735355 C15.2437862,13.0735355 15,12.8274253 15,12.523833 C15,11.1299585 16.1192881,10 17.5,10 C18.8807119,10 20,11.1299585 20,12.523833 L20,16.4502801 C20,16.5968293 19.9420437,16.7373136 19.8389914,16.8405291 C19.7359391,16.9437447 19.5963276,17.0011458 19.4511668,17 Z" id="Path"></path>
                        <path d="M10.9781301,30 C8.97440689,29.9926272 7.11539133,28.9416714 6.05750345,27.218226 L0.41657346,17.9456459 L0.41657346,17.923673 L0.373181691,17.8621487 C0.127952915,17.4673809 -0.00146294438,17.0101652 0,16.5437724 C0,15.1385025 1.12484485,13.9993061 2.51239591,13.9993061 C2.96140044,13.9959683 3.40268697,14.1175797 3.78811392,14.3508731 L3.88357582,14.4036082 L8.0405073,17.0623338 C8.29692864,17.2261606 8.37366589,17.5694935 8.21190477,17.8291893 C8.05014364,18.0888851 7.71113977,18.1666023 7.45471842,18.0027755 L3.23703846,15.3088933 C3.01861481,15.1748967 2.76775992,15.1049166 2.51239591,15.1067422 C2.00628597,15.1074918 1.53888608,15.3812054 1.28576485,15.8250684 C1.03264363,16.2689315 1.03212693,16.8157373 1.28440884,17.2600902 L7.00344402,26.6513242 C7.86230125,28.0485774 9.37037139,28.9002288 10.9954868,28.9057477 L18.2158772,28.9057477 C20.8030638,28.9033249 22.899796,26.7798176 22.9021882,24.1595929 L22.9021882,13.542269 C22.9021882,12.7510462 22.2688629,12.1096334 21.4876166,12.1096334 C20.7063702,12.1096334 20.0730449,12.7510462 20.0730449,13.542269 C20.0730449,13.848079 19.8282627,14.095987 19.5263086,14.095987 C19.2243545,14.095987 18.9795723,13.848079 18.9795723,13.542269 C18.9795723,12.1382126 20.1034333,11 21.4897862,11 C22.876139,11 24,12.1382126 24,13.542269 L24,24.1420146 C23.9952208,27.3728565 21.410321,29.9907652 18.2202163,29.9956054 L10.9781301,30 Z" id="Path"></path>
                    </g>
                </g>
            </g>
        </g>
    </g>
</svg>