<svg xmlns="http://www.w3.org/2000/svg" xmlns:xlink="http://www.w3.org/1999/xlink" width="26" height="32" viewBox="0 0 26 32">
  <defs>
    <clipPath id="clip-Festivals26_32">
      <rect width="26" height="32"/>
    </clipPath>
  </defs>
  <g id="Festivals26_32" data-name="Festivals26*32" clip-path="url(#clip-Festivals26_32)">
    <g id="Group_53" data-name="Group 53">
      <g id="Group_10" data-name="Group 10" transform="translate(0 0)">
        <path id="Path_14" data-name="Path 14" d="M106.761,3a12.873,12.873,0,0,0-13,12.74c0,10.59,13,19.26,13,19.26s13-9.307,13-19.261A12.872,12.872,0,0,0,106.761,3Z" transform="translate(-93.761 -3)" fill="#3285e1"/>
      </g>
      <g id="Group_16" data-name="Group 16" transform="translate(5.936 6.593)">
        <path id="Path_19" data-name="Path 19" d="M117.355,27.746l-3.439,6.878-3.439-6.878h6.878Z" transform="translate(-106.882 -20.708)" fill="#fff"/>
        <path id="Path_20" data-name="Path 20" d="M117.355,27.746l-.563,1.126H111.04l-.563-1.126h6.878Z" transform="translate(-106.882 -20.708)" fill="#fff"/>
        <path id="Path_21" data-name="Path 21" d="M110.2,15.312l.5.634.807-.053-.448.673.3.751-.778-.218-.622.517-.033-.808-.684-.432L110,16.1Z" transform="translate(-106.316 -15.032)" fill="#fff"/>
        <path id="Path_22" data-name="Path 22" d="M121.509,15.312l-.5.634-.807-.053.448.673-.3.751.778-.218.622.517.033-.808.684-.432-.758-.28Z" transform="translate(-111.321 -15.032)" fill="#fff"/>
        <path id="Path_23" data-name="Path 23" d="M105.643,24.888l.538-.538.538.538-.538.538Z" transform="translate(-104.675 -19.157)" fill="#fff"/>
        <path id="Path_24" data-name="Path 24" d="M125.981,24.89l.538-.538.538.538-.538.538Z" transform="translate(-113.959 -19.158)" fill="#fff"/>
        <ellipse id="Ellipse_1" data-name="Ellipse 1" cx="0.438" cy="0.438" rx="0.438" ry="0.438" transform="translate(0.219 0.223)" fill="#fff"/>
        <ellipse id="Ellipse_2" data-name="Ellipse 2" cx="0.438" cy="0.438" rx="0.438" ry="0.438" transform="translate(12.974 0.223)" fill="#fff"/>
        <g id="Group_15" data-name="Group 15">
          <path id="Path_25" data-name="Path 25" d="M117.17,27.336h-6.878a.219.219,0,0,0-.2.317l3.439,7.422a.219.219,0,0,0,.391,0l3.439-7.422a.218.218,0,0,0-.1-.293A.2.2,0,0,0,117.17,27.336Zm-3.439,7.15L111.209,28.9h.752a.219.219,0,0,0,0-.438h-.971l-.344-.688h6.17l-.344.688H112.96a.219.219,0,0,0,0,.438h3.293Z" transform="translate(-106.697 -20.52)" fill="#fff"/>
          <path id="Path_26" data-name="Path 26" d="M115.907,22.147a.219.219,0,0,0,.13.417l.008,0a1.481,1.481,0,0,0,.77-.938,1.665,1.665,0,0,0-.289-1.526,1.279,1.279,0,0,1-.008-1.6.219.219,0,0,0-.333-.284,1.712,1.712,0,0,0-.009,2.15,1.218,1.218,0,0,1,.221,1.133,1.087,1.087,0,0,1-.49.654Z" transform="translate(-109.29 -16.321)" fill="#fff"/>
          <path id="Path_27" data-name="Path 27" d="M108.336,23.071a1.478,1.478,0,0,0,.071-1.212,1.666,1.666,0,0,0-1.131-1.065,1.278,1.278,0,0,1-.948-1.292.219.219,0,0,0-.436-.034,1.712,1.712,0,0,0,1.256,1.745,1.217,1.217,0,0,1,.845.787,1.092,1.092,0,0,1-.013.817.219.219,0,1,0,.355.254Z" transform="translate(-104.787 -16.838)" fill="#fff"/>
          <path id="Path_28" data-name="Path 28" d="M125.524,19.463a.219.219,0,1,0-.437.026s0,.006,0,.009a1.266,1.266,0,0,1-.948,1.291,1.666,1.666,0,0,0-1.131,1.065,1.481,1.481,0,0,0,.071,1.212.219.219,0,0,0,.356-.255h0a1.086,1.086,0,0,1-.012-.817,1.218,1.218,0,0,1,.845-.787A1.712,1.712,0,0,0,125.524,19.463Z" transform="translate(-112.56 -16.833)" fill="#fff"/>
          <path id="Path_29" data-name="Path 29" d="M108.939,16.37l.586.37.028.693a.218.218,0,0,0,.358.159l.533-.444.667.188a.219.219,0,0,0,.263-.292l-.257-.644.385-.577a.219.219,0,0,0-.2-.34l-.692.046-.43-.544a.219.219,0,0,0-.384.082l-.171.672-.65.241a.219.219,0,0,0-.129.281.228.228,0,0,0,.09.109Zm.95-.261a.22.22,0,0,0,.136-.152l.09-.354.227.286a.218.218,0,0,0,.186.083l.364-.024-.2.3a.219.219,0,0,0-.021.2l.135.339-.352-.1a.219.219,0,0,0-.2.042l-.281.234-.015-.365a.218.218,0,0,0-.1-.176l-.309-.195Z" transform="translate(-106.132 -14.844)" fill="#fff"/>
          <path id="Path_30" data-name="Path 30" d="M112.632,21.869l-.375-1.5a.219.219,0,1,0-.425.107l.375,1.5a.219.219,0,1,0,.425-.107Z" transform="translate(-107.497 -17.264)" fill="#fff"/>
          <path id="Path_31" data-name="Path 31" d="M113.081,24.4a.219.219,0,0,0-.159.265l.125.5a.219.219,0,0,0,.425-.107l-.125-.5a.218.218,0,0,0-.265-.159Z" transform="translate(-107.994 -19.176)" fill="#fff"/>
          <path id="Path_32" data-name="Path 32" d="M120.219,16.4l-.257.644a.219.219,0,0,0,.263.292l.667-.188.533.444a.219.219,0,0,0,.359-.159l.028-.693.586-.37a.219.219,0,0,0-.041-.39l-.65-.241-.171-.672a.219.219,0,0,0-.384-.082l-.43.544-.692-.046a.221.221,0,0,0-.2.109.217.217,0,0,0,.008.231Zm.59-.427A.218.218,0,0,0,121,15.89l.227-.286.09.354a.217.217,0,0,0,.135.151l.342.127-.309.195a.22.22,0,0,0-.1.176l-.015.365-.28-.234a.219.219,0,0,0-.2-.042l-.352.1.135-.339a.219.219,0,0,0-.021-.2l-.2-.3Z" transform="translate(-111.136 -14.844)" fill="#fff"/>
          <path id="Path_33" data-name="Path 33" d="M120.668,20.369l-.375,1.5a.219.219,0,1,0,.425.107l.375-1.5a.219.219,0,0,0-.425-.107Z" transform="translate(-111.36 -17.264)" fill="#fff"/>
          <path id="Path_34" data-name="Path 34" d="M119.823,25.324a.218.218,0,0,0,.265-.159h0l.125-.5a.219.219,0,0,0-.425-.107l-.125.5a.219.219,0,0,0,.16.266Z" transform="translate(-111.072 -19.177)" fill="#fff"/>
          <path id="Path_35" data-name="Path 35" d="M106.154,24a.219.219,0,0,0-.309,0h0l-.538.538a.219.219,0,0,0,0,.309h0l.538.538a.219.219,0,0,0,.309,0h0l.538-.538a.219.219,0,0,0,0-.309h0Zm-.155.921-.228-.228.228-.228.228.228Z" transform="translate(-104.492 -18.97)" fill="#fff"/>
          <path id="Path_36" data-name="Path 36" d="M126.494,24.006a.225.225,0,0,0-.309,0l-.538.538a.219.219,0,0,0,0,.309h0l.538.538a.219.219,0,0,0,.309,0h0l.538-.538a.219.219,0,0,0,0-.309h0Zm-.155.921-.228-.228.228-.228.228.228Z" transform="translate(-113.778 -18.972)" fill="#fff"/>
          <path id="Path_37" data-name="Path 37" d="M105.175,15.453a.657.657,0,1,0-.657.657h0A.657.657,0,0,0,105.175,15.453Zm-.657.219a.219.219,0,1,1,.219-.219A.219.219,0,0,1,104.519,15.672Z" transform="translate(-103.862 -14.796)" fill="#fff"/>
          <path id="Path_38" data-name="Path 38" d="M127.987,14.8a.657.657,0,1,0,.657.657h0A.657.657,0,0,0,127.987,14.8Zm0,.876a.219.219,0,1,1,.219-.219A.219.219,0,0,1,127.987,15.672Z" transform="translate(-114.575 -14.796)" fill="#fff"/>
        </g>
      </g>
    </g>
  </g>
</svg>
