<svg xmlns="http://www.w3.org/2000/svg" xmlns:xlink="http://www.w3.org/1999/xlink" width="26" height="42" viewBox="0 0 26 42">
  <defs>
    <clipPath id="clip-Festivals-claimed-small">
      <rect width="26" height="42"/>
    </clipPath>
  </defs>
  <g id="Festivals-claimed-small" clip-path="url(#clip-Festivals-claimed-small)">
    <g id="Group_213" data-name="Group 213" transform="translate(-657.7 -571.043)">
      <g id="Group_54" data-name="Group 54" transform="translate(658 581.163)">
        <g id="Group_10" data-name="Group 10" transform="translate(0 0)">
          <path id="Path_14" data-name="Path 14" d="M106.455,3A12.694,12.694,0,0,0,93.761,15.693c0,10.551,12.694,19.188,12.694,19.188s12.694-9.272,12.694-19.189A12.693,12.693,0,0,0,106.455,3Z" transform="translate(-93.761 -3)" fill="#3285e1"/>
        </g>
        <g id="Group_16" data-name="Group 16" transform="translate(5.598 6.52)">
          <path id="Path_19" data-name="Path 19" d="M117.387,27.746l-3.455,6.911-3.455-6.911h6.91Z" transform="translate(-106.864 -20.674)" fill="#fff"/>
          <path id="Path_20" data-name="Path 20" d="M117.387,27.746l-.565,1.131h-5.78l-.565-1.131h6.91Z" transform="translate(-106.864 -20.674)" fill="#fff"/>
          <path id="Path_21" data-name="Path 21" d="M110.2,15.312l.5.637.81-.054-.451.676.3.754-.782-.22-.625.52-.033-.812-.688-.434L110,16.1Z" transform="translate(-106.303 -15.03)" fill="#fff"/>
          <path id="Path_22" data-name="Path 22" d="M121.515,15.312l-.5.637-.81-.054.451.676-.3.754.782-.22.625.52.033-.812.688-.434-.762-.282Z" transform="translate(-111.278 -15.03)" fill="#fff"/>
          <path id="Path_23" data-name="Path 23" d="M105.643,24.89l.54-.54.54.54-.54.54Z" transform="translate(-104.67 -19.132)" fill="#fff"/>
          <path id="Path_24" data-name="Path 24" d="M125.981,24.892l.54-.54.54.54-.54.54Z" transform="translate(-113.902 -19.133)" fill="#fff"/>
          <circle id="Ellipse_1" data-name="Ellipse 1" cx="0.44" cy="0.44" r="0.44" transform="translate(0.22 0.224)" fill="#fff"/>
          <circle id="Ellipse_2" data-name="Ellipse 2" cx="0.44" cy="0.44" r="0.44" transform="translate(13.036 0.224)" fill="#fff"/>
          <g id="Group_15" data-name="Group 15">
            <path id="Path_25" data-name="Path 25" d="M117.2,27.336h-6.911a.22.22,0,0,0-.2.318l3.455,7.457a.22.22,0,0,0,.393,0l3.455-7.457a.219.219,0,0,0-.1-.295A.2.2,0,0,0,117.2,27.336Zm-3.455,7.185-2.534-5.614h.756a.22.22,0,0,0,0-.44h-.976l-.346-.691h6.2l-.346.691h-3.529a.22.22,0,0,0,0,.44h3.309Z" transform="translate(-106.681 -20.488)" fill="#fff"/>
            <path id="Path_26" data-name="Path 26" d="M115.908,22.166a.22.22,0,1,0,.131.419l.008,0a1.488,1.488,0,0,0,.774-.943,1.673,1.673,0,0,0-.291-1.533,1.285,1.285,0,0,1-.008-1.61.22.22,0,0,0-.335-.286,1.721,1.721,0,0,0-.009,2.16,1.223,1.223,0,0,1,.222,1.139,1.092,1.092,0,0,1-.493.657Z" transform="translate(-109.259 -16.312)" fill="#fff"/>
            <path id="Path_27" data-name="Path 27" d="M108.348,23.09a1.486,1.486,0,0,0,.072-1.218,1.674,1.674,0,0,0-1.136-1.07,1.284,1.284,0,0,1-.953-1.3.22.22,0,0,0-.439-.034,1.721,1.721,0,0,0,1.262,1.753,1.223,1.223,0,0,1,.849.791,1.1,1.1,0,0,1-.013.821.22.22,0,1,0,.357.256Z" transform="translate(-104.782 -16.826)" fill="#fff"/>
            <path id="Path_28" data-name="Path 28" d="M125.537,19.464a.22.22,0,1,0-.439.026s0,.006,0,.009a1.272,1.272,0,0,1-.953,1.3,1.674,1.674,0,0,0-1.136,1.07,1.488,1.488,0,0,0,.072,1.218.22.22,0,1,0,.358-.256h0a1.091,1.091,0,0,1-.013-.821,1.224,1.224,0,0,1,.849-.791A1.72,1.72,0,0,0,125.537,19.464Z" transform="translate(-112.511 -16.821)" fill="#fff"/>
            <path id="Path_29" data-name="Path 29" d="M108.94,16.377l.589.372.028.7a.219.219,0,0,0,.36.16l.536-.446.671.188a.22.22,0,0,0,.264-.293l-.258-.647.387-.58a.22.22,0,0,0-.2-.341l-.7.046-.432-.547a.22.22,0,0,0-.386.082l-.171.676-.653.242a.22.22,0,0,0-.13.282.229.229,0,0,0,.09.109Zm.955-.262a.221.221,0,0,0,.137-.152l.09-.356.228.288a.219.219,0,0,0,.187.083l.366-.024-.2.305a.22.22,0,0,0-.021.2l.136.341-.353-.1a.22.22,0,0,0-.2.043l-.282.235-.015-.366a.219.219,0,0,0-.1-.177l-.31-.2Z" transform="translate(-106.12 -14.844)" fill="#fff"/>
            <path id="Path_30" data-name="Path 30" d="M112.636,21.877l-.377-1.508a.22.22,0,1,0-.427.107l.377,1.508a.22.22,0,1,0,.427-.107Z" transform="translate(-107.477 -17.25)" fill="#fff"/>
            <path id="Path_31" data-name="Path 31" d="M113.081,24.4a.22.22,0,0,0-.16.267l.126.5a.22.22,0,0,0,.427-.107l-.126-.5a.22.22,0,0,0-.266-.16Z" transform="translate(-107.971 -19.151)" fill="#fff"/>
            <path id="Path_32" data-name="Path 32" d="M120.221,16.406l-.258.647a.22.22,0,0,0,.264.293l.671-.188.536.446a.22.22,0,0,0,.36-.16l.028-.7.589-.372a.22.22,0,0,0-.041-.392l-.653-.242-.171-.676a.22.22,0,0,0-.386-.082l-.432.547-.7-.046a.222.222,0,0,0-.2.109.219.219,0,0,0,.008.232Zm.593-.429a.219.219,0,0,0,.187-.083l.228-.288.09.356a.218.218,0,0,0,.136.152l.344.127-.31.2a.221.221,0,0,0-.1.177l-.015.366-.282-.235a.22.22,0,0,0-.2-.043l-.353.1.136-.341a.22.22,0,0,0-.021-.2l-.2-.305Z" transform="translate(-111.095 -14.843)" fill="#fff"/>
            <path id="Path_33" data-name="Path 33" d="M120.67,20.369l-.377,1.508a.22.22,0,0,0,.427.107l.377-1.508a.22.22,0,0,0-.427-.107Z" transform="translate(-111.317 -17.25)" fill="#fff"/>
            <path id="Path_34" data-name="Path 34" d="M119.824,25.329a.219.219,0,0,0,.266-.159h0l.126-.5a.22.22,0,0,0-.427-.107l-.126.5a.22.22,0,0,0,.161.267Z" transform="translate(-111.031 -19.152)" fill="#fff"/>
            <path id="Path_35" data-name="Path 35" d="M106.158,24a.22.22,0,0,0-.311,0h0l-.54.54a.22.22,0,0,0,0,.311h0l.54.54a.22.22,0,0,0,.311,0h0l.54-.54a.22.22,0,0,0,0-.311h0ZM106,24.93l-.229-.229.229-.229.229.229Z" transform="translate(-104.489 -18.946)" fill="#fff"/>
            <path id="Path_36" data-name="Path 36" d="M126.5,24.007a.226.226,0,0,0-.311,0l-.54.54a.22.22,0,0,0,0,.311h0l.54.54a.22.22,0,0,0,.311,0h0l.54-.54a.22.22,0,0,0,0-.311h0Zm-.156.925-.229-.229.229-.229.229.229Z" transform="translate(-113.721 -18.949)" fill="#fff"/>
            <path id="Path_37" data-name="Path 37" d="M105.181,15.456a.66.66,0,1,0-.66.66h0A.661.661,0,0,0,105.181,15.456Zm-.66.22a.22.22,0,1,1,.22-.22A.22.22,0,0,1,104.522,15.676Z" transform="translate(-103.862 -14.796)" fill="#fff"/>
            <path id="Path_38" data-name="Path 38" d="M127.99,14.8a.66.66,0,1,0,.66.66h0A.66.66,0,0,0,127.99,14.8Zm0,.88a.22.22,0,1,1,.22-.22A.22.22,0,0,1,127.99,15.676Z" transform="translate(-114.514 -14.796)" fill="#fff"/>
          </g>
        </g>
      </g>
      <path id="crown_1_" data-name="crown (1)" d="M17.07,47.509a.5.5,0,0,1-.013.148l-1.1,4.384a.5.5,0,0,1-.481.377L8.9,52.452H2.325a.5.5,0,0,1-.483-.378l-1.1-4.4a.5.5,0,0,1-.013-.152,1.047,1.047,0,1,1,.978-.19l1.372,1.383a1.862,1.862,0,0,0,2.807-.19l2.255-2.988a1.047,1.047,0,1,1,1.5-.018l0,0,2.239,3a1.869,1.869,0,0,0,1.49.747,1.848,1.848,0,0,0,1.315-.545l1.381-1.381a1.046,1.046,0,1,1,1,.171Zm-1.216,6.5a.5.5,0,0,0-.5-.5H2.469a.5.5,0,0,0-.5.5v1.2a.5.5,0,0,0,.5.5H15.356a.5.5,0,0,0,.5-.5Z" transform="translate(662 527.293)" fill="#3285e1"/>
    </g>
  </g>
</svg>
