<?xml version="1.0"?>
<svg xmlns="http://www.w3.org/2000/svg" xmlns:xlink="http://www.w3.org/1999/xlink" height="512px" viewBox="0 0 16 16" width="512px" class=""><g><defs class="active-path"><path id="path-1" d="m1.80474.390524c.390524.390524.390524 1.02369 0 1.41421-.390524.390524-1.02369.390524-1.41421 0-.390524-.390524-.390524-1.02369 0-1.41421.390524-.390524 1.02369-.390524 1.41421 0" data-original="#000000" fill="#FFFFFF"/></defs><use xmlns:xlink="http://www.w3.org/1999/xlink" transform="translate(3.902 4.902)" xlink:href="#path-1" class="active-path"/><use xmlns:xlink="http://www.w3.org/1999/xlink" transform="translate(9.902 4.902)" xlink:href="#path-1" class="active-path"/><path d="m8 0c-4.41113 0-8 3.58887-8 8s3.58887 8 8 8 8-3.58887 8-8-3.58887-8-8-8zm0 15c-3.85986 0-7-3.14014-7-7s3.14014-7 7-7 7 3.14014 7 7-3.14014 7-7 7z" data-original="#000000" class="active-path" fill="#FFFFFF"/><path d="m3.5 3c1.93298 0 3.5-1.34314 3.5-3h-7c0 1.65686 1.56702 3 3.5 3z" transform="translate(4.5 9)" data-original="#000000" class="active-path" fill="#FFFFFF"/></g> </svg>
