<?xml version="1.0" encoding="UTF-8"?>
<svg width="584px" height="482px" viewBox="0 0 584 482" version="1.1" xmlns="http://www.w3.org/2000/svg" xmlns:xlink="http://www.w3.org/1999/xlink">
    <title>Group 31</title>
    <g id="Marketing-Pages" stroke="none" stroke-width="1" fill="none" fill-rule="evenodd">
        <g id="org-v1.3" transform="translate(-587.000000, -140.000000)">
            <g id="Header-graphics" transform="translate(587.000000, 140.000000)">
                <polygon id="Fill-4" fill="#333333" points="59.2654639 401.980469 466.597938 401.980469 466.597938 94.140625 59.2654639 94.140625"></polygon>
                <polygon id="Fill-5" fill="#FFFFFF" points="65.8505155 397.273438 460.012887 397.273438 460.012887 108.261719 65.8505155 108.261719"></polygon>
                <path d="M121.642361,170.394531 L93.7828969,170.394531 C91.8648615,170.394531 90.3092784,172.154814 90.3092784,174.325244 L90.3092784,174.936475 C90.3092784,177.106905 91.8648615,178.867188 93.7828969,178.867188 L121.642361,178.867188 C123.561807,178.867188 125.115979,177.106905 125.115979,174.936475 L125.115979,174.325244 C125.115979,172.154814 123.561807,170.394531 121.642361,170.394531" id="Fill-6" fill="#9FA7C8"></path>
                <path d="M172.44133,170.394531 L144.581866,170.394531 C142.663831,170.394531 141.108247,172.154814 141.108247,174.325244 L141.108247,174.936475 C141.108247,177.106905 142.663831,178.867188 144.581866,178.867188 L172.44133,178.867188 C174.359365,178.867188 175.914948,177.106905 175.914948,174.936475 L175.914948,174.325244 C175.914948,172.154814 174.359365,170.394531 172.44133,170.394531" id="Fill-7" fill="#9FA7C8"></path>
                <path d="M226.062464,170.394531 L198.203,170.394531 C196.284965,170.394531 194.729381,172.154814 194.729381,174.325244 L194.729381,174.936475 C194.729381,177.106905 196.284965,178.867188 198.203,178.867188 L226.062464,178.867188 C227.980499,178.867188 229.536082,177.106905 229.536082,174.936475 L229.536082,174.325244 C229.536082,172.154814 227.980499,170.394531 226.062464,170.394531" id="Fill-8" fill="#9FA7C8"></path>
                <path d="M276.862703,170.394531 L249.00211,170.394531 C247.082586,170.394531 245.528351,172.154814 245.528351,174.325244 L245.528351,174.936475 C245.528351,177.106905 247.082586,178.867188 249.00211,178.867188 L276.862703,178.867188 C278.780816,178.867188 280.335052,177.106905 280.335052,174.936475 L280.335052,174.325244 C280.335052,172.154814 278.780816,170.394531 276.862703,170.394531" id="Fill-9" fill="#9FA7C8"></path>
                <path d="M327.660402,170.394531 L299.799528,170.394531 C297.882903,170.394531 296.32732,172.153218 296.32732,174.325244 L296.32732,174.936475 C296.32732,177.106905 297.882903,178.867188 299.800938,178.867188 L327.660402,178.867188 C329.578438,178.867188 331.134021,177.106905 331.134021,174.936475 L331.134021,174.325244 C331.134021,172.154814 329.578438,170.394531 327.660402,170.394531" id="Fill-10" fill="#9FA7C8"></path>
                <path d="M380.340674,170.394531 L352.481491,170.394531 C350.561968,170.394531 349.007732,172.154814 349.007732,174.325244 L349.007732,174.936475 C349.007732,177.106905 350.561968,178.867188 352.481491,178.867188 L380.340674,178.867188 C382.260197,178.867188 383.814433,177.106905 383.814433,174.936475 L383.814433,174.325244 C383.814433,172.153218 382.260197,170.394531 380.340674,170.394531" id="Fill-11" fill="#9FA7C8"></path>
                <path d="M431.139784,170.394531 L403.278909,170.394531 C401.362284,170.394531 399.806701,172.154814 399.806701,174.325244 L399.806701,174.936475 C399.806701,177.106905 401.362284,178.867188 403.278909,178.867188 L431.139784,178.867188 C433.057819,178.867188 434.613402,177.106905 434.613402,174.936475 L434.613402,174.325244 C434.613402,172.154814 433.057819,170.394531 431.139784,170.394531" id="Fill-12" fill="#7F8BB8"></path>
                <path d="M431.139784,170.394531 L403.278909,170.394531 C401.362284,170.394531 399.806701,172.154814 399.806701,174.325244 L399.806701,174.936475 C399.806701,177.106905 401.362284,178.867188 403.278909,178.867188 L431.139784,178.867188 C433.057819,178.867188 434.613402,177.106905 434.613402,174.936475 L434.613402,174.325244 C434.613402,172.154814 433.057819,170.394531 431.139784,170.394531 Z" id="Stroke-13" stroke="#7F8BB8" stroke-width="0.5"></path>
                <polygon id="Fill-14" fill="#A02541" points="65.8505155 153.449219 460.012887 153.449219 460.012887 99.7890625 65.8505155 99.7890625"></polygon>
                <polyline id="Fill-15" fill="#F5AF00" fill-rule="nonzero" points="311.850606 232.527344 316.042156 241.93361 325.489691 242.954392 318.031764 249.399706 320.280586 259.828125 311.850606 254.404964 303.420625 259.828125 305.668068 249.399706 298.208763 242.954392 307.659055 241.93361 311.850606 232.527344"></polyline>
                <path d="M135.75663,187.339844 L135.75663,385.290117 M186.814803,187.339844 L186.814803,385.290117 M237.872976,187.339844 L237.872976,385.290117 M288.932544,187.339844 L288.932544,385.290117 M339.989321,189.910499 L339.989321,387.859375 M391.047493,189.910499 L391.047493,387.859375 M442.139175,226.126132 L84.6649485,226.126132 M442.139175,267.109848 L84.6649485,267.109848 M442.139175,308.090769 L84.6649485,308.090769 M442.139175,349.071689 L84.6649485,349.071689" id="Stroke-16" stroke="#7F8BB8" stroke-width="0.546875"></path>
                <path d="M116.498604,244.765625 L92.3429846,244.765625 C91.2203677,244.765625 90.3092784,243.981615 90.3092784,243.018232 L90.3092784,242.746205 C90.3092784,241.781634 91.2203677,241 92.3429846,241 L116.498604,241 C117.621221,241 118.530928,241.781634 118.530928,242.746205 L118.530928,243.018232 C118.530928,243.981615 117.621221,244.765625 116.498604,244.765625" id="Fill-17" fill="#9FA7C8"></path>
                <path d="M224.680311,208.992188 L200.525875,208.992188 C199.403313,208.992188 198.492268,208.209365 198.492268,207.244795 L198.492268,206.972767 C198.492268,206.008197 199.403313,205.226562 200.525875,205.226562 L224.680311,205.226562 C225.804255,205.226562 226.713918,206.008197 226.713918,206.972767 L226.713918,207.244795 C226.713918,208.209365 225.804255,208.992188 224.680311,208.992188" id="Fill-18" fill="#9FA7C8"></path>
                <path d="M275.610203,324.785156 L250.2532,324.785156 C249.721339,324.785156 249.291237,324.394547 249.291237,323.911521 L249.291237,323.775979 C249.291237,323.292953 249.721339,322.902344 250.251843,322.902344 L275.610203,322.902344 C276.142063,322.902344 276.572165,323.292953 276.572165,323.775979 L276.572165,323.911521 C276.572165,324.394547 276.142063,324.785156 275.610203,324.785156" id="Fill-19" fill="#9FA7C8"></path>
                <path d="M275.610203,330.433594 L250.2532,330.433594 C249.721339,330.433594 249.291237,330.041752 249.291237,329.559959 L249.291237,329.423184 C249.291237,328.942623 249.721339,328.550781 250.2532,328.550781 L275.610203,328.550781 C276.142063,328.550781 276.572165,328.942623 276.572165,329.423184 L276.572165,329.559959 C276.572165,330.041752 276.142063,330.433594 275.610203,330.433594" id="Fill-20" fill="#9FA7C8"></path>
                <path d="M275.610203,335.140625 L250.2532,335.140625 C249.721339,335.140625 249.291237,334.749039 249.291237,334.267562 L249.291237,334.130876 C249.291237,333.649398 249.721339,333.257812 250.2532,333.257812 L275.610203,333.257812 C276.142063,333.257812 276.572165,333.649398 276.572165,334.130876 L276.572165,334.267562 C276.572165,334.749039 276.142063,335.140625 275.610203,335.140625" id="Fill-21" fill="#9FA7C8"></path>
                <path d="M110.934509,250.414062 L91.3206453,250.414062 C90.7621508,250.414062 90.3092784,250.022018 90.3092784,249.540078 L90.3092784,249.403986 C90.3092784,248.922046 90.7621508,248.53125 91.3206453,248.53125 L110.934509,248.53125 C111.493004,248.53125 111.945876,248.922046 111.945876,249.403986 L111.945876,249.540078 C111.945876,250.022018 111.493004,250.414062 110.934509,250.414062" id="Fill-22" fill="#9FA7C8"></path>
                <path d="M286.882098,262.578341 C296.772016,276.370759 314.893932,282.225806 328.588638,270.458527 C342.127387,258.825141 339.273797,237.557008 328.733355,224.817607 C302.134968,192.670633 258.524629,253.257407 293.156906,272.399982 C294.598454,273.196369 296.120088,271.264677 294.923013,269.99269 C285.548736,260.024603 283.907676,245.366063 291.687258,233.697809 C299.761894,221.587428 315.769258,216.21356 325.746288,229.116144 C333.879934,239.63654 336.626744,256.871134 325.709757,266.536566 C314.256055,276.677598 298.085708,271.938328 289.197567,260.699649 C288.140994,259.360715 285.87189,261.168276 286.882098,262.578341" id="Fill-23" fill="#A02541"></path>
                <path d="M118.530928,118.146484 C118.530928,114.767034 115.793328,112.027344 112.416237,112.027344 C109.039146,112.027344 106.301546,114.767034 106.301546,118.146484 C106.301546,121.525934 109.039146,124.265625 112.416237,124.265625 C115.793328,124.265625 118.530928,121.525934 118.530928,118.146484" id="Fill-24" fill="#E5DAE4"></path>
                <path d="M141.108247,118.146484 C141.108247,114.767034 138.370648,112.027344 134.993557,112.027344 C131.616465,112.027344 128.878866,114.767034 128.878866,118.146484 C128.878866,121.525934 131.616465,124.265625 134.993557,124.265625 C138.370648,124.265625 141.108247,121.525934 141.108247,118.146484" id="Fill-25" fill="#E5DAE4"></path>
                <path d="M112.721386,80.9609375 L112.111088,80.9609375 C109.940964,80.9609375 108.18299,82.4611661 108.18299,84.3117636 L108.18299,118.09058 C108.18299,119.941178 109.940964,121.441406 112.111088,121.441406 L112.721386,121.441406 C114.889925,121.441406 116.649485,119.941178 116.649485,118.089227 L116.649485,84.3117636 C116.649485,82.4611661 114.889925,80.9609375 112.721386,80.9609375" id="Fill-26" fill="#333333"></path>
                <path d="M135.298706,80.9609375 L134.686823,80.9609375 C132.518284,80.9609375 130.760309,82.4611661 130.760309,84.3117636 L130.760309,118.09058 C130.760309,119.941178 132.518284,121.441406 134.686823,121.441406 L135.298706,121.441406 C137.468829,121.441406 139.226804,119.941178 139.226804,118.09058 L139.226804,84.3117636 C139.226804,82.4611661 137.467244,80.9609375 135.298706,80.9609375" id="Fill-27" fill="#333333"></path>
                <path d="M396.043814,118.146484 C396.043814,114.767034 393.307652,112.027344 389.929124,112.027344 C386.552032,112.027344 383.814433,114.767034 383.814433,118.146484 C383.814433,121.525934 386.552032,124.265625 389.929124,124.265625 C393.307652,124.265625 396.043814,121.525934 396.043814,118.146484" id="Fill-28" fill="#E5DAE4"></path>
                <path d="M419.561856,118.146484 C419.561856,114.767034 416.824256,112.027344 413.447165,112.027344 C410.070074,112.027344 407.332474,114.767034 407.332474,118.146484 C407.332474,121.525934 410.070074,124.265625 413.447165,124.265625 C416.824256,124.265625 419.561856,121.525934 419.561856,118.146484" id="Fill-29" fill="#E5DAE4"></path>
                <path d="M390.235122,80.9609375 L389.623125,80.9609375 C387.45418,80.9609375 385.695876,82.4611661 385.695876,84.3117636 L385.695876,118.09058 C385.695876,119.941178 387.45418,121.441406 389.623125,121.441406 L390.235122,121.441406 C392.404067,121.441406 394.162371,119.941178 394.162371,118.089227 L394.162371,84.3117636 C394.162371,82.4611661 392.404067,80.9609375 390.235122,80.9609375" id="Fill-30" fill="#333333"></path>
                <path d="M413.753899,80.9609375 L413.142016,80.9609375 C410.973477,80.9609375 409.213918,82.4611661 409.213918,84.3117636 L409.213918,118.09058 C409.213918,119.941178 410.973477,121.441406 413.142016,121.441406 L413.753899,121.441406 C415.922438,121.441406 417.680412,119.941178 417.680412,118.09058 L417.680412,84.3117636 C417.680412,82.4611661 415.922438,80.9609375 413.753899,80.9609375" id="Fill-31" fill="#333333"></path>
                <polyline id="Fill-36" fill="#312D6A" points="133.92828 451.795391 128.320704 452.270661 102.53866 468.820312 122.338814 442.460938 134.523196 446.1811 133.92828 451.795391"></polyline>
                <path d="M206.013569,422.027803 C206.013569,422.027803 206.72886,410.988108 190.066463,409.067853 C173.405452,407.149015 154.278351,411.399085 154.278351,411.399085 L162.737082,428.339844 L206.013569,422.027803" id="Fill-37" fill="#425796"></path>
                <polyline id="Fill-38" fill="#312D6A" points="142.341838 463.758017 136.238903 464.268094 108.18299 482 129.729663 453.757812 142.989691 457.743129 142.341838 463.758017"></polyline>
                <path d="M152.456607,395.85966 L166.348251,419.968325 C166.348251,419.968325 210.292957,411.222288 221.093104,423.607867 C231.891864,435.993447 218.949426,456.134105 186.826126,461.777832 C154.701441,467.420167 140.669842,468.820312 140.669842,468.820312 L138.351566,456.999802 C138.351566,456.999802 106.405637,459.930921 118.404414,395.390625 C118.404414,395.390625 128.866449,401.291834 152.456607,395.85966" id="Fill-39" fill="#5A6DA5"></path>
                <path d="M207.899485,444.34375 C207.899485,444.34375 174.658346,457.557821 138.286082,457.523438" id="Stroke-40" stroke="#425796" stroke-width="0.546875"></path>
                <path d="M161.947087,303.960595 C161.947087,303.960595 160.427573,307.677851 159.050871,310.042066 L159.08229,316.208642 L153.648315,316.3125 L152.417281,308.647193 C152.417281,308.647193 152.625785,299.454307 152.398715,293.781056 C152.271613,290.626366 158.875213,286.089785 162.863936,284.429498 C165.233177,283.44573 162.087042,288.514584 158.403935,291.317311 C158.403935,291.317311 159.576417,298.15608 161.947087,303.960595" id="Fill-41" fill="#E88389"></path>
                <path d="M210.235245,306.794754 C210.235245,306.794754 212.200493,310.169846 213.849898,312.261255 L214.623364,318.195312 L219.930937,317.582169 L220.128866,310.049457 C220.128866,310.049457 218.726521,301.235862 218.209942,295.748364 C217.922173,292.698043 210.896411,289.202562 206.794657,288.13166 C204.357749,287.496118 208.084702,291.95751 212.037658,294.167908 C212.037658,294.167908 211.787791,300.899893 210.235245,306.794754" id="Fill-42" fill="#E88389"></path>
                <polyline id="Fill-43" fill="#FFFFFE" points="213.304955 310.664062 158.041237 307.075941 161.100849 261.710938 216.365979 265.299059 213.304955 310.664062"></polyline>
                <path d="M183.809591,273.007812 C190.807869,273.471931 196.105158,279.532281 195.641891,286.54344 C195.178625,293.554598 189.129409,298.861637 182.132539,298.397518 C175.132852,297.933399 169.835564,291.873049 170.29883,284.86189 L182.970361,285.702665 L183.809591,273.007812" id="Fill-44" fill="#3C347D"></path>
                <path d="M195.175637,282.507802 C197.107083,289.132194 193.208997,296.041597 186.467236,297.939814 C179.726883,299.838032 172.696531,296.007008 170.765085,289.382615 C168.833639,282.756839 172.731725,275.847437 179.473486,273.949219 L182.970361,285.944517 L195.175637,282.507802" id="Fill-45" fill="#B92B5E"></path>
                <path d="M195.670103,286.556635 C195.206322,293.560008 189.150379,298.861153 182.145729,298.397549 C175.138259,297.933945 169.83508,291.880325 170.298862,284.876952 C170.762643,277.874988 176.818586,272.572434 183.824646,273.036038 L182.984482,285.716794 L195.670103,286.556635" id="Fill-46" fill="#F5AF00" fill-rule="nonzero"></path>
                <path d="M211.041404,273.00705 L204.669666,272.778602 C204.354669,272.766662 204.117322,272.619404 204.137833,272.448266 L204.149554,272.356728 C204.170066,272.18559 204.44111,272.05664 204.756107,272.066988 L211.127845,272.297029 C211.442842,272.307376 211.681654,272.456226 211.661143,272.627364 L211.649422,272.718106 C211.62891,272.889244 211.356401,273.01899 211.041404,273.00705" id="Fill-47" fill="#9FA7C8"></path>
                <path d="M210.100682,275.831453 L203.728944,275.601584 C203.413947,275.590448 203.1766,275.442505 203.197112,275.271495 L203.208832,275.180024 C203.229344,275.009014 203.501853,274.88016 203.815385,274.891296 L210.188588,275.12037 C210.502121,275.132301 210.740932,275.279449 210.720421,275.450459 L210.7087,275.541134 C210.688189,275.712144 210.415679,275.841794 210.100682,275.831453" id="Fill-48" fill="#9FA7C8"></path>
                <path d="M210.100682,280.538395 L203.728944,280.309944 C203.413947,280.298004 203.1766,280.150745 203.197112,279.979606 L203.208832,279.88727 C203.229344,279.716927 203.500388,279.58718 203.815385,279.598324 L210.187123,279.827571 C210.502121,279.838714 210.740933,279.98677 210.720421,280.157909 L210.7087,280.249448 C210.688189,280.419792 210.415679,280.549539 210.100682,280.538395" id="Fill-49" fill="#9FA7C8"></path>
                <path d="M202.253034,273.069499 C202.287643,272.551707 201.894484,272.103139 201.376733,272.068527 C200.857597,272.033915 200.410448,272.427105 200.375839,272.944896 C200.34123,273.464072 200.733004,273.912641 201.25214,273.947252 C201.769892,273.98048 202.219809,273.588675 202.253034,273.069499" id="Fill-50" fill="#B92B5E"></path>
                <path d="M202.253027,274.952952 C202.287636,274.433527 201.895862,273.984743 201.376726,273.9515 C200.858974,273.915486 200.409057,274.31025 200.375832,274.829675 C200.341223,275.347716 200.734382,275.7965 201.252133,275.829743 C201.771269,275.865757 202.218418,275.472378 202.253027,274.952952" id="Fill-51" fill="#3C347D"></path>
                <path d="M202.253034,280.600749 C202.287643,280.082957 201.894483,279.633004 201.37673,279.599777 C200.857592,279.565165 200.409057,279.958355 200.375832,280.476146 C200.341223,280.995322 200.734383,281.443891 201.252136,281.478502 C201.771274,281.51173 202.219809,281.119925 202.253034,280.600749" id="Fill-52" fill="#E1B744"></path>
                <path d="M212.524714,310.664062 C212.524714,310.664062 207.26721,300.608234 204.311024,296.900403 C201.356264,293.19389 204.813233,292.687738 208.400035,295.582298 C212.848582,299.174136 215.316826,298.12756 215.316826,298.12756 L215.425258,304.339792 L212.524714,310.664062" id="Fill-53" fill="#E88389"></path>
                <path d="M158.773659,311.605469 C158.773659,311.605469 162.449604,299.830628 164.791639,295.349639 C167.135072,290.867188 163.705215,290.786779 160.633304,294.462213 C156.823128,299.019226 154.278351,298.209285 154.278351,298.209285 L155.054368,305.052845 L158.773659,311.605469" id="Fill-54" fill="#E88389"></path>
                <path d="M160.458406,309.722656 C160.458406,309.722656 164.653814,332.944211 146.038278,339.847656 L136.404639,329.822043 C145.946583,324.803732 148.643832,317.962208 149.723014,310.592295 L160.458406,309.722656" id="Fill-55" fill="#3C347D"></path>
                <path d="M97.8565227,274.643293 C92.7684149,273.484749 87.3718101,275.759963 85.8558471,281.468936 C84.4976224,286.580491 87.1010027,292.142901 86.3821068,297.433123 C85.742778,302.137094 82.6410564,305.759291 79.8296849,309.208404 C77.0183134,312.656121 74.1901909,316.747319 74.3214068,321.516894 C74.4428514,325.885864 77.4203367,329.965896 81.1264893,330.841085 C82.2362412,331.102107 83.3836828,331.103503 84.4794755,331.43292 C88.9436096,332.768736 91.0053751,338.844814 91.299913,344.162953 C91.5958469,349.479696 90.8699714,355.054669 92.7014111,359.962432 C93.8069752,362.92719 95.7891736,365.396425 98.1008077,367.209617 C102.020535,370.286042 106.969052,371.535316 111.603487,370.621043 C119.899406,368.985122 126.356906,360.99256 134.613739,359.123534 C137.405568,358.489824 140.290923,358.59172 143.113462,358.145052 C145.934605,357.698384 148.833919,356.59009 150.66815,354.085958 C152.510757,351.57066 152.989556,348.068505 154.511102,345.279623 C156.521219,341.593217 160.153388,339.481316 162.392435,335.977765 C164.864599,332.108505 165.330835,326.631241 163.560815,322.223188 C161.353875,316.726382 156.054984,312.922726 155.376569,306.931794 C154.936856,303.04718 156.60637,299.351003 157.695183,295.663202 C159.394011,289.908166 159.701112,283.495691 158.030202,277.684822 C156.357897,271.873953 151.913306,263.015971 140.708301,261.141362 C133.668705,259.963276 125.448166,263.320264 112.625297,261.008758 C104.251206,259.499858 100.228181,265.257686 97.8565227,274.643293" id="Fill-56" fill="#B92B5E"></path>
                <path d="M133.375934,336.64428 C133.375934,336.64428 129.137219,331.689926 129.771936,317.930454 C129.771936,317.930454 139.732645,315.651091 140.120831,307.703857 C140.400052,301.958251 139.403028,293.153132 137.772648,285.521012 C137.772648,285.521012 137.517943,281.085831 131.255214,279.313147 C124.992485,277.541851 110.426668,279.335358 109.381972,284.904668 C108.338638,290.47259 110.26867,299.637242 110.26867,299.637242 C110.26867,299.637242 107.2667,295.539385 102.427319,297.678544 C97.589299,299.817703 103.364412,315.948158 111.351503,308.103648 C111.351503,308.103648 118.921806,330.303152 112.119702,331.867611 C112.119702,331.867611 114.589108,345.15372 128.874342,342.2594 C143.159576,339.36508 133.375934,336.64428 133.375934,336.64428" id="Fill-57" fill="#E88389"></path>
                <path d="M131.701031,292.777344 C131.701031,292.777344 132.222655,295.487522 133.832784,297.788128 C134.978452,299.424893 134.761704,300.732782 132.703788,302.191406" id="Stroke-58" stroke="#D24864" stroke-width="0.5" stroke-linecap="round"></path>
                <path d="M125.139525,292.819002 C125.682967,292.978335 125.845146,293.665779 125.924813,294.147632 C126.015861,294.684738 126.114022,295.368328 126.015861,295.897724 C125.880712,296.618576 124.853578,296.812603 124.527798,296.080185 C124.24185,295.438999 123.669956,292.387262 125.139525,292.819002" id="Fill-59" fill="#3E3880"></path>
                <path d="M133.390643,291.852428 C133.985378,291.989172 134.161748,292.552918 134.297101,293.105054 C134.437924,293.66751 134.573277,294.38864 134.504917,294.960127 C134.411947,295.747049 133.405682,295.811551 133.074818,295.144602 C132.801377,294.592466 132.670125,293.751362 132.644148,293.141175 C132.625007,292.705142 132.70704,291.695043 133.390643,291.852428" id="Fill-60" fill="#3E3880"></path>
                <path d="M103.479381,299.433072 C103.479381,299.433072 107.473956,298.510519 109.658683,303.569817 M103.969606,302.131946 C103.969606,302.131946 105.313947,300.790151 108.106991,301.039077 M130.760309,304.074219 C130.760309,304.074219 126.540533,303.848221 123.798297,301.768384" id="Stroke-61" stroke="#D24864" stroke-width="0.5" stroke-linecap="round"></path>
                <path d="M118.533874,287.978458 C120.191508,287.062214 122.5552,286.707604 124.662144,287.069388 C125.904166,287.282563 126.602201,286.189014 125.525462,285.759588 C122.619387,284.599421 118.50499,285.481845 117.611183,287.635123 C117.463553,287.990757 118.129495,288.201883 118.533874,287.978458" id="Fill-62" fill="#B92B5E"></path>
                <path d="M135.454541,286.68123 C135.045367,285.112358 132.320135,284.799396 131.002982,285.892729 C130.406756,286.387575 130.988694,287.306137 131.88628,287.080561 C132.863103,286.835679 133.930853,286.854985 134.905078,287.111044 C135.249305,287.202494 135.518191,286.925096 135.454541,286.68123" id="Fill-63" fill="#B92B5E"></path>
                <path d="M142.012801,271.125 C142.403766,273.865036 139.553687,278.488671 136.917506,279.429072 C131.407165,281.395236 125.191387,278.005876 119.971436,280.635359 C115.483837,282.898198 112.533184,287.854892 112.717335,292.828378 C112.822159,295.663574 113.834985,298.609322 112.790995,301.25 C110.701598,298.973167 109.11649,296.244327 108.18299,293.311173 L109.712853,273.422824 L142.012801,271.125" id="Fill-64" fill="#B92B5E"></path>
                <path d="M154.164085,358.399113 C154.164085,358.399113 155.211658,376.377042 150.963013,395.496052 C150.963013,395.496052 128.904237,404.035395 116.821024,395.027667 C116.821024,395.027667 104.018126,372.408972 101.288045,353.996015 C97.797987,330.461398 107.895813,302.355509 154.164085,358.399113" id="Fill-65" fill="#3C347D"></path>
                <path d="M114.994678,322.035158 C114.994678,322.035158 121.685692,324.012211 130.246438,323.324662 C138.808585,322.637114 148.260813,323.939247 157.673856,333.101882 C167.086899,342.263115 171.376369,345.059613 185.115268,343.941295 C195.730482,343.075545 207.042648,331.672062 211.88772,311.605469 L222.010309,312.276179 C222.010309,312.276179 218.465374,389.675897 146.575814,359.028073 C146.575814,359.028073 110.766786,365.514882 106.524899,361.466765 C102.284411,357.418648 94.8138759,320.445378 114.994678,322.035158" id="Fill-66" fill="#3C347D"></path>
                <path d="M256.676492,44.1428714 C250.824963,46.3143831 243.865486,45.0346917 239.133041,40.9153311 C237.416834,39.421886 235.95256,37.5221671 235.398585,35.2940319 C234.843219,33.0673123 235.337342,30.4895268 237.004833,28.936627 C238.687635,27.3695713 241.307182,26.9944405 242.682375,25.1428516 C244.405541,22.8241188 243.33239,19.571098 242.912037,16.6960391 C242.408171,13.268901 243.482714,9.05469605 246.714696,7.95478431 C248.867958,7.22150982 251.320478,8.12182368 253.461213,7.34891273 C255.590813,6.58024854 256.830992,4.40307447 258.272996,2.63500528 C259.716392,0.865520506 262.092357,-0.694457273 264.118957,0.321934782 C264.9875,0.757935831 265.590191,1.58888588 266.347382,2.203251 C269.152051,4.4809318 273.214994,3.39517594 276.711436,2.57838177 C280.207877,1.7615876 284.749632,1.79839288 286.367015,5.05566046 C288.322628,8.99524136 284.156685,14.3504101 286.702461,17.9261849 C287.381706,18.8802911 288.425628,19.4805004 289.354022,20.1868787 C292.947896,22.9246255 294.871496,28.4199374 292.377219,32.2179596 C289.270509,36.9474385 282.003422,36.2240731 277.671843,39.8210818" id="Fill-67" fill="#412709"></path>
                <path d="M275.443825,72.4696498 C275.443825,72.4696498 272.841743,70.3249618 273.13321,61.4895096 C273.13321,61.4895096 280.98592,61.4895096 282.58406,55.9318142 C284.183608,50.3741188 284.183608,37.547394 284.038578,29.70976 C284.038578,29.70976 284.663754,25.2920339 278.607719,22.2985794 C272.551684,19.306505 257.285577,18.1665357 255.104504,23.4385487 C252.92343,28.7119418 253.068459,38.1187587 253.068459,38.1187587 C253.068459,38.1187587 250.815575,33.4871159 245.435406,34.6257051 C240.055237,35.7656744 242.744617,52.7962086 252.486934,46.6685285 C252.486934,46.6685285 255.110136,69.3602662 247.834728,69.5438206 C247.834728,69.5438206 248.402173,83.7851562 263.602102,83.7851562 C278.80203,83.7851562 275.443825,72.4696498 275.443825,72.4696498" id="Fill-68" fill="#E88389"></path>
                <path d="M274.135599,37.65625 C274.135599,37.65625 274.219162,40.4249157 275.268232,43.063309 C276.013253,44.9410304 275.661885,46.1599021 273.75,47.0703125" id="Stroke-69" stroke="#D24864" stroke-width="0.5" stroke-linecap="round"></path>
                <path d="M268.54574,36.8121344 C269.054907,37.0633606 269.063537,37.7637488 269.039086,38.2497066 C269.010319,38.7902236 268.958539,39.4766548 268.744229,39.9740319 C268.449372,40.6579255 267.380697,40.6668072 267.213851,39.8928275 C267.070018,39.2165468 267.169263,36.1320473 268.54574,36.8121344" id="Fill-70" fill="#3E3880"></path>
                <path d="M276.817784,36.7637963 C277.423567,37.0059017 277.483998,37.5821632 277.506107,38.1407711 C277.526741,38.7107277 277.510528,39.4332612 277.310075,39.9754765 C277.031503,40.7194464 275.945221,40.5983937 275.740345,39.8935137 C275.572318,39.3084255 275.622431,38.4724051 275.731501,37.8759682 C275.808146,37.4510227 276.123565,36.4876447 276.817784,36.7637963" id="Fill-71" fill="#3E3880"></path>
                <path d="M245.689953,36.7188949 C245.689953,36.7188949 249.421498,36.2904385 250.231959,44.2460937 M245.528351,40.8054595 C245.528351,40.8054595 247.01093,39.1451912 249.421498,40.1611521" id="Stroke-72" stroke="#D24864" stroke-width="0.5" stroke-linecap="round"></path>
                <path d="M268.960046,29.6378818 C269.494156,28.375247 267.439419,27.4711635 265.849191,27.3263046 C263.72334,27.1341869 261.773003,28.0516262 260.692677,29.2372084 C260.368882,29.5926776 260.780435,30.1649214 261.441643,30.1227993 C262.712614,30.0426646 263.947273,29.772467 265.231862,29.7385638 C266.251665,29.7108249 267.112597,29.9984878 268.103653,30.0817046 C268.484944,30.113553 268.861697,29.8710943 268.960046,29.6378818" id="Fill-73" fill="#312D6A"></path>
                <path d="M276.022986,32.5793327 C276.432106,32.7893557 276.885284,32.7476204 277.314545,32.8903283 C277.886053,33.0815031 278.410985,33.4503898 279.015223,33.4705843 C278.833951,33.4180785 278.651421,33.3655728 278.471408,33.313067 C278.944728,33.5352067 279.837238,34.3308709 280.241322,33.5648254 C280.430146,33.2080555 280.292934,32.7664686 280.184675,32.4070061 C280.021027,31.8698318 279.900179,31.410743 279.509942,30.9758876 C278.750868,30.1263714 277.549946,29.8557648 276.563024,30.4265966 C276.039351,30.7295145 275.095229,32.1054346 276.022986,32.5793327" id="Fill-74" fill="#312D6A"></path>
                <path d="M251.312097,33.0763253 C251.546594,34.7004619 252.129325,36.2725699 253.009741,37.65625 C256.476644,34.2786082 253.494181,27.4108304 257.01725,24.0922482 C258.292239,22.8913714 260.137322,22.5074845 261.886921,22.4596745 C265.29906,22.3668666 268.646607,23.344161 272.050322,23.595867 C275.452632,23.8461669 279.243898,23.1810442 281.411941,20.5430526 C281.993268,19.8385569 282.442603,18.8739182 282.094368,18.0302109 C281.84583,17.4325848 281.261694,17.0543227 280.701429,16.7337139 C275.632366,13.8482348 269.621103,12.6572012 263.837316,13.3912266 C261.552727,13.6808995 259.280776,14.2729008 257.261576,15.3865945 C251.029858,18.8204834 248.375972,27.5219185 251.628036,33.8567546" id="Fill-75" fill="#412709"></path>
                <path d="M268.641946,48.2064969 C267.07678,46.857015 265.978607,46.916127 265.075575,47.3327939 C264.173889,47.7494608 262.774257,49.6078818 263.713625,52.1655535 C264.652994,54.7232252 267.327099,56.4331456 269.374061,56.4821652 C271.944539,56.5441606 273.560846,55.2927181 274.32526,53.8610563 C275.088329,52.4293945 274.665748,50.4830265 272.970039,50.2537876 C269.820867,49.8255867 270.207111,49.5545369 268.641946,48.2064969" id="Fill-76" fill="#441923"></path>
                <path d="M268.981515,56.4819564 C266.69022,56.4291774 263.882216,54.6890681 262.830721,51.8517944 C262.279364,50.3643848 262.380296,48.91536 262.901524,48.0117188 C269.740761,48.9329531 270.890174,56.0629227 270.927835,56.309225 C270.379491,56.4339755 269.597649,56.4979501 268.981515,56.4819564" id="Fill-77" fill="#B92B5E"></path>
                <path d="M287.340406,70.8561397 L291.623711,66.9521597 C291.623711,66.9521597 286.223205,67.1373953 279.521406,66.9521597 C276.335628,66.8637518 272.116966,67.3071945 272.933435,60.25 L264.067499,61.0021687 L251.841529,66.0849204 C251.841529,66.0849204 250.228264,68.3161671 247.6847,68.4396575 C245.139731,68.5631478 237.07059,68.4396575 234.465194,70.9192882 C231.858392,73.3975156 252.462665,85.6679688 264.750467,85.6679688 C277.03827,85.6679688 287.340406,70.8561397 287.340406,70.8561397" id="Fill-78" fill="#E88389"></path>
                <path d="M233.744486,70.5432292 L230.830709,71.4064346 C230.830709,71.4064346 204.627612,80.4888563 190.787172,105.165966 C176.948126,129.843075 196.841755,167.408494 223.597802,176.984375 L229.435105,169.95502 C229.435105,169.95502 206.842193,151.022883 210.347918,126.1609 C213.855035,101.298917 235.445118,96.1419251 235.445118,96.1419251 L299.661023,96.1419251 L306.675258,72.0166554 L290.620237,67.78125 L262.667759,83.5983417 L233.744486,70.5432292" id="Fill-79" fill="#412709"></path>
                <path d="M257.757732,89.4335938 C257.757732,89.4335938 251.849258,90.1065616 247.718225,90.9824881 C245.177736,91.5226936 241.818774,94.8203888 240.907498,96.4379533 C239.99751,98.0555178 246.82886,95.629171 249.788253,93.472927 C252.747645,91.316683 255.936468,93.2074023 257.757732,89.4335938" id="Fill-80" fill="#DC646C"></path>
                <path d="M271.153221,91.5648448 C271.153221,91.5648448 261.885405,90.6548698 257.313059,90.3977982 C252.740712,90.139266 248.249515,92.0585392 238.652905,97.2306445 C238.652905,97.2306445 236.085507,99.3719341 241.153144,98.7263338 C246.219382,98.0821942 249.899086,96.5967293 249.899086,96.5967293 C249.899086,96.5967293 252.988358,98.8475664 256.528148,97.3051368 C256.528148,97.3051368 265.839337,99.8218094 269.548422,96.3396577 L273.75,96.0811255 L273.377832,91.5648448 L271.153221,91.5648448" id="Fill-81" fill="#E88389"></path>
                <path d="M291.623711,67.78125 C291.623711,67.78125 338.717842,73.8879839 355.912372,91.8342752 C355.912372,91.8342752 361.069201,97.3173547 341.665396,97.8168426 C322.262981,98.3149196 300.648511,96.5695338 300.648511,96.5695338 L302.859176,86.5995287 L291.623711,67.78125" id="Fill-82" fill="#412709"></path>
                <path d="M270.927835,96.0615708 L270.927835,89.19018 C270.927835,89.19018 308.024991,82.7770633 332.429925,83.9220684 C356.834858,85.0670736 369.038015,98.3529409 338.043128,97.8946669 C307.048241,97.4363929 270.927835,96.0615708 270.927835,96.0615708" id="Fill-83" fill="#F5AF00" fill-rule="nonzero"></path>
                <path d="M223.891753,177.411 C223.891753,177.411 224.890768,184.223106 227.585208,188.22884 C230.28103,192.235961 232.077323,192.034912 233.275312,190.332232 C233.275312,190.332232 235.971134,190.732944 236.569438,188.330058 C236.569438,188.330058 239.064904,188.330058 239.064904,185.925786 C239.064904,185.925786 243.257176,191.334706 246.052485,194.339353 C248.847793,197.344 250.544599,195.441658 248.148621,191.434537 C245.752642,187.428803 240.861197,179.414561 240.861197,179.414561 C240.861197,179.414561 243.257176,174.607402 240.662223,172.402792 C238.06727,170.199569 229.682726,170.399232 229.682726,170.399232 L223.891753,177.411" id="Fill-84" fill="#E88389"></path>
                <path d="M237.061856,175.101562 C238.584929,176.497576 239.884021,177.925781 239.884021,177.925781" id="Stroke-85" stroke="#D24864" stroke-width="0.5" stroke-linecap="round"></path>
                <path d="M241.162269,67.1977133 C241.162269,67.1977133 263.957506,85.7773306 281.009403,65.8702852 C281.009403,65.8702852 284.489067,63.6997215 291.623711,66.0511656 C291.623711,66.0511656 286.229601,83.9685274 265.000984,84.6920487 C239.780782,85.5526889 231.417526,70.0319911 231.417526,70.0319911 C231.417526,70.0319911 234.550766,66.7148796 241.162269,67.1977133" id="Fill-86" fill="#F5AF00" fill-rule="nonzero"></path>
                <path d="M566.881536,185.457031 L569.335855,182.264135 C569.335855,182.264135 572.313978,184.765072 580.42484,177.92174 C580.45184,177.698619 579.15853,161.926192 579.817335,162.212861 C577.372467,161.146679 569.97306,163.20561 567.594341,165.226412 C565.215623,167.248627 566.881536,185.457031 566.881536,185.457031" id="Fill-87" fill="#E37F84"></path>
                <path d="M580.384411,176.969955 C580.803961,178.099524 573.138742,185.897049 569.28185,182.888412 L568.195876,176.249342 C568.195876,176.249342 571.637266,172.8956 576.377776,174.686492 C581.116937,176.478904 580.384411,176.969955 580.384411,176.969955" id="Fill-88" fill="#E88389"></path>
                <polyline id="Fill-89" fill="#B92B5E" points="569.441085 142.152344 569.136598 139.603445 571.519648 138.386719 571.958763 142.060665 569.441085 142.152344"></polyline>
                <path d="M573.134487,143.175348 C572.075092,142.796329 572.111523,141.210938 572.111523,141.210938 L570.700939,141.364315 L569.895099,141.452802 L568.485973,141.606179 C568.485973,141.606179 568.851734,143.147327 567.897258,143.744615 C566.706714,144.48938 566.027652,145.331481 566.4313,149.140845 C566.76646,152.290982 570.173427,151.593409 571.343571,151.258633 C572.55743,151.333847 576.032887,151.283705 575.699185,148.132094 C575.292622,144.322729 574.453267,143.645804 573.134487,143.175348" id="Fill-90" fill="#312D6A"></path>
                <path d="M577.589466,193.206805 C577.450808,191.91509 576.291119,190.980362 575.000334,191.119121 C573.70955,191.257879 572.775496,192.418405 572.912894,193.71012 C573.052813,195.003097 574.212502,195.936563 575.503286,195.799066 C576.79281,195.659046 577.728125,194.499782 577.589466,193.206805" id="Fill-91" fill="#A02541"></path>
                <polyline id="Fill-92" fill="#A02541" points="580.425258 193.857945 571.102964 194.871094 566.314433 149.756761 575.638134 148.742188 580.425258 193.857945"></polyline>
                <polyline id="Fill-93" fill="#312D6A" points="580.425258 191.221548 570.359992 192.046875 570.07732 190.047983 580.144105 189.222656 580.425258 191.221548"></polyline>
                <polyline id="Fill-94" fill="#312D6A" points="576.662371 152.623071 566.595586 153.449219 566.314433 151.451148 576.379699 150.625 576.662371 152.623071"></polyline>
                <path d="M571.071908,163.809396 L570.689816,163.85846 C570.313712,163.904721 570.040618,164.300041 570.081343,164.741622 L572.090023,186.621597 C572.130748,187.063178 572.46972,187.382798 572.845823,187.335136 L573.226718,187.286071 C573.604019,187.23981 573.875916,186.84449 573.836389,186.40291 L571.827709,164.522934 C571.785786,164.081353 571.448012,163.761733 571.071908,163.809396" id="Fill-95" fill="#312D6A"></path>
                <path d="M573.447706,162.866389 L573.236945,162.895965 C573.029298,162.92695 572.879793,163.17905 572.901596,163.460726 L574.756917,186.880682 C574.779758,187.162358 574.965602,187.366573 575.174286,187.336997 L575.384009,187.306012 C575.591656,187.276436 575.742199,187.022928 575.719358,186.741252 L573.864037,163.321296 C573.841196,163.03962 573.655353,162.835405 573.447706,162.866389" id="Fill-96" fill="#312D6A"></path>
                <path d="M567.499021,183.605088 L563.894243,188.28125 L559.729381,182.27498 L562.305765,177.733215 C562.305765,177.733215 559.715885,165.632001 564.258635,163.350034 C567.593493,161.676314 569.249451,161.367341 570.370968,160.628854 C573.800298,158.370441 574.765261,163.053531 566.609636,166.970422 C566.609636,166.970422 572.164584,175.585644 567.499021,183.605088" id="Fill-97" fill="#E88389"></path>
                <path d="M578.86405,178.867188 C578.86405,178.867188 582.54548,177.272864 580.547751,173.701173 C580.547751,173.701173 585.272206,171.92906 581.885178,168.514922 C581.885178,168.514922 585.210522,165.81628 581.470211,163.924194 C581.470211,163.924194 584.246004,159.212049 579.123404,159.10075 C574.003608,158.990896 569.444579,161.823965 569.396914,164.831933 C569.360464,167.130188 572.77553,164.781342 578.764514,163.492007 C578.764514,163.492007 569.025406,165.423119 569.137559,167.190896 C569.353454,170.600697 574.748026,168.840147 579.447247,168.957228 C579.447247,168.957228 570.200211,168.858938 570.465173,171.118166 C570.727332,173.377394 579.904271,173.848608 579.904271,173.848608 C579.904271,173.848608 571.689046,172.254284 571.215198,173.25164 C570.111891,175.570131 578.86405,178.867188 578.86405,178.867188" id="Fill-98" fill="#EA9195"></path>
                <path d="M561.545968,177.925781 C561.545968,177.925781 564.000873,179.660319 568.195876,183.741585 L563.492268,190.85483 L555.025773,184.599202 L561.545968,177.925781 Z" id="Fill-99" fill="#7F8BB8"></path>
                <path d="M475.237731,173.234068 C475.750798,174.467493 485.255753,201.133841 502.271792,210.486033 C521.385984,220.991849 547.221498,219.752823 563.492268,190.85483 C563.492268,190.85483 560.240061,186.819947 556.242585,183.797285 C556.242585,183.797285 538.806637,197.048557 523.617619,191.584245 C506.901912,185.571121 503.79848,173.208867 499.471473,163.720872 C493.968165,151.655424 488.174258,144.436876 477.893445,147.605141 C468.726364,150.430399 471.795035,176.700539 471.795035,176.700539" id="Fill-100" fill="#5A6DA5"></path>
                <path d="M431.400549,143.855641 C431.400549,143.855641 435.009549,143.012585 434.732249,134.305616 C434.732249,134.305616 427.236948,134.305616 425.709748,128.829899 C424.183915,123.354183 424.183915,110.716639 424.321882,102.993695 C424.321882,102.993695 423.726301,98.6402108 429.505892,95.6922798 C435.286849,92.7429667 449.85945,91.619353 451.94125,96.8145114 C454.024417,102.00967 453.883718,111.277755 453.883718,111.277755 C453.883718,111.277755 456.035184,106.714197 461.171384,107.837811 C466.306218,108.961425 463.738118,125.740998 454.439684,119.702784 C454.439684,119.702784 452.080584,140.063272 456.936751,143.012585 L443.831245,156.273438 L431.400549,143.855641" id="Fill-101" fill="#FFF7DB"></path>
                <path d="M455.035838,92.1665346 C455.035838,92.1665346 453.601234,78.1606653 442.785555,78.1367188 C430.706527,78.1114775 431.888461,86.7727431 422.494753,86.9540352 C403.463088,87.3208355 413.345292,110.403959 428.793254,97.5561101 C433.206556,93.8867016 443.768161,91.5594169 449.759247,96.8421846 L449.759247,103.982845 C449.759247,103.982845 449.901023,109.550902 452.182071,106.6952 L452.182071,110.835406 C452.182071,110.835406 452.054332,112.96875 453.052379,112.96875 C454.050425,112.96875 453.69388,109.508741 453.69388,109.508741 C453.69388,109.508741 455.991773,107.267183 457.729581,107.000164 C457.729581,107.000164 458.288262,105.25189 459.741115,102.592939 C463.483438,95.7474051 457.603246,91.0605122 455.035838,92.1665346" id="Fill-102" fill="#F5AF00" fill-rule="nonzero"></path>
                <path d="M434.236016,120.5 C434.236016,120.5 437.462383,119.578991 442.139175,116.260254 M433.358847,108.261719 C433.358847,108.261719 433.080861,110.814593 431.456155,113.168597 C430.301,114.842774 430.725901,115.999325 433.358847,117.002139" id="Stroke-103" stroke="#D24864" stroke-width="0.5" stroke-linecap="round"></path>
                <path d="M438.990238,107.398309 C438.44881,107.620976 438.388484,108.318579 438.379435,108.803812 C438.368878,109.344389 438.37491,110.031695 438.560414,110.538809 C438.815292,111.235124 439.916246,111.300766 440.14247,110.538809 C440.340038,109.872096 440.454658,106.794664 438.990238,107.398309" id="Fill-104" fill="#3E3880"></path>
                <path d="M430.746472,107.357634 C430.12499,107.568062 430.022911,108.140323 429.962864,108.697187 C429.899815,109.265599 429.863787,109.989266 430.027414,110.540997 C430.251088,111.299308 431.348438,111.235153 431.600634,110.540997 C431.810797,109.964887 431.821305,109.127025 431.755253,108.525252 C431.707216,108.096698 431.461025,107.117695 430.746472,107.357634" id="Fill-105" fill="#3E3880"></path>
                <path d="M463.727989,144.462053 L455.297894,144.035156 L455.873759,148.308336 L444.73991,156.726908 L431.510475,147.145604 L432.839177,144.035156 L423.372526,144.462053 C423.372526,144.462053 405.572694,145.317251 398.865979,148.172123 L403.717287,183.751999 C403.717287,183.751999 407.751148,238.761293 409.890274,256.3104 C409.890274,256.3104 419.809189,259.88566 431.723967,256.462061 L431.641098,245.368363 L455.720663,245.368363 L455.69819,256.390443 C467.614372,259.814043 478.001002,239.911387 478.001002,239.911387 C480.142937,222.36228 483.383229,182.288754 483.383229,182.288754 L488.234536,148.172123 C481.527821,145.317251 463.727989,144.462053 463.727989,144.462053" id="Fill-106" fill="#5A6DA5"></path>
                <path d="M398.273466,245.707031 C398.273466,245.707031 401.088019,247.816199 405.453128,251.022354 C409.816928,254.228508 407.944485,263.008502 407.445952,267.386872 C406.947418,271.763875 405.353683,281.665476 404.754396,284.375114 C404.156418,287.08612 402.261731,287.190074 402.660819,281.665476 C403.059907,276.142245 403.27319,274.682789 403.27319,274.682789 C403.27319,274.682789 399.967955,282.498474 399.071642,284.167206 C398.172712,285.834571 396.378778,284.167206 398.972197,277.079198 C401.562999,269.992557 401.562999,269.992557 401.562999,269.992557 C401.562999,269.992557 395.082069,274.682789 392.690156,275.829016 C390.296936,276.975244 391.393447,273.744469 393.587778,271.5546 C395.7808,269.367466 399.171087,266.686552 399.171087,266.686552 C399.171087,266.686552 398.573109,257.901087 399.570175,255.192817 L394.783734,252.273903 L398.273466,245.707031" id="Fill-107" fill="#E98A8B"></path>
                <path d="M396.954402,243.824219 L401.688144,248.18961 C401.688144,248.18961 399.554125,251.117632 397.347511,256.0625 L387.57732,249.929372 L396.954402,243.824219" id="Fill-108" fill="#7F8BB8"></path>
                <path d="M442.41496,148.742188 C442.41496,148.742188 427.345767,151.532324 445.291309,164.746094 C445.291309,164.746094 457.929127,149.633881 447.277709,149.247617 L445.078147,153.145864 L442.41496,148.742188" id="Fill-109" fill="#D1C6D1"></path>
                <polyline id="Fill-110" fill="#962B50" points="448.724227 162.863281 447.629326 158.15625 441.480524 158.15625 441.198454 162.643502 448.724227 162.863281"></polyline>
                <polyline id="Fill-111" fill="#A02541" points="447.247988 149.896043 441.243703 149.683594 439.31701 155.35192 441.738455 159.097656 447.244999 159.097656 449.664948 155.35192 447.247988 149.896043"></polyline>
                <path d="M423.324742,144.617915 C423.324742,144.617915 434.134115,162.608915 444.875435,169.453125 C444.875435,169.453125 455.357041,162.12014 461.89433,144.559534 C461.89433,144.559534 459.23886,143.379685 456.58339,144.559534 C456.58339,144.559534 451.634939,155.647942 444.272677,162.963277 C444.272677,162.963277 431.236987,148.453443 428.823176,144.205172 C428.823176,144.205172 425.6705,143.85081 423.324742,144.617915" id="Fill-112" fill="#7F8BB8"></path>
                <path d="M446.842784,148.880218 L454.271546,138.386719 C454.271546,138.386719 456.347526,142.761077 459.072165,143.459817 L452.782577,162.863281 L446.842784,148.880218" id="Fill-113" fill="#E5DAE4"></path>
                <path d="M442.139175,148.371668 L434.524421,138.386719 C434.524421,138.386719 430.944083,143.487381 428.028351,143.459817 L436.75766,162.863281 L442.139175,148.371668" id="Fill-114" fill="#E5DAE4"></path>
                <path d="M425.943831,451.875 C425.943831,451.875 426.400752,459.103876 425.943831,462.932487 C425.488267,466.759703 408.25681,475.895908 397.925258,478.234375 C397.925258,478.234375 413.502581,465.908591 415.776336,461.442342 C418.050092,456.97749 418.25618,451.875 418.25618,451.875 L425.943831,451.875" id="Fill-115" fill="#962B50"></path>
                <path d="M461.156076,451.875 C461.156076,451.875 460.700524,459.103876 461.156076,462.932487 C461.612984,466.759703 478.843981,475.895908 489.175258,478.234375 C489.175258,478.234375 473.596994,465.908591 471.324655,461.442342 C469.050961,456.97749 468.844878,451.875 468.844878,451.875 L461.156076,451.875" id="Fill-116" fill="#962B50"></path>
                <path d="M477.884036,246.503228 L477.884036,238.175781 L408.273196,238.175781 L408.273196,246.503228 C408.273196,246.503228 408.846754,416.670909 413.121091,456.384593 C413.121091,456.384593 422.525195,458.946993 428.507584,456.384593 C428.507584,456.384593 435.506672,347.054629 439.008319,271.664895 L447.966478,271.664895 C451.468125,347.054629 458.467212,456.384593 458.467212,456.384593 C464.449602,458.946993 473.853706,456.384593 473.853706,456.384593 C478.128043,416.670909 477.884036,246.503228 477.884036,246.503228" id="Fill-117" fill="#312D6A"></path>
                <path d="M401.096098,146.859375 C394.046757,149.179215 373.272996,163.885494 365.057846,184.452788 C356.238999,206.534539 361.424194,235.827057 393.98653,251.355469 C393.98653,251.355469 395.708715,246.140714 399.06848,241.805321 C399.06848,241.805321 387.698621,227.457766 385.397117,217.384188 C382.164974,203.223672 388.630694,186.307823 405.451031,182.455381" id="Fill-118" fill="#5A6DA5"></path>
                <path d="M437.700472,104.493305 C438.661664,104.442144 439.542377,104.135178 440.51268,104.100723 C441.510316,104.066267 442.473027,104.31372 443.472181,104.246897 C444.427299,104.182163 445.438601,103.419967 444.715809,102.755918 C443.6711,101.795343 442.140481,101.563552 440.458015,101.713903 C439.045837,101.840239 437.272263,102.246395 436.623876,103.202794 C436.26248,103.738419 436.672467,104.549687 437.700472,104.493305" id="Fill-119" fill="#E1B744"></path>
                <path d="M431.434989,104.887775 C430.922138,104.496831 430.578333,103.754038 430.242524,103.207901 C429.501231,102.001898 427.784492,102.78734 428.05748,104.163937 C428.352169,105.644785 429.656571,106.445628 431.046638,106.374547 C431.848468,106.334268 432.041502,105.348615 431.434989,104.887775" id="Fill-120" fill="#E1B744"></path>
                <path d="M459.851165,109.20723 C459.851165,109.20723 456.121618,108.776683 455.309278,116.734375 M460.012887,113.2933 C460.012887,113.2933 458.530025,111.632148 456.121618,112.648305" id="Stroke-121" stroke="#D24864" stroke-width="0.5" stroke-linecap="round"></path>
                <path d="M444.96134,244.766227 C444.96134,243.725234 444.119531,242.882812 443.079296,242.882812 C442.040263,242.882812 441.198454,243.725234 441.198454,244.766227 C441.198454,245.806016 442.040263,246.648438 443.079296,246.648438 C444.119531,246.648438 444.96134,245.806016 444.96134,244.766227" id="Fill-122" fill="#E1B744"></path>
                <polyline id="Fill-123" fill="#5A6DA5" points="408.273196 233.46875 478.82732 233.46875 478.21895 238.175781 408.796254 238.175781 408.273196 233.46875"></polyline>
                <path d="M40.0460689,434.929688 C40.0460689,434.929688 32.4675049,400.873807 74.3170103,372.796875 L40.0460689,434.929688" id="Fill-124" fill="#F5AF00" fill-rule="nonzero"></path>
                <path d="M40.4510309,435.871094 C40.4510309,435.871094 73.9903784,422.132823 74.3170103,373.738281 L40.4510309,435.871094" id="Fill-125" fill="#E39842"></path>
                <path d="M34.271207,434.929688 C34.271207,434.929688 41.8480973,400.873807 0,372.796875 L34.271207,434.929688" id="Fill-126" fill="#E39842"></path>
                <path d="M33.8659794,435.871094 C33.8659794,435.871094 0.328033743,422.132823 0,373.738281 L33.8659794,435.871094" id="Fill-127" fill="#F5AF00" fill-rule="nonzero"></path>
                <path d="M36.6881443,433.046875 C36.6881443,433.046875 4.93878866,395.391584 36.6881443,335.140625 L36.6881443,433.046875" id="Fill-128" fill="#F5AF00" fill-rule="nonzero"></path>
                <path d="M36.6881443,433.046875 C36.6881443,433.046875 68.4375,395.390199 36.6881443,335.140625 L36.6881443,433.046875" id="Fill-129" fill="#E39842"></path>
                <path d="M8.46649485,428.339844 L67.7319588,428.339844 C67.7319588,428.339844 67.7319588,475.410156 38.0992268,475.410156 C8.46649485,475.410156 8.46649485,428.339844 8.46649485,428.339844" id="Fill-130" fill="#412709"></path>
            </g>
        </g>
    </g>
</svg>