<?xml version="1.0" encoding="UTF-8"?>
<svg width="70px" height="70px" viewBox="0 0 70 70" version="1.1" xmlns="http://www.w3.org/2000/svg" xmlns:xlink="http://www.w3.org/1999/xlink">
    <title>Manage Events</title>
    <g id="screens" stroke="none" stroke-width="1" fill="none" fill-rule="evenodd">
        <g id="About-us-v3" transform="translate(-416.000000, -1492.000000)">
            <g id="Manage-Events" transform="translate(416.000000, 1492.000000)">
                <rect id="Rectangle" fill="#FFFFFF" x="0" y="0" width="70" height="70"></rect>
                <g id="Group-8" transform="translate(9.000000, 8.000000)">
                    <path d="M50,16 L50.0007826,27.5508795 C46.7242418,24.1300679 42.1108729,22 37,22 C27.0588745,22 19,30.0588745 19,40 C19,45.1108729 21.1300679,49.7242418 24.5508795,53.0007826 L5,53 C2.23857625,53 3.38176876e-16,50.7614237 0,48 L0,16 L50,16 Z M8,4 L8,8.5 C8,10.4329966 9.56700338,12 11.5,12 C13.3685634,12 14.8951264,10.5357224 14.9948211,8.6920352 L15,8.5 L15,4 L34,4 L34,8.5 C34,10.3685634 35.4642776,11.8951264 37.3079648,11.9948211 L37.5,12 C39.3685634,12 40.8951264,10.5357224 40.9948211,8.6920352 L41,8.5 L41,4 L45,4 C47.7614237,4 50,6.23857625 50,9 L50,14 L0,14 L0,9 C-3.38176876e-16,6.23857625 2.23857625,4 5,4 L8,4 Z" id="Combined-Shape" fill="#A1314B"></path>
                    <path d="M37,25 C45.2842712,25 52,31.7157288 52,40 C52,48.2842712 45.2842712,55 37,55 C28.7157288,55 22,48.2842712 22,40 C22,31.7157288 28.7157288,25 37,25 Z M37.5,28.75 C36.4456382,28.75 35.5818349,29.5658778 35.5054857,30.6007377 L35.5,30.75 L35.5,40 L30,40 C28.9456382,40 28.0818349,40.8158778 28.0054857,41.8507377 L28,42 C28,43.1045695 28.8954305,44 30,44 L30,44 L37,44 C37.4214805,44 37.8125098,43.8696231 38.1349584,43.6469988 C38.8832452,43.3966709 39.4342429,42.7161993 39.4945143,41.8992623 L39.5,41.75 L39.5,30.75 C39.5,29.6454305 38.6045695,28.75 37.5,28.75 Z" id="Combined-Shape" fill="#38B968"></path>
                    <rect id="Rectangle" fill="#A1314B" x="9" y="0" width="5" height="11" rx="2.5"></rect>
                    <rect id="Rectangle" fill="#A1314B" x="35" y="0" width="5" height="11" rx="2.5"></rect>
                </g>
            </g>
        </g>
    </g>
</svg>