<svg xmlns="http://www.w3.org/2000/svg" width="151" height="151" viewBox="0 0 151 151">
  <g id="Group_12" data-name="Group 12" transform="translate(0.5 0.5)">
    <rect id="Rectangle_Copy_4" data-name="Rectangle Copy 4" width="150" height="150" rx="2" fill="none" stroke="#cbcbcb" stroke-miterlimit="10" stroke-width="1"/>
    <g id="Group_13" data-name="Group 13" transform="translate(11 28)">
      <path id="Rectangle" d="M2,12.706a2,2,0,0,1-2-2V2A2,2,0,0,1,2,0H102a2,2,0,0,1,2,2v8.706a2,2,0,0,1-2,2Z" transform="translate(12)" fill="#666"/>
      <g id="Group_6" data-name="Group 6" transform="translate(0 23)">
        <g id="Group_5" data-name="Group 5">
          <path id="Oval" d="M0,7.043a7.043,7.043,0,1,1,7.043,7.043A7.044,7.044,0,0,1,0,7.043Z" transform="translate(10.957 10.957)" fill="#666"/>
          <path id="Oval-2" data-name="Oval" d="M0,3.13A3.131,3.131,0,1,1,3.13,6.261,3.13,3.13,0,0,1,0,3.13Z" transform="translate(29.739 14.87)" fill="#666"/>
          <path id="Oval-3" data-name="Oval" d="M0,3.13A3.131,3.131,0,1,1,3.13,6.261,3.13,3.13,0,0,1,0,3.13Z" transform="translate(25.043 25.826)" fill="#666"/>
          <path id="Oval_Copy" data-name="Oval Copy" d="M0,3.13A3.131,3.131,0,1,1,3.13,6.261,3.13,3.13,0,0,1,0,3.13Z" transform="translate(3.13 24.261)" fill="#666"/>
          <path id="Oval_Copy_5" data-name="Oval Copy 5" d="M0,3.13A3.131,3.131,0,1,1,3.13,6.261,3.13,3.13,0,0,1,0,3.13Z" transform="translate(14.87 0)" fill="#666"/>
          <path id="Oval-4" data-name="Oval" d="M0,3.13A3.131,3.131,0,1,1,3.13,6.261,3.13,3.13,0,0,1,0,3.13Z" transform="translate(14.87 28.957)" fill="#666"/>
          <path id="Oval_Copy_2" data-name="Oval Copy 2" d="M0,3.13A3.131,3.131,0,1,1,3.13,6.261,3.13,3.13,0,0,1,0,3.13Z" transform="translate(0 14.87)" fill="#666"/>
          <path id="Oval_Copy_4" data-name="Oval Copy 4" d="M0,3.13A3.131,3.131,0,1,1,3.13,6.261,3.13,3.13,0,0,1,0,3.13Z" transform="translate(4.696 3.913)" fill="#666"/>
          <path id="Oval_Copy_6" data-name="Oval Copy 6" d="M0,3.13A3.131,3.131,0,1,1,3.13,6.261,3.13,3.13,0,0,1,0,3.13Z" transform="translate(25.043 3.913)" fill="#666"/>
        </g>
        <g id="Group_5_Copy" data-name="Group 5 Copy" transform="translate(46)">
          <path id="Oval-5" data-name="Oval" d="M0,7.043a7.043,7.043,0,1,1,7.043,7.043A7.044,7.044,0,0,1,0,7.043Z" transform="translate(10.957 10.957)" fill="#666"/>
          <path id="Oval-6" data-name="Oval" d="M0,3.13A3.131,3.131,0,1,1,3.13,6.261,3.13,3.13,0,0,1,0,3.13Z" transform="translate(29.739 14.87)" fill="#666"/>
          <path id="Oval-7" data-name="Oval" d="M0,3.13A3.131,3.131,0,1,1,3.13,6.261,3.13,3.13,0,0,1,0,3.13Z" transform="translate(25.043 25.826)" fill="#666"/>
          <path id="Oval_Copy-2" data-name="Oval Copy" d="M0,3.13A3.131,3.131,0,1,1,3.13,6.261,3.13,3.13,0,0,1,0,3.13Z" transform="translate(3.13 24.261)" fill="#666"/>
          <path id="Oval_Copy_5-2" data-name="Oval Copy 5" d="M0,3.13A3.131,3.131,0,1,1,3.13,6.261,3.13,3.13,0,0,1,0,3.13Z" transform="translate(14.87 0)" fill="#666"/>
          <path id="Oval-8" data-name="Oval" d="M0,3.13A3.131,3.131,0,1,1,3.13,6.261,3.13,3.13,0,0,1,0,3.13Z" transform="translate(14.87 28.957)" fill="#666"/>
          <path id="Oval_Copy_2-2" data-name="Oval Copy 2" d="M0,3.13A3.131,3.131,0,1,1,3.13,6.261,3.13,3.13,0,0,1,0,3.13Z" transform="translate(0 14.87)" fill="#666"/>
          <path id="Oval_Copy_4-2" data-name="Oval Copy 4" d="M0,3.13A3.131,3.131,0,1,1,3.13,6.261,3.13,3.13,0,0,1,0,3.13Z" transform="translate(4.696 3.913)" fill="#666"/>
          <path id="Oval_Copy_6-2" data-name="Oval Copy 6" d="M0,3.13A3.131,3.131,0,1,1,3.13,6.261,3.13,3.13,0,0,1,0,3.13Z" transform="translate(25.043 3.913)" fill="#666"/>
        </g>
        <g id="Group_5_Copy_2" data-name="Group 5 Copy 2" transform="translate(92)">
          <path id="Oval-9" data-name="Oval" d="M0,7.043a7.043,7.043,0,1,1,7.043,7.043A7.044,7.044,0,0,1,0,7.043Z" transform="translate(10.957 10.957)" fill="#666"/>
          <path id="Oval-10" data-name="Oval" d="M0,3.13A3.131,3.131,0,1,1,3.13,6.261,3.13,3.13,0,0,1,0,3.13Z" transform="translate(29.739 14.87)" fill="#666"/>
          <path id="Oval-11" data-name="Oval" d="M0,3.13A3.131,3.131,0,1,1,3.13,6.261,3.13,3.13,0,0,1,0,3.13Z" transform="translate(25.043 25.826)" fill="#666"/>
          <path id="Oval_Copy-3" data-name="Oval Copy" d="M0,3.13A3.131,3.131,0,1,1,3.13,6.261,3.13,3.13,0,0,1,0,3.13Z" transform="translate(3.13 24.261)" fill="#666"/>
          <path id="Oval_Copy_5-3" data-name="Oval Copy 5" d="M0,3.13A3.131,3.131,0,1,1,3.13,6.261,3.13,3.13,0,0,1,0,3.13Z" transform="translate(14.87 0)" fill="#666"/>
          <path id="Oval-12" data-name="Oval" d="M0,3.13A3.131,3.131,0,1,1,3.13,6.261,3.13,3.13,0,0,1,0,3.13Z" transform="translate(14.87 28.957)" fill="#666"/>
          <path id="Oval_Copy_2-3" data-name="Oval Copy 2" d="M0,3.13A3.131,3.131,0,1,1,3.13,6.261,3.13,3.13,0,0,1,0,3.13Z" transform="translate(0 14.87)" fill="#666"/>
          <path id="Oval_Copy_4-3" data-name="Oval Copy 4" d="M0,3.13A3.131,3.131,0,1,1,3.13,6.261,3.13,3.13,0,0,1,0,3.13Z" transform="translate(4.696 3.913)" fill="#666"/>
          <path id="Oval_Copy_6-3" data-name="Oval Copy 6" d="M0,3.13A3.131,3.131,0,1,1,3.13,6.261,3.13,3.13,0,0,1,0,3.13Z" transform="translate(25.043 3.913)" fill="#666"/>
        </g>
      </g>
      <g id="Group_7_Copy" data-name="Group 7 Copy" transform="translate(4 69)">
        <path id="Oval_Copy_6-4" data-name="Oval Copy 6" d="M0,3.13A3.131,3.131,0,1,1,3.13,6.261,3.13,3.13,0,0,1,0,3.13Z" transform="translate(5.13 0)" fill="#666"/>
        <path id="Oval_Copy_6-5" data-name="Oval Copy 6" d="M0,3.13A3.131,3.131,0,1,1,3.13,6.261,3.13,3.13,0,0,1,0,3.13Z" transform="translate(46.174 0)" fill="#666"/>
        <path id="Oval_Copy_6-6" data-name="Oval Copy 6" d="M0,3.13A3.131,3.131,0,1,1,3.13,6.261,3.13,3.13,0,0,1,0,3.13Z" transform="translate(15.391 0)" fill="#666"/>
        <path id="Oval_Copy_6-7" data-name="Oval Copy 6" d="M0,3.13A3.131,3.131,0,1,1,3.13,6.261,3.13,3.13,0,0,1,0,3.13Z" transform="translate(35.913 0)" fill="#666"/>
        <path id="Oval_Copy_6-8" data-name="Oval Copy 6" d="M0,3.13A3.131,3.131,0,1,1,3.13,6.261,3.13,3.13,0,0,1,0,3.13Z" transform="translate(56.435 0)" fill="#666"/>
        <path id="Oval_Copy_6-9" data-name="Oval Copy 6" d="M0,3.13A3.131,3.131,0,1,1,3.13,6.261,3.13,3.13,0,0,1,0,3.13Z" transform="translate(25.652 0)" fill="#666"/>
        <path id="Oval_Copy_6-10" data-name="Oval Copy 6" d="M0,3.13A3.131,3.131,0,1,1,3.13,6.261,3.13,3.13,0,0,1,0,3.13Z" transform="translate(66.696 0)" fill="#666"/>
        <path id="Oval_Copy_6-11" data-name="Oval Copy 6" d="M0,3.13A3.131,3.131,0,1,1,3.13,6.261,3.13,3.13,0,0,1,0,3.13Z" transform="translate(76.957 0)" fill="#666"/>
        <path id="Oval_Copy_6-12" data-name="Oval Copy 6" d="M0,3.13A3.131,3.131,0,1,1,3.13,6.261,3.13,3.13,0,0,1,0,3.13Z" transform="translate(97.478 0)" fill="#666"/>
        <path id="Oval_Copy_6-13" data-name="Oval Copy 6" d="M0,3.13A3.131,3.131,0,1,1,3.13,6.261,3.13,3.13,0,0,1,0,3.13Z" transform="translate(87.217 0)" fill="#666"/>
        <path id="Oval_Copy_6-14" data-name="Oval Copy 6" d="M0,3.13A3.131,3.131,0,1,1,3.13,6.261,3.13,3.13,0,0,1,0,3.13Z" transform="translate(10.261 9)" fill="#666"/>
        <path id="Oval_Copy_6-15" data-name="Oval Copy 6" d="M0,3.13A3.131,3.131,0,1,1,3.13,6.261,3.13,3.13,0,0,1,0,3.13Z" transform="translate(0 9)" fill="#666"/>
        <path id="Oval_Copy_6-16" data-name="Oval Copy 6" d="M0,3.13A3.131,3.131,0,1,1,3.13,6.261,3.13,3.13,0,0,1,0,3.13Z" transform="translate(51.304 9)" fill="#666"/>
        <path id="Oval_Copy_6-17" data-name="Oval Copy 6" d="M0,3.13A3.131,3.131,0,1,1,3.13,6.261,3.13,3.13,0,0,1,0,3.13Z" transform="translate(20.522 9)" fill="#666"/>
        <path id="Oval_Copy_6-18" data-name="Oval Copy 6" d="M0,3.13A3.131,3.131,0,1,1,3.13,6.261,3.13,3.13,0,0,1,0,3.13Z" transform="translate(41.043 9)" fill="#666"/>
        <path id="Oval_Copy_6-19" data-name="Oval Copy 6" d="M0,3.13A3.131,3.131,0,1,1,3.13,6.261,3.13,3.13,0,0,1,0,3.13Z" transform="translate(61.565 9)" fill="#666"/>
        <path id="Oval_Copy_6-20" data-name="Oval Copy 6" d="M0,3.13A3.131,3.131,0,1,1,3.13,6.261,3.13,3.13,0,0,1,0,3.13Z" transform="translate(30.783 9)" fill="#666"/>
        <path id="Oval_Copy_6-21" data-name="Oval Copy 6" d="M0,3.13A3.131,3.131,0,1,1,3.13,6.261,3.13,3.13,0,0,1,0,3.13Z" transform="translate(71.826 9)" fill="#666"/>
        <path id="Oval_Copy_6-22" data-name="Oval Copy 6" d="M0,3.13A3.131,3.131,0,1,1,3.13,6.261,3.13,3.13,0,0,1,0,3.13Z" transform="translate(82.087 9)" fill="#666"/>
        <path id="Oval_Copy_6-23" data-name="Oval Copy 6" d="M0,3.13A3.131,3.131,0,1,1,3.13,6.261,3.13,3.13,0,0,1,0,3.13Z" transform="translate(102.609 9)" fill="#666"/>
        <path id="Oval_Copy_6-24" data-name="Oval Copy 6" d="M0,3.13A3.131,3.131,0,1,1,3.13,6.261,3.13,3.13,0,0,1,0,3.13Z" transform="translate(107.739 0)" fill="#666"/>
        <path id="Oval_Copy_6-25" data-name="Oval Copy 6" d="M0,3.13A3.131,3.131,0,1,1,3.13,6.261,3.13,3.13,0,0,1,0,3.13Z" transform="translate(5.13 18)" fill="#666"/>
        <path id="Oval_Copy_6-26" data-name="Oval Copy 6" d="M0,3.13A3.131,3.131,0,1,1,3.13,6.261,3.13,3.13,0,0,1,0,3.13Z" transform="translate(46.174 18)" fill="#666"/>
        <path id="Oval_Copy_6-27" data-name="Oval Copy 6" d="M0,3.13A3.131,3.131,0,1,1,3.13,6.261,3.13,3.13,0,0,1,0,3.13Z" transform="translate(15.391 18)" fill="#666"/>
        <path id="Oval_Copy_6-28" data-name="Oval Copy 6" d="M0,3.13A3.131,3.131,0,1,1,3.13,6.261,3.13,3.13,0,0,1,0,3.13Z" transform="translate(35.913 18)" fill="#666"/>
        <path id="Oval_Copy_6-29" data-name="Oval Copy 6" d="M0,3.13A3.131,3.131,0,1,1,3.13,6.261,3.13,3.13,0,0,1,0,3.13Z" transform="translate(56.435 18)" fill="#666"/>
        <path id="Oval_Copy_6-30" data-name="Oval Copy 6" d="M0,3.13A3.131,3.131,0,1,1,3.13,6.261,3.13,3.13,0,0,1,0,3.13Z" transform="translate(25.652 18)" fill="#666"/>
        <path id="Oval_Copy_6-31" data-name="Oval Copy 6" d="M0,3.13A3.131,3.131,0,1,1,3.13,6.261,3.13,3.13,0,0,1,0,3.13Z" transform="translate(66.696 18)" fill="#666"/>
        <path id="Oval_Copy_6-32" data-name="Oval Copy 6" d="M0,3.13A3.131,3.131,0,1,1,3.13,6.261,3.13,3.13,0,0,1,0,3.13Z" transform="translate(76.957 18)" fill="#666"/>
        <path id="Oval_Copy_6-33" data-name="Oval Copy 6" d="M0,3.13A3.131,3.131,0,1,1,3.13,6.261,3.13,3.13,0,0,1,0,3.13Z" transform="translate(97.478 18)" fill="#666"/>
        <path id="Oval_Copy_6-34" data-name="Oval Copy 6" d="M0,3.13A3.131,3.131,0,1,1,3.13,6.261,3.13,3.13,0,0,1,0,3.13Z" transform="translate(87.217 18)" fill="#666"/>
        <path id="Oval_Copy_6-35" data-name="Oval Copy 6" d="M0,3.13A3.131,3.131,0,1,1,3.13,6.261,3.13,3.13,0,0,1,0,3.13Z" transform="translate(107.739 18)" fill="#666"/>
        <path id="Oval_Copy_6-36" data-name="Oval Copy 6" d="M0,3.13A3.131,3.131,0,1,1,3.13,6.261,3.13,3.13,0,0,1,0,3.13Z" transform="translate(112.87 9)" fill="#666"/>
        <path id="Oval_Copy_6-37" data-name="Oval Copy 6" d="M0,3.13A3.131,3.131,0,1,1,3.13,6.261,3.13,3.13,0,0,1,0,3.13Z" transform="translate(92.348 9)" fill="#666"/>
      </g>
    </g>
  </g>
</svg>
