<?xml version="1.0" encoding="UTF-8"?>
<svg width="51px" height="43px" viewBox="0 0 51 43" version="1.1" xmlns="http://www.w3.org/2000/svg" xmlns:xlink="http://www.w3.org/1999/xlink">
    <title>“</title>
    <g id="Marketing-Pages" stroke="none" stroke-width="1" fill="none" fill-rule="evenodd" opacity="0.300000012">
        <g id="org-v1.3" transform="translate(-134.000000, -3707.000000)" fill="#38B968" fill-rule="nonzero">
            <g id="Group-29" transform="translate(84.000000, 3590.000000)">
                <g id="Group-28" transform="translate(50.000000, 117.000000)">
                    <path d="M40.7226562,42.7734375 C43.2617188,42.7734375 45.4882812,41.8457031 47.4023438,39.9902344 C49.3164062,38.1347656 50.2734375,35.8398438 50.2734375,33.1054688 C50.2734375,30.8007812 49.4042969,28.6230469 47.6660156,26.5722656 C45.9277344,24.5214844 43.2617188,23.4960938 39.6679688,23.4960938 C39.6679688,20.4492188 40.1074219,17.8613281 40.9863281,15.7324219 C41.8652344,13.6035156 43.0371094,11.8554688 44.5019531,10.4882812 C45.9667969,9.12109375 48.1054688,8.06640625 50.9179688,7.32421875 L50.9179688,7.32421875 L50.9179688,0 C46.2695312,0.625 42.3339844,2.28515625 39.1113281,4.98046875 C35.8886719,7.67578125 33.3398438,10.9179688 31.4648438,14.7070312 C29.5898438,18.4960938 28.6523438,22.5585938 28.6523438,26.8945312 C28.6523438,31.8164062 29.8339844,35.6933594 32.1972656,38.5253906 C34.5605469,41.3574219 37.4023438,42.7734375 40.7226562,42.7734375 Z M12.0703125,42.7734375 C14.609375,42.7734375 16.8359375,41.8457031 18.75,39.9902344 C20.6640625,38.1347656 21.6210938,35.8398438 21.6210938,33.1054688 C21.6210938,30.8007812 20.7617188,28.6230469 19.0429688,26.5722656 C17.3242188,24.5214844 14.6484375,23.4960938 11.015625,23.4960938 C11.015625,20.4492188 11.4550781,17.8613281 12.3339844,15.7324219 C13.2128906,13.6035156 14.3847656,11.8554688 15.8496094,10.4882812 C17.3144531,9.12109375 19.453125,8.06640625 22.265625,7.32421875 L22.265625,7.32421875 L22.265625,0 C17.6171875,0.625 13.6816406,2.28515625 10.4589844,4.98046875 C7.23632812,7.67578125 4.6875,10.9179688 2.8125,14.7070312 C0.9375,18.4960938 0,22.5585938 0,26.8945312 C0,31.8164062 1.19140625,35.6933594 3.57421875,38.5253906 C5.95703125,41.3574219 8.7890625,42.7734375 12.0703125,42.7734375 Z" id="“"></path>
                </g>
            </g>
        </g>
    </g>
</svg>