<?xml version="1.0"?>
<svg xmlns="http://www.w3.org/2000/svg" xmlns:xlink="http://www.w3.org/1999/xlink" version="1.1" id="Capa_1" x="0px" y="0px" viewBox="0 0 426.667 426.667" style="enable-background:new 0 0 426.667 426.667;" xml:space="preserve" width="512px" height="512px" class=""><g><g>
	<g>
		<g>
			<path d="M213.12,0C95.36,0,0,95.573,0,213.333s95.36,213.333,213.12,213.333c117.973,0,213.547-95.573,213.547-213.333     S331.093,0,213.12,0z M213.333,384c-94.293,0-170.667-76.373-170.667-170.667S119.04,42.667,213.333,42.667     S384,119.04,384,213.333S307.627,384,213.333,384z" data-original="#000000" class="active-path" data-old_color="#000000" fill="#FFFFFF"/>
			<rect x="149.333" y="256" width="128" height="32" data-original="#000000" class="active-path" data-old_color="#000000" fill="#FFFFFF"/>
			<path d="M170.667,160c0-17.707-14.293-32-32-32s-32,14.293-32,32s14.293,32,32,32S170.667,177.707,170.667,160z" data-original="#000000" class="active-path" data-old_color="#000000" fill="#FFFFFF"/>
			<path d="M288,128c-17.707,0-32,14.293-32,32s14.293,32,32,32s32-14.293,32-32S305.707,128,288,128z" data-original="#000000" class="active-path" data-old_color="#000000" fill="#FFFFFF"/>
		</g>
	</g>
</g></g> </svg>
