<svg xmlns="http://www.w3.org/2000/svg" xmlns:xlink="http://www.w3.org/1999/xlink" width="26" height="42" viewBox="0 0 26 42">
  <defs>
    <clipPath id="clip-Performing_Arts-claimed-small">
      <rect width="26" height="42"/>
    </clipPath>
  </defs>
  <g id="Performing_Arts-claimed-small" data-name="Performing Arts-claimed-small" clip-path="url(#clip-Performing_Arts-claimed-small)">
    <g id="Group_209" data-name="Group 209" transform="translate(-797.7 -287.022)">
      <g id="Group_60" data-name="Group 60" transform="translate(798 297.163)">
        <g id="Group_11" data-name="Group 11" transform="translate(0 0)">
          <path id="Path_15" data-name="Path 15" d="M191.3,3a12.685,12.685,0,0,0-12.685,12.684c0,10.544,12.685,19.175,12.685,19.175s12.685-9.266,12.685-19.176A12.684,12.684,0,0,0,191.3,3Z" transform="translate(-178.616 -3)" fill="#9460e9"/>
        </g>
        <g id="Group_18" data-name="Group 18" transform="translate(6.1 6.648)">
          <g id="Group_17" data-name="Group 17">
            <rect id="Rectangle_13" data-name="Rectangle 13" width="13.107" height="0.452" transform="translate(0 9.039)" fill="#fcfcfc"/>
            <path id="Path_39" data-name="Path 39" d="M280.48,284.776h1.808a7.485,7.485,0,0,0-.452-2.712c3.164,0,4.52-4.52,4.52-4.52H280.48Z" transform="translate(-280.028 -276.189)" fill="#fcfcfc"/>
            <path id="Path_40" data-name="Path 40" d="M296.585,282.064a7.485,7.485,0,0,0-.452,2.712h1.808v-7.231h-5.876S293.422,282.064,296.585,282.064Z" transform="translate(-285.287 -276.189)" fill="#fcfcfc"/>
            <rect id="Rectangle_14" data-name="Rectangle 14" width="13.107" height="0.904" fill="#fcfcfc"/>
            <path id="Path_41" data-name="Path 41" d="M280.557,293.269a.9.9,0,0,0-.9.9v.9h1.808v-.9A.9.9,0,0,0,280.557,293.269Z" transform="translate(-279.653 -283.326)" fill="#fcfcfc"/>
            <path id="Path_42" data-name="Path 42" d="M284.695,293.269a.9.9,0,0,0-.9.9v.9H285.6v-.9A.9.9,0,0,0,284.695,293.269Z" transform="translate(-281.531 -283.326)" fill="#fcfcfc"/>
            <path id="Path_43" data-name="Path 43" d="M288.833,293.269a.9.9,0,0,0-.9.9v.9h1.808v-.9A.9.9,0,0,0,288.833,293.269Z" transform="translate(-283.409 -283.326)" fill="#fcfcfc"/>
            <path id="Path_44" data-name="Path 44" d="M292.971,293.269a.9.9,0,0,0-.9.9v.9h1.808v-.9A.9.9,0,0,0,292.971,293.269Z" transform="translate(-285.288 -283.326)" fill="#fcfcfc"/>
            <path id="Path_45" data-name="Path 45" d="M297.108,293.269a.9.9,0,0,0-.9.9v.9h1.808v-.9A.9.9,0,0,0,297.108,293.269Z" transform="translate(-287.165 -283.326)" fill="#fcfcfc"/>
            <path id="Path_46" data-name="Path 46" d="M301.246,293.269a.9.9,0,0,0-.9.9v.9h1.808v-.9A.9.9,0,0,0,301.246,293.269Z" transform="translate(-289.044 -283.326)" fill="#fcfcfc"/>
          </g>
        </g>
      </g>
      <path id="crown_1_" data-name="crown (1)" d="M17.07,47.509a.5.5,0,0,1-.013.148l-1.1,4.384a.5.5,0,0,1-.481.377L8.9,52.452H2.325a.5.5,0,0,1-.483-.378l-1.1-4.4a.5.5,0,0,1-.013-.152,1.047,1.047,0,1,1,.978-.19l1.372,1.383a1.862,1.862,0,0,0,2.807-.19l2.255-2.988a1.047,1.047,0,1,1,1.5-.018l0,0,2.239,3a1.869,1.869,0,0,0,1.49.747,1.848,1.848,0,0,0,1.315-.545l1.381-1.381a1.046,1.046,0,1,1,1,.171Zm-1.216,6.5a.5.5,0,0,0-.5-.5H2.469a.5.5,0,0,0-.5.5v1.2a.5.5,0,0,0,.5.5H15.356a.5.5,0,0,0,.5-.5Z" transform="translate(802 243.272)" fill="#9460e9"/>
    </g>
  </g>
</svg>
