<svg xmlns="http://www.w3.org/2000/svg" xmlns:xlink="http://www.w3.org/1999/xlink" width="26" height="42" viewBox="0 0 26 42">
  <defs>
    <clipPath id="clip-Rally-claimed-small">
      <rect width="26" height="42"/>
    </clipPath>
  </defs>
  <g id="Rally-claimed-small" clip-path="url(#clip-Rally-claimed-small)">
    <g id="Group_211" data-name="Group 211" transform="translate(-754.7 -179.022)">
      <g id="Group_49" data-name="Group 49" transform="translate(755 189)">
        <g id="Group_12" data-name="Group 12">
          <path id="Path_16" data-name="Path 16" d="M191.358,87a12.742,12.742,0,0,0-12.742,12.74c0,10.59,12.742,19.26,12.742,19.26S204.1,109.693,204.1,99.739A12.741,12.741,0,0,0,191.358,87Z" transform="translate(-178.616 -87)" fill="#bb36b4"/>
        </g>
        <g id="Group_33" data-name="Group 33" transform="translate(5.852 6.086)">
          <path id="Path_57" data-name="Path 57" d="M210.4,116.319a5.1,5.1,0,0,0-2.675-.44,1.137,1.137,0,0,1,.1.465v1.484a1.148,1.148,0,0,1-.066.384h2.537a.367.367,0,0,0,.368-.368l0-1.171A.369.369,0,0,0,210.4,116.319Z" transform="translate(-197.557 -106.078)" fill="#fff" fill-rule="evenodd"/>
          <path id="Path_58" data-name="Path 58" d="M191.954,116.344a1.147,1.147,0,0,1,.1-.464,5.093,5.093,0,0,0-2.68.439.369.369,0,0,0-.265.354l0,1.171a.367.367,0,0,0,.368.368h2.539a1.145,1.145,0,0,1-.066-.384h0Z" transform="translate(-189.107 -106.078)" fill="#fff" fill-rule="evenodd"/>
          <path id="Path_59" data-name="Path 59" d="M201.349,115.593a6.265,6.265,0,0,0-5.39.009.381.381,0,0,0-.238.354l0,1.484a.384.384,0,0,0,.384.384h5.12a.384.384,0,0,0,.384-.384v-1.484A.384.384,0,0,0,201.349,115.593Z" transform="translate(-192.108 -105.69)" fill="#fff" fill-rule="evenodd"/>
          <path id="Path_60" data-name="Path 60" d="M206.364,102.431V98.346a.384.384,0,0,0-.384-.384h-6.221a.384.384,0,0,0-.384.384v.465h2.1a1.152,1.152,0,0,1,1.152,1.152q0,3.448,0,6.9c.249.08.5.173.768.279v-4.322h2.587A.384.384,0,0,0,206.364,102.431Z" transform="translate(-193.768 -97.962)" fill="#fff" fill-rule="evenodd"/>
          <path id="Path_61" data-name="Path 61" d="M190.626,104.993h2.967v3.355c.263-.1.518-.18.768-.249v-3.106h2.967a.384.384,0,0,0,.384-.384v-3.3a.384.384,0,0,0-.384-.384h-6.7a.384.384,0,0,0-.384.384v3.3A.385.385,0,0,0,190.626,104.993Z" transform="translate(-189.622 -99.306)" fill="#fff" fill-rule="evenodd"/>
          <path id="Path_62" data-name="Path 62" d="M199.95,109.212a1.395,1.395,0,1,0,.986.408A1.39,1.39,0,0,0,199.95,109.212Z" transform="translate(-193.396 -103.068)" fill="#fff" fill-rule="evenodd"/>
          <path id="Path_63" data-name="Path 63" d="M208.42,113.317a1.021,1.021,0,1,0-.723-.3A1.021,1.021,0,0,0,208.42,113.317Z" transform="translate(-197.409 -104.005)" fill="#fff" fill-rule="evenodd"/>
          <path id="Path_64" data-name="Path 64" d="M192.1,111.276a1.021,1.021,0,1,0,.721.3A1.017,1.017,0,0,0,192.1,111.276Z" transform="translate(-190 -104.005)" fill="#fff" fill-rule="evenodd"/>
        </g>
      </g>
      <path id="crown_1_" data-name="crown (1)" d="M17.07,47.509a.5.5,0,0,1-.013.148l-1.1,4.384a.5.5,0,0,1-.481.377L8.9,52.452H2.325a.5.5,0,0,1-.483-.378l-1.1-4.4a.5.5,0,0,1-.013-.152,1.047,1.047,0,1,1,.978-.19l1.372,1.383a1.862,1.862,0,0,0,2.807-.19l2.255-2.988a1.047,1.047,0,1,1,1.5-.018l0,0,2.239,3a1.869,1.869,0,0,0,1.49.747,1.848,1.848,0,0,0,1.315-.545l1.381-1.381a1.046,1.046,0,1,1,1,.171Zm-1.216,6.5a.5.5,0,0,0-.5-.5H2.469a.5.5,0,0,0-.5.5v1.2a.5.5,0,0,0,.5.5H15.356a.5.5,0,0,0,.5-.5Z" transform="translate(759 135.272)" fill="#bb36b4"/>
    </g>
  </g>
</svg>
