<svg xmlns="http://www.w3.org/2000/svg" width="151" height="151" viewBox="0 0 151 151">
  <g id="Group_15" data-name="Group 15" transform="translate(0.5 0.5)">
    <rect id="Rectangle_Copy_4" data-name="Rectangle Copy 4" width="150" height="150" rx="2" fill="none" stroke="#cbcbcb" stroke-miterlimit="10" stroke-width="1"/>
    <g id="Group_14" data-name="Group 14" transform="translate(11 27)">
      <path id="Rectangle" d="M2,12.706a2,2,0,0,1-2-2V2A2,2,0,0,1,2,0H102a2,2,0,0,1,2,2v8.706a2,2,0,0,1-2,2Z" transform="translate(12)" fill="#666"/>
      <path id="Oval_Copy_6" data-name="Oval Copy 6" d="M0,3.13A3.131,3.131,0,1,1,3.13,6.261,3.13,3.13,0,0,1,0,3.13Z" transform="translate(9.13 27)" fill="#666"/>
      <path id="Oval_Copy_6-2" data-name="Oval Copy 6" d="M0,3.13A3.131,3.131,0,1,1,3.13,6.261,3.13,3.13,0,0,1,0,3.13Z" transform="translate(50.174 27)" fill="#666"/>
      <path id="Oval_Copy_6-3" data-name="Oval Copy 6" d="M0,3.13A3.131,3.131,0,1,1,3.13,6.261,3.13,3.13,0,0,1,0,3.13Z" transform="translate(19.391 27)" fill="#666"/>
      <path id="Oval_Copy_6-4" data-name="Oval Copy 6" d="M0,3.13A3.131,3.131,0,1,1,3.13,6.261,3.13,3.13,0,0,1,0,3.13Z" transform="translate(39.913 27)" fill="#666"/>
      <path id="Oval_Copy_6-5" data-name="Oval Copy 6" d="M0,3.13A3.131,3.131,0,1,1,3.13,6.261,3.13,3.13,0,0,1,0,3.13Z" transform="translate(60.435 27)" fill="#666"/>
      <path id="Oval_Copy_6-6" data-name="Oval Copy 6" d="M0,3.13A3.131,3.131,0,1,1,3.13,6.261,3.13,3.13,0,0,1,0,3.13Z" transform="translate(29.652 27)" fill="#666"/>
      <path id="Oval_Copy_6-7" data-name="Oval Copy 6" d="M0,3.13A3.131,3.131,0,1,1,3.13,6.261,3.13,3.13,0,0,1,0,3.13Z" transform="translate(70.696 27)" fill="#666"/>
      <path id="Oval_Copy_6-8" data-name="Oval Copy 6" d="M0,3.13A3.131,3.131,0,1,1,3.13,6.261,3.13,3.13,0,0,1,0,3.13Z" transform="translate(80.957 27)" fill="#666"/>
      <path id="Oval_Copy_6-9" data-name="Oval Copy 6" d="M0,3.13A3.131,3.131,0,1,1,3.13,6.261,3.13,3.13,0,0,1,0,3.13Z" transform="translate(101.478 27)" fill="#666"/>
      <path id="Oval_Copy_6-10" data-name="Oval Copy 6" d="M0,3.13A3.131,3.131,0,1,1,3.13,6.261,3.13,3.13,0,0,1,0,3.13Z" transform="translate(91.217 27)" fill="#666"/>
      <path id="Oval_Copy_6-11" data-name="Oval Copy 6" d="M0,3.13A3.131,3.131,0,1,1,3.13,6.261,3.13,3.13,0,0,1,0,3.13Z" transform="translate(55.304 55)" fill="#666"/>
      <path id="Oval_Copy_6-12" data-name="Oval Copy 6" d="M0,3.13A3.131,3.131,0,1,1,3.13,6.261,3.13,3.13,0,0,1,0,3.13Z" transform="translate(45.043 55)" fill="#666"/>
      <path id="Oval_Copy_6-13" data-name="Oval Copy 6" d="M0,3.13A3.131,3.131,0,1,1,3.13,6.261,3.13,3.13,0,0,1,0,3.13Z" transform="translate(65.565 55)" fill="#666"/>
      <path id="Oval_Copy_6-14" data-name="Oval Copy 6" d="M0,3.13A3.131,3.131,0,1,1,3.13,6.261,3.13,3.13,0,0,1,0,3.13Z" transform="translate(75.826 55)" fill="#666"/>
      <path id="Oval_Copy_6-15" data-name="Oval Copy 6" d="M0,3.13A3.131,3.131,0,1,1,3.13,6.261,3.13,3.13,0,0,1,0,3.13Z" transform="translate(111.739 27)" fill="#666"/>
      <path id="Oval_Copy_6-16" data-name="Oval Copy 6" d="M0,3.13A3.131,3.131,0,1,1,3.13,6.261,3.13,3.13,0,0,1,0,3.13Z" transform="translate(9.13 37)" fill="#666"/>
      <path id="Oval_Copy_6-17" data-name="Oval Copy 6" d="M0,3.13A3.131,3.131,0,1,1,3.13,6.261,3.13,3.13,0,0,1,0,3.13Z" transform="translate(50.174 37)" fill="#666"/>
      <path id="Oval_Copy_6-18" data-name="Oval Copy 6" d="M0,3.13A3.131,3.131,0,1,1,3.13,6.261,3.13,3.13,0,0,1,0,3.13Z" transform="translate(19.391 37)" fill="#666"/>
      <path id="Oval_Copy_6-19" data-name="Oval Copy 6" d="M0,3.13A3.131,3.131,0,1,1,3.13,6.261,3.13,3.13,0,0,1,0,3.13Z" transform="translate(39.913 37)" fill="#666"/>
      <path id="Oval_Copy_6-20" data-name="Oval Copy 6" d="M0,3.13A3.131,3.131,0,1,1,3.13,6.261,3.13,3.13,0,0,1,0,3.13Z" transform="translate(60.435 37)" fill="#666"/>
      <path id="Oval_Copy_6-21" data-name="Oval Copy 6" d="M0,3.13A3.131,3.131,0,1,1,3.13,6.261,3.13,3.13,0,0,1,0,3.13Z" transform="translate(29.652 37)" fill="#666"/>
      <path id="Oval_Copy_6-22" data-name="Oval Copy 6" d="M0,3.13A3.131,3.131,0,1,1,3.13,6.261,3.13,3.13,0,0,1,0,3.13Z" transform="translate(70.696 37)" fill="#666"/>
      <path id="Oval_Copy_6-23" data-name="Oval Copy 6" d="M0,3.13A3.131,3.131,0,1,1,3.13,6.261,3.13,3.13,0,0,1,0,3.13Z" transform="translate(80.957 37)" fill="#666"/>
      <path id="Oval_Copy_6-24" data-name="Oval Copy 6" d="M0,3.13A3.131,3.131,0,1,1,3.13,6.261,3.13,3.13,0,0,1,0,3.13Z" transform="translate(101.478 37)" fill="#666"/>
      <path id="Oval_Copy_6-25" data-name="Oval Copy 6" d="M0,3.13A3.131,3.131,0,1,1,3.13,6.261,3.13,3.13,0,0,1,0,3.13Z" transform="translate(91.217 37)" fill="#666"/>
      <path id="Oval_Copy_6-26" data-name="Oval Copy 6" d="M0,3.13A3.131,3.131,0,1,1,3.13,6.261,3.13,3.13,0,0,1,0,3.13Z" transform="translate(111.739 37)" fill="#666"/>
      <path id="Oval_Copy_6-27" data-name="Oval Copy 6" d="M0,3.13A3.131,3.131,0,1,1,3.13,6.261,3.13,3.13,0,0,1,0,3.13Z" transform="translate(55.304 66)" fill="#666"/>
      <path id="Oval_Copy_6-28" data-name="Oval Copy 6" d="M0,3.13A3.131,3.131,0,1,1,3.13,6.261,3.13,3.13,0,0,1,0,3.13Z" transform="translate(45.043 66)" fill="#666"/>
      <path id="Oval_Copy_6-29" data-name="Oval Copy 6" d="M0,3.13A3.131,3.131,0,1,1,3.13,6.261,3.13,3.13,0,0,1,0,3.13Z" transform="translate(65.565 66)" fill="#666"/>
      <path id="Oval_Copy_6-30" data-name="Oval Copy 6" d="M0,3.13A3.131,3.131,0,1,1,3.13,6.261,3.13,3.13,0,0,1,0,3.13Z" transform="translate(75.826 66)" fill="#666"/>
      <path id="Oval_Copy_6-31" data-name="Oval Copy 6" d="M0,3.13A3.131,3.131,0,1,1,3.13,6.261,3.13,3.13,0,0,1,0,3.13Z" transform="translate(55.304 77)" fill="#666"/>
      <path id="Oval_Copy_6-32" data-name="Oval Copy 6" d="M0,3.13A3.131,3.131,0,1,1,3.13,6.261,3.13,3.13,0,0,1,0,3.13Z" transform="translate(45.043 77)" fill="#666"/>
      <path id="Oval_Copy_6-33" data-name="Oval Copy 6" d="M0,3.13A3.131,3.131,0,1,1,3.13,6.261,3.13,3.13,0,0,1,0,3.13Z" transform="translate(65.565 77)" fill="#666"/>
      <path id="Oval_Copy_6-34" data-name="Oval Copy 6" d="M0,3.13A3.131,3.131,0,1,1,3.13,6.261,3.13,3.13,0,0,1,0,3.13Z" transform="translate(75.826 77)" fill="#666"/>
      <path id="Oval_Copy_6-35" data-name="Oval Copy 6" d="M0,3.13A3.131,3.131,0,1,1,3.13,6.261,3.13,3.13,0,0,1,0,3.13Z" transform="translate(55.304 88)" fill="#666"/>
      <path id="Oval_Copy_6-36" data-name="Oval Copy 6" d="M0,3.13A3.131,3.131,0,1,1,3.13,6.261,3.13,3.13,0,0,1,0,3.13Z" transform="translate(45.043 88)" fill="#666"/>
      <path id="Oval_Copy_6-37" data-name="Oval Copy 6" d="M0,3.13A3.131,3.131,0,1,1,3.13,6.261,3.13,3.13,0,0,1,0,3.13Z" transform="translate(65.565 88)" fill="#666"/>
      <path id="Oval_Copy_6-38" data-name="Oval Copy 6" d="M0,3.13A3.131,3.131,0,1,1,3.13,6.261,3.13,3.13,0,0,1,0,3.13Z" transform="translate(75.826 88)" fill="#666"/>
      <g id="Group_5_Copy_2" data-name="Group 5 Copy 2" transform="translate(92 55)">
        <path id="Oval" d="M0,7.043a7.043,7.043,0,1,1,7.043,7.043A7.044,7.044,0,0,1,0,7.043Z" transform="translate(10.957 10.957)" fill="#666"/>
        <path id="Oval-2" data-name="Oval" d="M0,3.13A3.131,3.131,0,1,1,3.13,6.261,3.13,3.13,0,0,1,0,3.13Z" transform="translate(29.739 14.87)" fill="#666"/>
        <path id="Oval-3" data-name="Oval" d="M0,3.13A3.131,3.131,0,1,1,3.13,6.261,3.13,3.13,0,0,1,0,3.13Z" transform="translate(25.043 25.826)" fill="#666"/>
        <path id="Oval_Copy" data-name="Oval Copy" d="M0,3.13A3.131,3.131,0,1,1,3.13,6.261,3.13,3.13,0,0,1,0,3.13Z" transform="translate(3.13 24.261)" fill="#666"/>
        <path id="Oval_Copy_5" data-name="Oval Copy 5" d="M0,3.13A3.131,3.131,0,1,1,3.13,6.261,3.13,3.13,0,0,1,0,3.13Z" transform="translate(14.87 0)" fill="#666"/>
        <path id="Oval-4" data-name="Oval" d="M0,3.13A3.131,3.131,0,1,1,3.13,6.261,3.13,3.13,0,0,1,0,3.13Z" transform="translate(14.87 28.957)" fill="#666"/>
        <path id="Oval_Copy_2" data-name="Oval Copy 2" d="M0,3.13A3.131,3.131,0,1,1,3.13,6.261,3.13,3.13,0,0,1,0,3.13Z" transform="translate(0 14.87)" fill="#666"/>
        <path id="Oval_Copy_4" data-name="Oval Copy 4" d="M0,3.13A3.131,3.131,0,1,1,3.13,6.261,3.13,3.13,0,0,1,0,3.13Z" transform="translate(4.696 3.913)" fill="#666"/>
        <path id="Oval_Copy_6-39" data-name="Oval Copy 6" d="M0,3.13A3.131,3.131,0,1,1,3.13,6.261,3.13,3.13,0,0,1,0,3.13Z" transform="translate(25.043 3.913)" fill="#666"/>
      </g>
      <g id="Group_5_Copy_3" data-name="Group 5 Copy 3" transform="translate(0 55)">
        <path id="Oval-5" data-name="Oval" d="M0,7.043a7.043,7.043,0,1,1,7.043,7.043A7.044,7.044,0,0,1,0,7.043Z" transform="translate(10.957 10.957)" fill="#666"/>
        <path id="Oval-6" data-name="Oval" d="M0,3.13A3.131,3.131,0,1,1,3.13,6.261,3.13,3.13,0,0,1,0,3.13Z" transform="translate(29.739 14.87)" fill="#666"/>
        <path id="Oval-7" data-name="Oval" d="M0,3.13A3.131,3.131,0,1,1,3.13,6.261,3.13,3.13,0,0,1,0,3.13Z" transform="translate(25.043 25.826)" fill="#666"/>
        <path id="Oval_Copy-2" data-name="Oval Copy" d="M0,3.13A3.131,3.131,0,1,1,3.13,6.261,3.13,3.13,0,0,1,0,3.13Z" transform="translate(3.13 24.261)" fill="#666"/>
        <path id="Oval_Copy_5-2" data-name="Oval Copy 5" d="M0,3.13A3.131,3.131,0,1,1,3.13,6.261,3.13,3.13,0,0,1,0,3.13Z" transform="translate(14.87 0)" fill="#666"/>
        <path id="Oval-8" data-name="Oval" d="M0,3.13A3.131,3.131,0,1,1,3.13,6.261,3.13,3.13,0,0,1,0,3.13Z" transform="translate(14.87 28.957)" fill="#666"/>
        <path id="Oval_Copy_2-2" data-name="Oval Copy 2" d="M0,3.13A3.131,3.131,0,1,1,3.13,6.261,3.13,3.13,0,0,1,0,3.13Z" transform="translate(0 14.87)" fill="#666"/>
        <path id="Oval_Copy_4-2" data-name="Oval Copy 4" d="M0,3.13A3.131,3.131,0,1,1,3.13,6.261,3.13,3.13,0,0,1,0,3.13Z" transform="translate(4.696 3.913)" fill="#666"/>
        <path id="Oval_Copy_6-40" data-name="Oval Copy 6" d="M0,3.13A3.131,3.131,0,1,1,3.13,6.261,3.13,3.13,0,0,1,0,3.13Z" transform="translate(25.043 3.913)" fill="#666"/>
      </g>
    </g>
  </g>
</svg>
