<?xml version="1.0" encoding="UTF-8"?>
<svg width="71px" height="71px" viewBox="0 0 71 71" version="1.1" xmlns="http://www.w3.org/2000/svg" xmlns:xlink="http://www.w3.org/1999/xlink">
    <title>Combined Shape</title>
    <g id="Marketing-Pages" stroke="none" stroke-width="1" fill="none" fill-rule="evenodd">
        <g id="org-v1.3" transform="translate(-564.000000, -1844.000000)" fill="#A02541">
            <g id="Group-27" transform="translate(28.000000, 1334.000000)">
                <g id="Group-26" transform="translate(0.000000, 509.000000)">
                    <g id="Group-6" transform="translate(412.000000, 1.000000)">
                        <path d="M168.147575,1.16354674 C170.116943,1.16354674 171.87235,2.4052141 172.528641,4.26200947 L172.528641,4.26200947 L170.339851,5.03575382 C170.009555,4.10830167 169.132086,3.48844708 168.147575,3.48710334 L168.147575,3.48710334 L133.294226,3.48710334 C132.010962,3.48710334 130.97067,4.52739507 130.97067,5.81065994 L130.97067,5.81065994 L130.97067,66.2231316 C130.97067,67.5063965 132.010962,68.5466882 133.294226,68.5466882 L133.294226,68.5466882 L168.147575,68.5466882 C169.43084,68.5466882 170.471132,67.5063965 170.471132,66.2231316 L170.471132,66.2231316 L170.471132,59.2524618 L172.794689,59.2524618 L172.794689,66.2231316 C172.794689,68.7896613 170.714105,70.8702448 168.147575,70.8702448 L168.147575,70.8702448 L133.294226,70.8702448 C130.727697,70.8702448 128.647113,68.7896613 128.647113,66.2231316 L128.647113,66.2231316 L128.647113,5.81065994 C128.647113,3.24413019 130.727697,1.16354674 133.294226,1.16354674 L133.294226,1.16354674 Z M151.882679,63.899575 L151.882679,66.2231316 L149.559123,66.2231316 L149.559123,63.899575 L151.882679,63.899575 Z M182.157514,0.00244764176 C183.89456,-0.0623434338 185.412429,1.16597105 185.71134,2.87833151 L185.71134,2.87833151 L189.746196,25.765364 C190.080164,27.6610668 188.81413,29.468573 186.918427,29.8025436 L186.918427,29.8025436 C185.383119,30.081287 183.854967,29.293423 183.186796,27.8844477 L183.186796,27.8844477 L166.315451,26.687816 L168.074383,36.6756241 L172.650628,35.8623792 C173.560984,35.7016382 174.497906,35.9091459 175.255256,36.4392468 C176.012605,36.9693477 176.528333,37.7786119 176.688969,38.6889859 C176.753945,39.0804245 176.750801,39.4801464 176.679675,39.8705144 L176.679675,39.8705144 L176.889957,39.8333375 C178.11688,39.6158882 179.366556,40.0699767 180.16768,41.0243473 C180.968805,41.9787178 181.199494,43.2881715 180.772745,44.4588589 C180.345996,45.6295463 179.326735,46.4833577 178.099368,46.6982855 L178.099368,46.6982855 L176.744735,46.9376118 C177.317337,47.9160981 177.37218,49.1135849 176.891416,50.1403145 C176.410651,51.167044 175.455756,51.8917222 174.33753,52.0784808 L174.33753,52.0784808 L174.124925,52.1156577 C174.698526,53.0956509 174.753058,54.2951759 174.270742,55.3231724 C173.788427,56.3511689 172.831057,57.0759298 171.710749,57.2611738 L171.710749,57.2611738 L164.244,58.5774686 C160.793302,59.182315 157.250604,59.0008316 153.879776,58.0465359 L153.879776,58.0465359 L150.712768,58.6041895 L150.914918,59.7485411 C151.026065,60.3797974 150.60497,60.981807 149.973877,61.0938804 L149.973877,61.0938804 L141.957607,62.505441 L142.361906,64.7894972 L140.074365,65.1926342 L135.636371,40.0215456 L137.922751,39.6184085 L138.331697,41.9094353 L146.340997,40.4978747 C146.972634,40.3867742 147.57482,40.8085124 147.686336,41.4400769 L147.686336,41.4400769 L147.888485,42.5844285 L149.483607,42.3032781 C150.248862,42.1680868 150.895872,41.6592858 151.207686,40.9474829 L151.207686,40.9474829 L152.741233,37.4528537 C153.572813,35.554403 155.299344,34.1981227 157.340714,33.8397232 C157.601641,33.7952704 157.865114,33.7673322 158.129561,33.7560752 L158.129561,33.7560752 L157.110682,27.9808753 C154.219571,28.5576949 151.242687,27.5247096 149.330286,25.28106 C147.417884,23.0374104 146.869475,19.9344861 147.896961,17.1712423 C148.924447,14.4079985 151.366908,12.4172012 154.28059,11.9680849 L154.28059,11.9680849 L162.148152,10.573951 L178.827803,3.13508452 C178.99832,1.4052146 180.420468,0.0672387173 182.157514,0.00244764176 Z M126.323557,58.0906835 L126.323557,60.4142401 L124,60.4142401 L124,58.0906835 L126.323557,58.0906835 Z M145.595135,42.9875656 L138.730187,44.1969768 L141.55447,60.215576 L148.42058,59.005003 L145.595135,42.9875656 Z M145.338906,54.8402694 L145.743205,57.1289727 L143.455646,57.5330694 L143.051347,55.2443661 L145.338906,54.8402694 Z M161.525439,37.629444 C160.702541,36.5198904 159.351272,35.9322062 157.978554,36.0868584 C156.605837,36.2415106 155.419199,37.1151186 154.863802,38.3799528 L154.863802,38.3799528 L153.330255,41.8757437 C152.705794,43.2987555 151.411377,44.3154549 149.880935,44.5850107 L149.880935,44.5850107 L148.285814,44.8661611 L150.302661,56.3085156 L153.735716,55.7032291 C153.913378,55.671358 154.096045,55.6817052 154.268972,55.7334353 C157.371897,56.6515886 160.645197,56.8392706 163.832731,56.2817947 L163.832731,56.2817947 L171.300642,54.9643381 C171.716882,54.9001786 172.065805,54.615779 172.212589,54.2210299 C172.359372,53.8262808 172.281028,53.3830059 172.007828,53.0624845 C171.734628,52.7419631 171.309359,52.5943938 170.896343,52.6767966 L170.896343,52.6767966 L165.176908,53.6852202 L164.773771,51.3976787 L170.494368,50.3880933 L170.501338,50.3880933 L173.927422,49.7839686 C174.342138,49.7179643 174.688956,49.4332968 174.834543,49.0394055 C174.980129,48.6455142 174.901822,48.2037157 174.629725,47.8838577 C174.357628,47.5639996 173.934099,47.415874 173.521962,47.4964272 L173.521962,47.4964272 L165.513824,48.9079878 L165.110687,46.6204463 L173.118825,45.2077239 L177.692746,44.4014498 C178.324754,44.2898057 178.746592,43.6869567 178.634948,43.0549487 C178.523304,42.4229408 177.920455,42.0011025 177.288447,42.1127465 L177.288447,42.1127465 L165.847254,44.1284319 L165.444117,41.8420522 L173.460388,40.4293297 C174.085603,40.3106915 174.499019,39.7111448 174.387646,39.0845943 C174.276274,38.4580439 173.681566,38.0376963 173.053765,38.1417883 L173.053765,38.1417883 L159.319222,40.5606107 L158.916085,38.2730692 L161.641617,37.792093 Z M126.323557,23.2373345 L126.323557,55.7671269 L124,55.7671269 L124,23.2373345 L126.323557,23.2373345 Z M163.970982,26.7598463 L159.394738,27.5730911 L160.549545,34.1243589 C161.684352,34.538054 162.672813,35.2756635 163.392417,36.2457661 L163.392417,36.2457661 L164.205662,37.3424848 L165.788004,37.0578491 L163.970982,26.7598463 Z M172.794689,29.046226 L172.794689,33.6933392 L170.471132,33.6933392 L170.471132,29.046226 L172.794689,29.046226 Z M182.278285,2.32532436 C182.210473,2.32532436 182.142802,2.33150076 182.076135,2.3439135 C181.444978,2.45652631 181.02435,3.05913176 181.136257,3.69041455 L181.136257,3.69041455 L185.168789,26.5716382 C185.282676,27.2037335 185.884429,27.6261531 186.517614,27.5184875 C187.148706,27.4064141 187.569801,26.8044045 187.458654,26.1731482 L187.458654,26.1731482 L183.423798,3.2861157 C183.326129,2.73006281 182.84285,2.3247164 182.278285,2.32532436 Z M161.550998,13.0415681 L154.687212,14.2521411 C151.529978,14.8126568 149.421775,17.8224451 149.973877,20.981161 L149.973877,20.981161 C150.537704,24.1387638 153.549848,26.2446678 156.709868,25.692172 L156.709868,25.692172 L157.853058,25.4911844 L158.458344,25.3843008 L163.570169,24.481599 L161.550998,13.0415681 Z M179.105468,5.55739228 L163.79323,12.3874869 L165.899534,24.3294061 L182.623333,25.5097728 L179.105468,5.55739228 Z M189.948345,0.777836346 C190.096045,1.19941855 190.209493,1.63222949 190.287585,2.07205737 L190.287585,2.07205737 L194.188836,24.1969633 L191.901295,24.602424 L188.000043,2.47867978 C187.944167,2.16274469 187.862571,1.85190307 187.75607,1.54925714 L187.75607,1.54925714 Z M149.559123,5.81065994 L149.559123,8.13421655 L147.235566,8.13421655 L147.235566,5.81065994 L149.559123,5.81065994 Z M154.206236,5.81065994 L154.206236,8.13421655 L151.882679,8.13421655 L151.882679,5.81065994 L154.206236,5.81065994 Z" id="Combined-Shape"></path>
                    </g>
                </g>
            </g>
        </g>
    </g>
</svg>