<svg xmlns="http://www.w3.org/2000/svg" width="109" height="94.912" viewBox="0 0 109 94.912">
  <g id="reward" transform="translate(0 -0.088)">
    <g id="Group" transform="translate(71)">
      <path id="Path" d="M1.083,5.14l.579.2L1.3,5.858a1.653,1.653,0,0,0,.357,2.261,1.533,1.533,0,0,0,.917.306,1.555,1.555,0,0,0,1.277-.674l.343-.492.343.492a1.555,1.555,0,0,0,1.277.674,1.532,1.532,0,0,0,.917-.306,1.653,1.653,0,0,0,.357-2.261L6.72,5.336l.579-.2A1.632,1.632,0,0,0,8.3,3.1,1.562,1.562,0,0,0,6.32,2.061l-.558.189V1.62A1.6,1.6,0,0,0,4.19,0,1.6,1.6,0,0,0,2.619,1.62v.629l-.558-.189A1.563,1.563,0,0,0,.078,3.1,1.633,1.633,0,0,0,1.083,5.14Z" transform="translate(0.026 0.088)" fill="#ffb545"/>
      <path id="Path-2" data-name="Path" d="M7.085,5.858l-.364-.522.579-.2A1.632,1.632,0,0,0,8.3,3.1,1.562,1.562,0,0,0,6.32,2.061l-.558.188V1.62A1.6,1.6,0,0,0,4.191,0,1.6,1.6,0,0,0,2.62,1.62v.629l-.558-.188A1.563,1.563,0,0,0,.079,3.1a1.632,1.632,0,0,0,1,2.044l.579.2L1.3,5.858a1.653,1.653,0,0,0,.357,2.261,1.541,1.541,0,0,0,2.194-.368l.343-.492c.33.473.692,1.165,1.62,1.165A1.626,1.626,0,0,0,7.085,5.858Z" transform="translate(15.567 17.477)" fill="#ffb545"/>
    </g>
    <g id="Group-2" data-name="Group" transform="translate(72 8)">
      <ellipse id="Oval" cx="1.675" cy="1.659" rx="1.675" ry="1.659" transform="translate(0.101 7.629)" fill="#ff983b"/>
      <ellipse id="Oval-2" data-name="Oval" cx="1.675" cy="1.659" rx="1.675" ry="1.659" transform="translate(26.902 34.481)" fill="#ff983b"/>
      <ellipse id="Oval-3" data-name="Oval" cx="1.675" cy="1.659" rx="1.675" ry="1.659" transform="translate(9.483 21.783)" fill="#ff983b"/>
      <ellipse id="Oval-4" data-name="Oval" cx="1.675" cy="1.659" rx="1.675" ry="1.659" transform="translate(27.572 0.108)" fill="#ff983b"/>
    </g>
    <g id="Group-3" data-name="Group" transform="translate(51 16)">
      <path id="Path-3" data-name="Path" d="M16.4,5.036,12.27,4.463,10.422.891a1.712,1.712,0,0,0-3.005,0L5.569,4.463l-4.132.573A1.58,1.58,0,0,0,.508,7.763L3.5,10.543,2.792,14.47a1.66,1.66,0,0,0,2.431,1.685L8.14,14.692a1.747,1.747,0,0,1,1.559,0l2.916,1.463a1.66,1.66,0,0,0,2.431-1.685l-.706-3.926,2.99-2.781A1.58,1.58,0,0,0,16.4,5.036Z" transform="translate(0.152 0.075)" fill="#ffcf5d"/>
      <path id="Path-4" data-name="Path" d="M20.542,6.308,15.367,5.59,13.053,1.116a2.144,2.144,0,0,0-3.764,0L6.974,5.59,1.8,6.308A1.979,1.979,0,0,0,.636,9.723l3.745,3.482L3.5,18.122a2.08,2.08,0,0,0,3.045,2.111L10.194,18.4a2.19,2.19,0,0,1,1.953,0L15.8,20.233a2.08,2.08,0,0,0,3.045-2.111l-.884-4.917,3.745-3.482A1.979,1.979,0,0,0,20.542,6.308Z" transform="translate(13.522 21.459)" fill="#ffcf5d"/>
    </g>
    <path id="Path-5" data-name="Path" d="M58.714,43H3.286A3.256,3.256,0,0,1,0,39.775V0H62V39.775A3.256,3.256,0,0,1,58.714,43Z" transform="translate(47 52)" fill="#5b4ddd"/>
    <path id="Path-6" data-name="Path" d="M55.427,38.162H0v1.612A3.256,3.256,0,0,0,3.286,43H58.714A3.256,3.256,0,0,0,62,39.775V0H57.071V36.55A1.628,1.628,0,0,1,55.427,38.162Z" transform="translate(47 52)" fill="#3b2ae0"/>
    <path id="Path-7" data-name="Path" d="M24.251,3.164,19.81,19.36,3.238,23.7a4.231,4.231,0,0,0-1.957,7.137L13.728,43,44,13.416,31.553,1.252A4.4,4.4,0,0,0,24.251,3.164Z" transform="translate(0 38)" fill="#ff5368"/>
    <g id="Group-4" data-name="Group" transform="translate(7 44)">
      <path id="Path-8" data-name="Path" d="M22.73.055a1.613,1.613,0,0,0-1.975,1.13L16.622,16.479,1.2,20.577a1.6,1.6,0,0,0-1.14,1.958,1.614,1.614,0,0,0,1.975,1.13l16.326-4.337h0c.051-.014.1-.032.148-.05.018-.007.038-.012.055-.019s.043-.022.065-.032a1.6,1.6,0,0,0,.449-.31h0a1.59,1.59,0,0,0,.313-.445c.01-.022.023-.042.032-.065s.013-.037.019-.055c.019-.048.037-.1.051-.147v0L23.871,2.012A1.6,1.6,0,0,0,22.73.055Z" transform="translate(0.068 0.13)" fill="#d9435b"/>
      <ellipse id="Oval-5" data-name="Oval" cx="6.45" cy="6.394" rx="6.45" ry="6.394" transform="translate(9.124 9.108)" fill="#d9435b"/>
    </g>
    <path id="Path-9" data-name="Path" d="M44.843.483.483,44.843a1.651,1.651,0,0,0,0,2.335l9.339,9.339a1.651,1.651,0,0,0,2.335,0l44.36-44.36a1.651,1.651,0,0,0,0-2.335L47.178.483A1.651,1.651,0,0,0,44.843.483Z" transform="translate(1 38)" fill="#5b4ddd"/>
    <path id="Path-10" data-name="Path" d="M36.969.483,34.658,2.818l6.932,7a1.663,1.663,0,0,1,0,2.335L0,54.182l2.311,2.335a1.622,1.622,0,0,0,2.311,0l43.9-44.359a1.663,1.663,0,0,0,0-2.335L39.28.484A1.622,1.622,0,0,0,36.969.483Z" transform="translate(8 38)" fill="#3b2ae0"/>
  </g>
</svg>
