<svg xmlns="http://www.w3.org/2000/svg" width="151" height="151" viewBox="0 0 151 151">
  <g id="Group_11" data-name="Group 11" transform="translate(0.5 0.5)">
    <rect id="Rectangle_Copy_3" data-name="Rectangle Copy 3" width="150" height="150" rx="2" fill="none" stroke="#cbcbcb" stroke-miterlimit="10" stroke-width="1"/>
    <path id="Rectangle" d="M2,12.706a2,2,0,0,1-2-2V2A2,2,0,0,1,2,0H102a2,2,0,0,1,2,2v8.706a2,2,0,0,1-2,2Z" transform="translate(23 31)" fill="#666"/>
    <g id="Group_7" data-name="Group 7" transform="translate(15 95)">
      <path id="Oval_Copy_6" data-name="Oval Copy 6" d="M0,3.13A3.131,3.131,0,1,1,3.13,6.261,3.13,3.13,0,0,1,0,3.13Z" transform="translate(5.13 0)" fill="#666"/>
      <path id="Oval_Copy_6-2" data-name="Oval Copy 6" d="M0,3.13A3.131,3.131,0,1,1,3.13,6.261,3.13,3.13,0,0,1,0,3.13Z" transform="translate(46.174 0)" fill="#666"/>
      <path id="Oval_Copy_6-3" data-name="Oval Copy 6" d="M0,3.13A3.131,3.131,0,1,1,3.13,6.261,3.13,3.13,0,0,1,0,3.13Z" transform="translate(15.391 0)" fill="#666"/>
      <path id="Oval_Copy_6-4" data-name="Oval Copy 6" d="M0,3.13A3.131,3.131,0,1,1,3.13,6.261,3.13,3.13,0,0,1,0,3.13Z" transform="translate(35.913 0)" fill="#666"/>
      <path id="Oval_Copy_6-5" data-name="Oval Copy 6" d="M0,3.13A3.131,3.131,0,1,1,3.13,6.261,3.13,3.13,0,0,1,0,3.13Z" transform="translate(56.435 0)" fill="#666"/>
      <path id="Oval_Copy_6-6" data-name="Oval Copy 6" d="M0,3.13A3.131,3.131,0,1,1,3.13,6.261,3.13,3.13,0,0,1,0,3.13Z" transform="translate(25.652 0)" fill="#666"/>
      <path id="Oval_Copy_6-7" data-name="Oval Copy 6" d="M0,3.13A3.131,3.131,0,1,1,3.13,6.261,3.13,3.13,0,0,1,0,3.13Z" transform="translate(66.696 0)" fill="#666"/>
      <path id="Oval_Copy_6-8" data-name="Oval Copy 6" d="M0,3.13A3.131,3.131,0,1,1,3.13,6.261,3.13,3.13,0,0,1,0,3.13Z" transform="translate(76.957 0)" fill="#666"/>
      <path id="Oval_Copy_6-9" data-name="Oval Copy 6" d="M0,3.13A3.131,3.131,0,1,1,3.13,6.261,3.13,3.13,0,0,1,0,3.13Z" transform="translate(97.478 0)" fill="#666"/>
      <path id="Oval_Copy_6-10" data-name="Oval Copy 6" d="M0,3.13A3.131,3.131,0,1,1,3.13,6.261,3.13,3.13,0,0,1,0,3.13Z" transform="translate(87.217 0)" fill="#666"/>
      <path id="Oval_Copy_6-11" data-name="Oval Copy 6" d="M0,3.13A3.131,3.131,0,1,1,3.13,6.261,3.13,3.13,0,0,1,0,3.13Z" transform="translate(10.261 9)" fill="#666"/>
      <path id="Oval_Copy_6-12" data-name="Oval Copy 6" d="M0,3.13A3.131,3.131,0,1,1,3.13,6.261,3.13,3.13,0,0,1,0,3.13Z" transform="translate(0 9)" fill="#666"/>
      <path id="Oval_Copy_6-13" data-name="Oval Copy 6" d="M0,3.13A3.131,3.131,0,1,1,3.13,6.261,3.13,3.13,0,0,1,0,3.13Z" transform="translate(51.304 9)" fill="#666"/>
      <path id="Oval_Copy_6-14" data-name="Oval Copy 6" d="M0,3.13A3.131,3.131,0,1,1,3.13,6.261,3.13,3.13,0,0,1,0,3.13Z" transform="translate(20.522 9)" fill="#666"/>
      <path id="Oval_Copy_6-15" data-name="Oval Copy 6" d="M0,3.13A3.131,3.131,0,1,1,3.13,6.261,3.13,3.13,0,0,1,0,3.13Z" transform="translate(41.043 9)" fill="#666"/>
      <path id="Oval_Copy_6-16" data-name="Oval Copy 6" d="M0,3.13A3.131,3.131,0,1,1,3.13,6.261,3.13,3.13,0,0,1,0,3.13Z" transform="translate(61.565 9)" fill="#666"/>
      <path id="Oval_Copy_6-17" data-name="Oval Copy 6" d="M0,3.13A3.131,3.131,0,1,1,3.13,6.261,3.13,3.13,0,0,1,0,3.13Z" transform="translate(30.783 9)" fill="#666"/>
      <path id="Oval_Copy_6-18" data-name="Oval Copy 6" d="M0,3.13A3.131,3.131,0,1,1,3.13,6.261,3.13,3.13,0,0,1,0,3.13Z" transform="translate(71.826 9)" fill="#666"/>
      <path id="Oval_Copy_6-19" data-name="Oval Copy 6" d="M0,3.13A3.131,3.131,0,1,1,3.13,6.261,3.13,3.13,0,0,1,0,3.13Z" transform="translate(82.087 9)" fill="#666"/>
      <path id="Oval_Copy_6-20" data-name="Oval Copy 6" d="M0,3.13A3.131,3.131,0,1,1,3.13,6.261,3.13,3.13,0,0,1,0,3.13Z" transform="translate(102.609 9)" fill="#666"/>
      <path id="Oval_Copy_6-21" data-name="Oval Copy 6" d="M0,3.13A3.131,3.131,0,1,1,3.13,6.261,3.13,3.13,0,0,1,0,3.13Z" transform="translate(107.739 0)" fill="#666"/>
      <path id="Oval_Copy_6-22" data-name="Oval Copy 6" d="M0,3.13A3.131,3.131,0,1,1,3.13,6.261,3.13,3.13,0,0,1,0,3.13Z" transform="translate(5.13 18)" fill="#666"/>
      <path id="Oval_Copy_6-23" data-name="Oval Copy 6" d="M0,3.13A3.131,3.131,0,1,1,3.13,6.261,3.13,3.13,0,0,1,0,3.13Z" transform="translate(46.174 18)" fill="#666"/>
      <path id="Oval_Copy_6-24" data-name="Oval Copy 6" d="M0,3.13A3.131,3.131,0,1,1,3.13,6.261,3.13,3.13,0,0,1,0,3.13Z" transform="translate(15.391 18)" fill="#666"/>
      <path id="Oval_Copy_6-25" data-name="Oval Copy 6" d="M0,3.13A3.131,3.131,0,1,1,3.13,6.261,3.13,3.13,0,0,1,0,3.13Z" transform="translate(35.913 18)" fill="#666"/>
      <path id="Oval_Copy_6-26" data-name="Oval Copy 6" d="M0,3.13A3.131,3.131,0,1,1,3.13,6.261,3.13,3.13,0,0,1,0,3.13Z" transform="translate(56.435 18)" fill="#666"/>
      <path id="Oval_Copy_6-27" data-name="Oval Copy 6" d="M0,3.13A3.131,3.131,0,1,1,3.13,6.261,3.13,3.13,0,0,1,0,3.13Z" transform="translate(25.652 18)" fill="#666"/>
      <path id="Oval_Copy_6-28" data-name="Oval Copy 6" d="M0,3.13A3.131,3.131,0,1,1,3.13,6.261,3.13,3.13,0,0,1,0,3.13Z" transform="translate(66.696 18)" fill="#666"/>
      <path id="Oval_Copy_6-29" data-name="Oval Copy 6" d="M0,3.13A3.131,3.131,0,1,1,3.13,6.261,3.13,3.13,0,0,1,0,3.13Z" transform="translate(76.957 18)" fill="#666"/>
      <path id="Oval_Copy_6-30" data-name="Oval Copy 6" d="M0,3.13A3.131,3.131,0,1,1,3.13,6.261,3.13,3.13,0,0,1,0,3.13Z" transform="translate(97.478 18)" fill="#666"/>
      <path id="Oval_Copy_6-31" data-name="Oval Copy 6" d="M0,3.13A3.131,3.131,0,1,1,3.13,6.261,3.13,3.13,0,0,1,0,3.13Z" transform="translate(87.217 18)" fill="#666"/>
      <path id="Oval_Copy_6-32" data-name="Oval Copy 6" d="M0,3.13A3.131,3.131,0,1,1,3.13,6.261,3.13,3.13,0,0,1,0,3.13Z" transform="translate(107.739 18)" fill="#666"/>
      <path id="Oval_Copy_6-33" data-name="Oval Copy 6" d="M0,3.13A3.131,3.131,0,1,1,3.13,6.261,3.13,3.13,0,0,1,0,3.13Z" transform="translate(112.87 9)" fill="#666"/>
      <path id="Oval_Copy_6-34" data-name="Oval Copy 6" d="M0,3.13A3.131,3.131,0,1,1,3.13,6.261,3.13,3.13,0,0,1,0,3.13Z" transform="translate(92.348 9)" fill="#666"/>
    </g>
    <path id="Oval_Copy_6-35" data-name="Oval Copy 6" d="M0,3.13A3.131,3.131,0,1,1,3.13,6.261,3.13,3.13,0,0,1,0,3.13Z" transform="translate(23 54.913)" fill="#666"/>
    <path id="Oval_Copy_6-36" data-name="Oval Copy 6" d="M0,3.13A3.131,3.131,0,1,1,3.13,6.261,3.13,3.13,0,0,1,0,3.13Z" transform="translate(33 54.913)" fill="#666"/>
    <path id="Oval_Copy_6-37" data-name="Oval Copy 6" d="M0,3.13A3.131,3.131,0,1,1,3.13,6.261,3.13,3.13,0,0,1,0,3.13Z" transform="translate(53 54.913)" fill="#666"/>
    <path id="Oval_Copy_6-38" data-name="Oval Copy 6" d="M0,3.13A3.131,3.131,0,1,1,3.13,6.261,3.13,3.13,0,0,1,0,3.13Z" transform="translate(43 54.913)" fill="#666"/>
    <path id="Oval_Copy_6-39" data-name="Oval Copy 6" d="M0,3.13A3.131,3.131,0,1,1,3.13,6.261,3.13,3.13,0,0,1,0,3.13Z" transform="translate(23 54.913)" fill="#666"/>
    <path id="Oval_Copy_6-40" data-name="Oval Copy 6" d="M0,3.13A3.131,3.131,0,1,1,3.13,6.261,3.13,3.13,0,0,1,0,3.13Z" transform="translate(33 54.913)" fill="#666"/>
    <path id="Oval_Copy_6-41" data-name="Oval Copy 6" d="M0,3.13A3.131,3.131,0,1,1,3.13,6.261,3.13,3.13,0,0,1,0,3.13Z" transform="translate(53 54.913)" fill="#666"/>
    <path id="Oval_Copy_6-42" data-name="Oval Copy 6" d="M0,3.13A3.131,3.131,0,1,1,3.13,6.261,3.13,3.13,0,0,1,0,3.13Z" transform="translate(43 54.913)" fill="#666"/>
    <path id="Oval_Copy_6-43" data-name="Oval Copy 6" d="M0,3.13A3.131,3.131,0,1,1,3.13,6.261,3.13,3.13,0,0,1,0,3.13Z" transform="translate(23 62.913)" fill="#666"/>
    <path id="Oval_Copy_6-44" data-name="Oval Copy 6" d="M0,3.13A3.131,3.131,0,1,1,3.13,6.261,3.13,3.13,0,0,1,0,3.13Z" transform="translate(33 62.913)" fill="#666"/>
    <path id="Oval_Copy_6-45" data-name="Oval Copy 6" d="M0,3.13A3.131,3.131,0,1,1,3.13,6.261,3.13,3.13,0,0,1,0,3.13Z" transform="translate(53 62.913)" fill="#666"/>
    <path id="Oval_Copy_6-46" data-name="Oval Copy 6" d="M0,3.13A3.131,3.131,0,1,1,3.13,6.261,3.13,3.13,0,0,1,0,3.13Z" transform="translate(43 62.913)" fill="#666"/>
    <path id="Oval_Copy_6-47" data-name="Oval Copy 6" d="M0,3.13A3.131,3.131,0,1,1,3.13,6.261,3.13,3.13,0,0,1,0,3.13Z" transform="translate(23 62.913)" fill="#666"/>
    <path id="Oval_Copy_6-48" data-name="Oval Copy 6" d="M0,3.13A3.131,3.131,0,1,1,3.13,6.261,3.13,3.13,0,0,1,0,3.13Z" transform="translate(33 62.913)" fill="#666"/>
    <path id="Oval_Copy_6-49" data-name="Oval Copy 6" d="M0,3.13A3.131,3.131,0,1,1,3.13,6.261,3.13,3.13,0,0,1,0,3.13Z" transform="translate(53 62.913)" fill="#666"/>
    <path id="Oval_Copy_6-50" data-name="Oval Copy 6" d="M0,3.13A3.131,3.131,0,1,1,3.13,6.261,3.13,3.13,0,0,1,0,3.13Z" transform="translate(43 62.913)" fill="#666"/>
    <path id="Oval_Copy_6-51" data-name="Oval Copy 6" d="M0,3.13A3.131,3.131,0,1,1,3.13,6.261,3.13,3.13,0,0,1,0,3.13Z" transform="translate(23 70.913)" fill="#666"/>
    <path id="Oval_Copy_6-52" data-name="Oval Copy 6" d="M0,3.13A3.131,3.131,0,1,1,3.13,6.261,3.13,3.13,0,0,1,0,3.13Z" transform="translate(33 70.913)" fill="#666"/>
    <path id="Oval_Copy_6-53" data-name="Oval Copy 6" d="M0,3.13A3.131,3.131,0,1,1,3.13,6.261,3.13,3.13,0,0,1,0,3.13Z" transform="translate(53 70.913)" fill="#666"/>
    <path id="Oval_Copy_6-54" data-name="Oval Copy 6" d="M0,3.13A3.131,3.131,0,1,1,3.13,6.261,3.13,3.13,0,0,1,0,3.13Z" transform="translate(43 70.913)" fill="#666"/>
    <path id="Oval_Copy_6-55" data-name="Oval Copy 6" d="M0,3.13A3.131,3.131,0,1,1,3.13,6.261,3.13,3.13,0,0,1,0,3.13Z" transform="translate(23 70.913)" fill="#666"/>
    <path id="Oval_Copy_6-56" data-name="Oval Copy 6" d="M0,3.13A3.131,3.131,0,1,1,3.13,6.261,3.13,3.13,0,0,1,0,3.13Z" transform="translate(33 70.913)" fill="#666"/>
    <path id="Oval_Copy_6-57" data-name="Oval Copy 6" d="M0,3.13A3.131,3.131,0,1,1,3.13,6.261,3.13,3.13,0,0,1,0,3.13Z" transform="translate(53 70.913)" fill="#666"/>
    <path id="Oval_Copy_6-58" data-name="Oval Copy 6" d="M0,3.13A3.131,3.131,0,1,1,3.13,6.261,3.13,3.13,0,0,1,0,3.13Z" transform="translate(43 70.913)" fill="#666"/>
    <path id="Oval_Copy_6-59" data-name="Oval Copy 6" d="M0,3.13A3.131,3.131,0,1,1,3.13,6.261,3.13,3.13,0,0,1,0,3.13Z" transform="translate(23 78.913)" fill="#666"/>
    <path id="Oval_Copy_6-60" data-name="Oval Copy 6" d="M0,3.13A3.131,3.131,0,1,1,3.13,6.261,3.13,3.13,0,0,1,0,3.13Z" transform="translate(33 78.913)" fill="#666"/>
    <path id="Oval_Copy_6-61" data-name="Oval Copy 6" d="M0,3.13A3.131,3.131,0,1,1,3.13,6.261,3.13,3.13,0,0,1,0,3.13Z" transform="translate(53 78.913)" fill="#666"/>
    <path id="Oval_Copy_6-62" data-name="Oval Copy 6" d="M0,3.13A3.131,3.131,0,1,1,3.13,6.261,3.13,3.13,0,0,1,0,3.13Z" transform="translate(43 78.913)" fill="#666"/>
    <path id="Oval_Copy_6-63" data-name="Oval Copy 6" d="M0,3.13A3.131,3.131,0,1,1,3.13,6.261,3.13,3.13,0,0,1,0,3.13Z" transform="translate(23 78.913)" fill="#666"/>
    <path id="Oval_Copy_6-64" data-name="Oval Copy 6" d="M0,3.13A3.131,3.131,0,1,1,3.13,6.261,3.13,3.13,0,0,1,0,3.13Z" transform="translate(33 78.913)" fill="#666"/>
    <path id="Oval_Copy_6-65" data-name="Oval Copy 6" d="M0,3.13A3.131,3.131,0,1,1,3.13,6.261,3.13,3.13,0,0,1,0,3.13Z" transform="translate(53 78.913)" fill="#666"/>
    <path id="Oval_Copy_6-66" data-name="Oval Copy 6" d="M0,3.13A3.131,3.131,0,1,1,3.13,6.261,3.13,3.13,0,0,1,0,3.13Z" transform="translate(43 78.913)" fill="#666"/>
    <g id="Group_7-2" data-name="Group 7" transform="translate(15 95)">
      <path id="Oval_Copy_6-67" data-name="Oval Copy 6" d="M0,3.13A3.131,3.131,0,1,1,3.13,6.261,3.13,3.13,0,0,1,0,3.13Z" transform="translate(5.13 0)" fill="#666"/>
      <path id="Oval_Copy_6-68" data-name="Oval Copy 6" d="M0,3.13A3.131,3.131,0,1,1,3.13,6.261,3.13,3.13,0,0,1,0,3.13Z" transform="translate(46.174 0)" fill="#666"/>
      <path id="Oval_Copy_6-69" data-name="Oval Copy 6" d="M0,3.13A3.131,3.131,0,1,1,3.13,6.261,3.13,3.13,0,0,1,0,3.13Z" transform="translate(15.391 0)" fill="#666"/>
      <path id="Oval_Copy_6-70" data-name="Oval Copy 6" d="M0,3.13A3.131,3.131,0,1,1,3.13,6.261,3.13,3.13,0,0,1,0,3.13Z" transform="translate(35.913 0)" fill="#666"/>
      <path id="Oval_Copy_6-71" data-name="Oval Copy 6" d="M0,3.13A3.131,3.131,0,1,1,3.13,6.261,3.13,3.13,0,0,1,0,3.13Z" transform="translate(56.435 0)" fill="#666"/>
      <path id="Oval_Copy_6-72" data-name="Oval Copy 6" d="M0,3.13A3.131,3.131,0,1,1,3.13,6.261,3.13,3.13,0,0,1,0,3.13Z" transform="translate(25.652 0)" fill="#666"/>
      <path id="Oval_Copy_6-73" data-name="Oval Copy 6" d="M0,3.13A3.131,3.131,0,1,1,3.13,6.261,3.13,3.13,0,0,1,0,3.13Z" transform="translate(66.696 0)" fill="#666"/>
      <path id="Oval_Copy_6-74" data-name="Oval Copy 6" d="M0,3.13A3.131,3.131,0,1,1,3.13,6.261,3.13,3.13,0,0,1,0,3.13Z" transform="translate(76.957 0)" fill="#666"/>
      <path id="Oval_Copy_6-75" data-name="Oval Copy 6" d="M0,3.13A3.131,3.131,0,1,1,3.13,6.261,3.13,3.13,0,0,1,0,3.13Z" transform="translate(97.478 0)" fill="#666"/>
      <path id="Oval_Copy_6-76" data-name="Oval Copy 6" d="M0,3.13A3.131,3.131,0,1,1,3.13,6.261,3.13,3.13,0,0,1,0,3.13Z" transform="translate(87.217 0)" fill="#666"/>
      <path id="Oval_Copy_6-77" data-name="Oval Copy 6" d="M0,3.13A3.131,3.131,0,1,1,3.13,6.261,3.13,3.13,0,0,1,0,3.13Z" transform="translate(10.261 9)" fill="#666"/>
      <path id="Oval_Copy_6-78" data-name="Oval Copy 6" d="M0,3.13A3.131,3.131,0,1,1,3.13,6.261,3.13,3.13,0,0,1,0,3.13Z" transform="translate(0 9)" fill="#666"/>
      <path id="Oval_Copy_6-79" data-name="Oval Copy 6" d="M0,3.13A3.131,3.131,0,1,1,3.13,6.261,3.13,3.13,0,0,1,0,3.13Z" transform="translate(51.304 9)" fill="#666"/>
      <path id="Oval_Copy_6-80" data-name="Oval Copy 6" d="M0,3.13A3.131,3.131,0,1,1,3.13,6.261,3.13,3.13,0,0,1,0,3.13Z" transform="translate(20.522 9)" fill="#666"/>
      <path id="Oval_Copy_6-81" data-name="Oval Copy 6" d="M0,3.13A3.131,3.131,0,1,1,3.13,6.261,3.13,3.13,0,0,1,0,3.13Z" transform="translate(41.043 9)" fill="#666"/>
      <path id="Oval_Copy_6-82" data-name="Oval Copy 6" d="M0,3.13A3.131,3.131,0,1,1,3.13,6.261,3.13,3.13,0,0,1,0,3.13Z" transform="translate(61.565 9)" fill="#666"/>
      <path id="Oval_Copy_6-83" data-name="Oval Copy 6" d="M0,3.13A3.131,3.131,0,1,1,3.13,6.261,3.13,3.13,0,0,1,0,3.13Z" transform="translate(30.783 9)" fill="#666"/>
      <path id="Oval_Copy_6-84" data-name="Oval Copy 6" d="M0,3.13A3.131,3.131,0,1,1,3.13,6.261,3.13,3.13,0,0,1,0,3.13Z" transform="translate(71.826 9)" fill="#666"/>
      <path id="Oval_Copy_6-85" data-name="Oval Copy 6" d="M0,3.13A3.131,3.131,0,1,1,3.13,6.261,3.13,3.13,0,0,1,0,3.13Z" transform="translate(82.087 9)" fill="#666"/>
      <path id="Oval_Copy_6-86" data-name="Oval Copy 6" d="M0,3.13A3.131,3.131,0,1,1,3.13,6.261,3.13,3.13,0,0,1,0,3.13Z" transform="translate(102.609 9)" fill="#666"/>
      <path id="Oval_Copy_6-87" data-name="Oval Copy 6" d="M0,3.13A3.131,3.131,0,1,1,3.13,6.261,3.13,3.13,0,0,1,0,3.13Z" transform="translate(107.739 0)" fill="#666"/>
      <path id="Oval_Copy_6-88" data-name="Oval Copy 6" d="M0,3.13A3.131,3.131,0,1,1,3.13,6.261,3.13,3.13,0,0,1,0,3.13Z" transform="translate(5.13 18)" fill="#666"/>
      <path id="Oval_Copy_6-89" data-name="Oval Copy 6" d="M0,3.13A3.131,3.131,0,1,1,3.13,6.261,3.13,3.13,0,0,1,0,3.13Z" transform="translate(46.174 18)" fill="#666"/>
      <path id="Oval_Copy_6-90" data-name="Oval Copy 6" d="M0,3.13A3.131,3.131,0,1,1,3.13,6.261,3.13,3.13,0,0,1,0,3.13Z" transform="translate(15.391 18)" fill="#666"/>
      <path id="Oval_Copy_6-91" data-name="Oval Copy 6" d="M0,3.13A3.131,3.131,0,1,1,3.13,6.261,3.13,3.13,0,0,1,0,3.13Z" transform="translate(35.913 18)" fill="#666"/>
      <path id="Oval_Copy_6-92" data-name="Oval Copy 6" d="M0,3.13A3.131,3.131,0,1,1,3.13,6.261,3.13,3.13,0,0,1,0,3.13Z" transform="translate(56.435 18)" fill="#666"/>
      <path id="Oval_Copy_6-93" data-name="Oval Copy 6" d="M0,3.13A3.131,3.131,0,1,1,3.13,6.261,3.13,3.13,0,0,1,0,3.13Z" transform="translate(25.652 18)" fill="#666"/>
      <path id="Oval_Copy_6-94" data-name="Oval Copy 6" d="M0,3.13A3.131,3.131,0,1,1,3.13,6.261,3.13,3.13,0,0,1,0,3.13Z" transform="translate(66.696 18)" fill="#666"/>
      <path id="Oval_Copy_6-95" data-name="Oval Copy 6" d="M0,3.13A3.131,3.131,0,1,1,3.13,6.261,3.13,3.13,0,0,1,0,3.13Z" transform="translate(76.957 18)" fill="#666"/>
      <path id="Oval_Copy_6-96" data-name="Oval Copy 6" d="M0,3.13A3.131,3.131,0,1,1,3.13,6.261,3.13,3.13,0,0,1,0,3.13Z" transform="translate(97.478 18)" fill="#666"/>
      <path id="Oval_Copy_6-97" data-name="Oval Copy 6" d="M0,3.13A3.131,3.131,0,1,1,3.13,6.261,3.13,3.13,0,0,1,0,3.13Z" transform="translate(87.217 18)" fill="#666"/>
      <path id="Oval_Copy_6-98" data-name="Oval Copy 6" d="M0,3.13A3.131,3.131,0,1,1,3.13,6.261,3.13,3.13,0,0,1,0,3.13Z" transform="translate(107.739 18)" fill="#666"/>
      <path id="Oval_Copy_6-99" data-name="Oval Copy 6" d="M0,3.13A3.131,3.131,0,1,1,3.13,6.261,3.13,3.13,0,0,1,0,3.13Z" transform="translate(112.87 9)" fill="#666"/>
      <path id="Oval_Copy_6-100" data-name="Oval Copy 6" d="M0,3.13A3.131,3.131,0,1,1,3.13,6.261,3.13,3.13,0,0,1,0,3.13Z" transform="translate(92.348 9)" fill="#666"/>
    </g>
    <path id="Oval_Copy_6-101" data-name="Oval Copy 6" d="M0,3.13A3.131,3.131,0,1,1,3.13,6.261,3.13,3.13,0,0,1,0,3.13Z" transform="translate(13 54.913)" fill="#666"/>
    <path id="Oval_Copy_6-102" data-name="Oval Copy 6" d="M0,3.13A3.131,3.131,0,1,1,3.13,6.261,3.13,3.13,0,0,1,0,3.13Z" transform="translate(13 62.913)" fill="#666"/>
    <path id="Oval_Copy_6-103" data-name="Oval Copy 6" d="M0,3.13A3.131,3.131,0,1,1,3.13,6.261,3.13,3.13,0,0,1,0,3.13Z" transform="translate(13 70.913)" fill="#666"/>
    <path id="Oval_Copy_6-104" data-name="Oval Copy 6" d="M0,3.13A3.131,3.131,0,1,1,3.13,6.261,3.13,3.13,0,0,1,0,3.13Z" transform="translate(13 78.913)" fill="#666"/>
    <path id="Oval_Copy_6-105" data-name="Oval Copy 6" d="M0,3.13A3.131,3.131,0,1,1,3.13,6.261,3.13,3.13,0,0,1,0,3.13Z" transform="translate(63 54.913)" fill="#666"/>
    <path id="Oval_Copy_6-106" data-name="Oval Copy 6" d="M0,3.13A3.131,3.131,0,1,1,3.13,6.261,3.13,3.13,0,0,1,0,3.13Z" transform="translate(63 54.913)" fill="#666"/>
    <path id="Oval_Copy_6-107" data-name="Oval Copy 6" d="M0,3.13A3.131,3.131,0,1,1,3.13,6.261,3.13,3.13,0,0,1,0,3.13Z" transform="translate(81 54.913)" fill="#666"/>
    <path id="Oval_Copy_6-108" data-name="Oval Copy 6" d="M0,3.13A3.131,3.131,0,1,1,3.13,6.261,3.13,3.13,0,0,1,0,3.13Z" transform="translate(91 54.913)" fill="#666"/>
    <path id="Oval_Copy_6-109" data-name="Oval Copy 6" d="M0,3.13A3.131,3.131,0,1,1,3.13,6.261,3.13,3.13,0,0,1,0,3.13Z" transform="translate(111 54.913)" fill="#666"/>
    <path id="Oval_Copy_6-110" data-name="Oval Copy 6" d="M0,3.13A3.131,3.131,0,1,1,3.13,6.261,3.13,3.13,0,0,1,0,3.13Z" transform="translate(121 54.913)" fill="#666"/>
    <path id="Oval_Copy_6-111" data-name="Oval Copy 6" d="M0,3.13A3.131,3.131,0,1,1,3.13,6.261,3.13,3.13,0,0,1,0,3.13Z" transform="translate(101 54.913)" fill="#666"/>
    <path id="Oval_Copy_6-112" data-name="Oval Copy 6" d="M0,3.13A3.131,3.131,0,1,1,3.13,6.261,3.13,3.13,0,0,1,0,3.13Z" transform="translate(63 62.913)" fill="#666"/>
    <path id="Oval_Copy_6-113" data-name="Oval Copy 6" d="M0,3.13A3.131,3.131,0,1,1,3.13,6.261,3.13,3.13,0,0,1,0,3.13Z" transform="translate(63 62.913)" fill="#666"/>
    <path id="Oval_Copy_6-114" data-name="Oval Copy 6" d="M0,3.13A3.131,3.131,0,1,1,3.13,6.261,3.13,3.13,0,0,1,0,3.13Z" transform="translate(81 62.913)" fill="#666"/>
    <path id="Oval_Copy_6-115" data-name="Oval Copy 6" d="M0,3.13A3.131,3.131,0,1,1,3.13,6.261,3.13,3.13,0,0,1,0,3.13Z" transform="translate(91 62.913)" fill="#666"/>
    <path id="Oval_Copy_6-116" data-name="Oval Copy 6" d="M0,3.13A3.131,3.131,0,1,1,3.13,6.261,3.13,3.13,0,0,1,0,3.13Z" transform="translate(111 62.913)" fill="#666"/>
    <path id="Oval_Copy_6-117" data-name="Oval Copy 6" d="M0,3.13A3.131,3.131,0,1,1,3.13,6.261,3.13,3.13,0,0,1,0,3.13Z" transform="translate(121 62.913)" fill="#666"/>
    <path id="Oval_Copy_6-118" data-name="Oval Copy 6" d="M0,3.13A3.131,3.131,0,1,1,3.13,6.261,3.13,3.13,0,0,1,0,3.13Z" transform="translate(101 62.913)" fill="#666"/>
    <path id="Oval_Copy_6-119" data-name="Oval Copy 6" d="M0,3.13A3.131,3.131,0,1,1,3.13,6.261,3.13,3.13,0,0,1,0,3.13Z" transform="translate(63 70.913)" fill="#666"/>
    <path id="Oval_Copy_6-120" data-name="Oval Copy 6" d="M0,3.13A3.131,3.131,0,1,1,3.13,6.261,3.13,3.13,0,0,1,0,3.13Z" transform="translate(63 70.913)" fill="#666"/>
    <path id="Oval_Copy_6-121" data-name="Oval Copy 6" d="M0,3.13A3.131,3.131,0,1,1,3.13,6.261,3.13,3.13,0,0,1,0,3.13Z" transform="translate(81 70.913)" fill="#666"/>
    <path id="Oval_Copy_6-122" data-name="Oval Copy 6" d="M0,3.13A3.131,3.131,0,1,1,3.13,6.261,3.13,3.13,0,0,1,0,3.13Z" transform="translate(91 70.913)" fill="#666"/>
    <path id="Oval_Copy_6-123" data-name="Oval Copy 6" d="M0,3.13A3.131,3.131,0,1,1,3.13,6.261,3.13,3.13,0,0,1,0,3.13Z" transform="translate(111 70.913)" fill="#666"/>
    <path id="Oval_Copy_6-124" data-name="Oval Copy 6" d="M0,3.13A3.131,3.131,0,1,1,3.13,6.261,3.13,3.13,0,0,1,0,3.13Z" transform="translate(121 70.913)" fill="#666"/>
    <path id="Oval_Copy_6-125" data-name="Oval Copy 6" d="M0,3.13A3.131,3.131,0,1,1,3.13,6.261,3.13,3.13,0,0,1,0,3.13Z" transform="translate(101 70.913)" fill="#666"/>
    <path id="Oval_Copy_6-126" data-name="Oval Copy 6" d="M0,3.13A3.131,3.131,0,1,1,3.13,6.261,3.13,3.13,0,0,1,0,3.13Z" transform="translate(63 78.913)" fill="#666"/>
    <path id="Oval_Copy_6-127" data-name="Oval Copy 6" d="M0,3.13A3.131,3.131,0,1,1,3.13,6.261,3.13,3.13,0,0,1,0,3.13Z" transform="translate(63 78.913)" fill="#666"/>
    <path id="Oval_Copy_6-128" data-name="Oval Copy 6" d="M0,3.13A3.131,3.131,0,1,1,3.13,6.261,3.13,3.13,0,0,1,0,3.13Z" transform="translate(81 78.913)" fill="#666"/>
    <path id="Oval_Copy_6-129" data-name="Oval Copy 6" d="M0,3.13A3.131,3.131,0,1,1,3.13,6.261,3.13,3.13,0,0,1,0,3.13Z" transform="translate(91 78.913)" fill="#666"/>
    <path id="Oval_Copy_6-130" data-name="Oval Copy 6" d="M0,3.13A3.131,3.131,0,1,1,3.13,6.261,3.13,3.13,0,0,1,0,3.13Z" transform="translate(111 78.913)" fill="#666"/>
    <path id="Oval_Copy_6-131" data-name="Oval Copy 6" d="M0,3.13A3.131,3.131,0,1,1,3.13,6.261,3.13,3.13,0,0,1,0,3.13Z" transform="translate(121 78.913)" fill="#666"/>
    <path id="Oval_Copy_6-132" data-name="Oval Copy 6" d="M0,3.13A3.131,3.131,0,1,1,3.13,6.261,3.13,3.13,0,0,1,0,3.13Z" transform="translate(101 78.913)" fill="#666"/>
    <path id="Oval_Copy_6-133" data-name="Oval Copy 6" d="M0,3.13A3.131,3.131,0,1,1,3.13,6.261,3.13,3.13,0,0,1,0,3.13Z" transform="translate(131 54.913)" fill="#666"/>
    <path id="Oval_Copy_6-134" data-name="Oval Copy 6" d="M0,3.13A3.131,3.131,0,1,1,3.13,6.261,3.13,3.13,0,0,1,0,3.13Z" transform="translate(131 62.913)" fill="#666"/>
    <path id="Oval_Copy_6-135" data-name="Oval Copy 6" d="M0,3.13A3.131,3.131,0,1,1,3.13,6.261,3.13,3.13,0,0,1,0,3.13Z" transform="translate(131 70.913)" fill="#666"/>
    <path id="Oval_Copy_6-136" data-name="Oval Copy 6" d="M0,3.13A3.131,3.131,0,1,1,3.13,6.261,3.13,3.13,0,0,1,0,3.13Z" transform="translate(131 78.913)" fill="#666"/>
  </g>
</svg>
