<?xml version="1.0" encoding="UTF-8"?>
<svg width="53px" height="72px" viewBox="0 0 53 72" version="1.1" xmlns="http://www.w3.org/2000/svg" xmlns:xlink="http://www.w3.org/1999/xlink">
    <title>Combined Shape Copy 3</title>
    <g id="Marketing-Pages" stroke="none" stroke-width="1" fill="none" fill-rule="evenodd">
        <g id="org-v1.3" transform="translate(-985.000000, -1844.000000)" fill="#A02541">
            <g id="Group-27" transform="translate(28.000000, 1334.000000)">
                <g id="Group-26" transform="translate(0.000000, 509.000000)">
                    <g id="Group-7" transform="translate(823.000000, 1.000000)">
                        <path d="M183.92,0.376631951 C184.291613,0.00501904783 184.787097,-0.11885192 185.282581,0.128890016 C185.778065,0.252760983 186.025806,0.748244854 186.025806,1.24372873 L186.025806,1.24372873 L186.025806,70.6114707 C186.025806,71.1069545 185.778065,71.4785674 185.282581,71.7263094 C185.15871,71.8501803 184.910968,71.8501803 184.787097,71.8501803 C184.415484,71.8501803 184.167742,71.7263094 183.92,71.4785674 L183.92,71.4785674 L179.832258,67.3908255 L175.744516,71.4785674 C175.249032,71.9740513 174.505806,71.9740513 174.010323,71.4785674 L174.010323,71.4785674 L169.922581,67.3908255 L165.834839,71.4785674 C165.339355,71.9740513 164.596129,71.9740513 164.100645,71.4785674 L164.100645,71.4785674 L160.012903,67.3908255 L155.925161,71.4785674 C155.429677,71.9740513 154.686452,71.9740513 154.190968,71.4785674 L154.190968,71.4785674 L150.103226,67.3908255 L146.015484,71.4785674 C145.52,71.9740513 144.776774,71.9740513 144.28129,71.4785674 L144.28129,71.4785674 L140.193548,67.3908255 L136.105806,71.4785674 C135.734194,71.8501803 135.23871,71.9740513 134.743226,71.7263094 C134.247742,71.6024384 134,71.1069545 134,70.6114707 L134,70.6114707 L134,1.24372873 C134,0.748244854 134.247742,0.252760983 134.743226,0.128890016 C135.23871,-0.11885192 135.734194,0.00501904783 136.105806,0.376631951 L136.105806,0.376631951 L140.193548,4.46437389 L144.28129,0.376631951 C144.776774,-0.11885192 145.52,-0.11885192 146.015484,0.376631951 L146.015484,0.376631951 L150.103226,4.46437389 L154.190968,0.376631951 C154.686452,-0.11885192 155.429677,-0.11885192 155.925161,0.376631951 L155.925161,0.376631951 L160.012903,4.46437389 L164.100645,0.376631951 C164.596129,-0.11885192 165.339355,-0.11885192 165.834839,0.376631951 L165.834839,0.376631951 L169.922581,4.46437389 L174.010323,0.376631951 C174.505806,-0.11885192 175.249032,-0.11885192 175.744516,0.376631951 L175.744516,0.376631951 L179.832258,4.46437389 Z M174.877419,2.97792227 L170.789677,7.06566421 C170.294194,7.56114808 169.550968,7.56114808 169.055484,7.06566421 L169.055484,7.06566421 L164.967742,2.97792227 L160.88,7.06566421 C160.384516,7.56114808 159.64129,7.56114808 159.145806,7.06566421 L159.145806,7.06566421 L155.058065,2.97792227 L150.970323,7.06566421 C150.474839,7.56114808 149.731613,7.56114808 149.236129,7.06566421 L149.236129,7.06566421 L145.148387,2.97792227 L141.060645,7.06566421 C140.565161,7.56114808 139.821935,7.56114808 139.326452,7.06566421 L139.326452,7.06566421 L136.477419,4.21663195 L136.477419,67.6385674 L139.326452,64.7895352 C139.821935,64.2940513 140.565161,64.2940513 141.060645,64.7895352 L141.060645,64.7895352 L145.148387,68.8772771 L149.236129,64.7895352 C149.731613,64.2940513 150.474839,64.2940513 150.970323,64.7895352 L150.970323,64.7895352 L155.058065,68.8772771 L159.145806,64.7895352 C159.64129,64.2940513 160.384516,64.2940513 160.88,64.7895352 L160.88,64.7895352 L164.967742,68.8772771 L169.055484,64.7895352 C169.303226,64.5417932 169.550968,64.4179223 169.922581,64.4179223 C170.294194,64.4179223 170.541935,64.5417932 170.789677,64.7895352 L170.789677,64.7895352 L174.877419,68.8772771 L178.965161,64.7895352 C179.460645,64.2940513 180.203871,64.2940513 180.699355,64.7895352 L180.699355,64.7895352 L183.548387,67.6385674 L183.548387,4.21663195 L180.699355,7.06566421 C180.203871,7.56114808 179.460645,7.56114808 178.965161,7.06566421 L178.965161,7.06566421 L174.877419,2.97792227 Z M160.012903,29.7340513 C168.931613,29.7340513 176.116129,36.9185674 176.116129,45.8372771 C176.116129,54.7559868 168.931613,61.9405029 160.012903,61.9405029 C151.094194,61.9405029 143.909677,54.7559868 143.909677,45.8372771 C143.909677,36.9185674 151.094194,29.7340513 160.012903,29.7340513 Z M160.012903,32.2114707 C152.456774,32.2114707 146.387097,38.2811481 146.387097,45.8372771 C146.387097,53.3934061 152.456774,59.4630836 160.012903,59.4630836 C167.569032,59.4630836 173.63871,53.3934061 173.63871,45.8372771 C173.63871,38.2811481 167.569032,32.2114707 160.012903,32.2114707 Z M160.012903,34.68889 C160.756129,34.68889 161.251613,35.1843739 161.251613,35.9275997 L161.251613,35.9275997 L161.251613,39.6437287 L164.967742,39.6437287 C165.710968,39.6437287 166.206452,40.1392126 166.206452,40.8824384 C166.206452,41.6256642 165.710968,42.1211481 164.967742,42.1211481 L164.967742,42.1211481 L157.535484,42.1211481 C156.792258,42.1211481 156.296774,42.616632 156.296774,43.3598578 C156.296774,44.1030836 156.792258,44.5985674 157.535484,44.5985674 L157.535484,44.5985674 L162.490323,44.5985674 C164.596129,44.5985674 166.206452,46.20889 166.206452,48.3146965 C166.206452,50.4205029 164.596129,52.0308255 162.490323,52.0308255 L162.490323,52.0308255 L161.251613,52.0308255 L161.251613,55.7469545 C161.251613,56.4901803 160.756129,56.9856642 160.012903,56.9856642 C159.269677,56.9856642 158.774194,56.4901803 158.774194,55.7469545 L158.774194,55.7469545 L158.774194,52.0308255 L155.058065,52.0308255 C154.314839,52.0308255 153.819355,51.5353416 153.819355,50.7921158 C153.819355,50.04889 154.314839,49.5534061 155.058065,49.5534061 L155.058065,49.5534061 L162.490323,49.5534061 C163.233548,49.5534061 163.729032,49.0579223 163.729032,48.3146965 C163.729032,47.5714707 163.233548,47.0759868 162.490323,47.0759868 L162.490323,47.0759868 L157.535484,47.0759868 C155.429677,47.0759868 153.819355,45.4656642 153.819355,43.3598578 C153.819355,41.2540513 155.429677,39.6437287 157.535484,39.6437287 L157.535484,39.6437287 L158.774194,39.6437287 L158.774194,35.9275997 C158.774194,35.1843739 159.269677,34.68889 160.012903,34.68889 Z M174.877419,24.7792126 C175.620645,24.7792126 176.116129,25.2746965 176.116129,26.0179223 C176.116129,26.7611481 175.620645,27.256632 174.877419,27.256632 L174.877419,27.256632 L145.148387,27.256632 C144.405161,27.256632 143.909677,26.7611481 143.909677,26.0179223 C143.909677,25.2746965 144.405161,24.7792126 145.148387,24.7792126 L145.148387,24.7792126 Z M160.012903,19.8243739 C160.756129,19.8243739 161.251613,20.3198578 161.251613,21.0630836 C161.251613,21.8063094 160.756129,22.3017932 160.012903,22.3017932 L160.012903,22.3017932 L145.148387,22.3017932 C144.405161,22.3017932 143.909677,21.8063094 143.909677,21.0630836 C143.909677,20.3198578 144.405161,19.8243739 145.148387,19.8243739 L145.148387,19.8243739 Z M174.877419,19.8243739 C175.620645,19.8243739 176.116129,20.3198578 176.116129,21.0630836 C176.116129,21.8063094 175.620645,22.3017932 174.877419,22.3017932 L174.877419,22.3017932 L164.967742,22.3017932 C164.224516,22.3017932 163.729032,21.8063094 163.729032,21.0630836 C163.729032,20.3198578 164.224516,19.8243739 164.967742,19.8243739 L164.967742,19.8243739 Z M150.103226,14.8695352 C150.846452,14.8695352 151.341935,15.365019 151.341935,16.1082449 C151.341935,16.8514707 150.846452,17.3469545 150.103226,17.3469545 L150.103226,17.3469545 L145.148387,17.3469545 C144.405161,17.3469545 143.909677,16.8514707 143.909677,16.1082449 C143.909677,15.365019 144.405161,14.8695352 145.148387,14.8695352 L145.148387,14.8695352 Z M174.877419,14.8695352 C175.620645,14.8695352 176.116129,15.365019 176.116129,16.1082449 C176.116129,16.8514707 175.620645,17.3469545 174.877419,17.3469545 L174.877419,17.3469545 L155.058065,17.3469545 C154.314839,17.3469545 153.819355,16.8514707 153.819355,16.1082449 C153.819355,15.365019 154.314839,14.8695352 155.058065,14.8695352 L155.058065,14.8695352 Z M164.967742,9.91469647 C165.710968,9.91469647 166.206452,10.4101803 166.206452,11.1534061 C166.206452,11.896632 165.710968,12.3921158 164.967742,12.3921158 L164.967742,12.3921158 L145.148387,12.3921158 C144.405161,12.3921158 143.909677,11.896632 143.909677,11.1534061 C143.909677,10.4101803 144.405161,9.91469647 145.148387,9.91469647 L145.148387,9.91469647 Z M174.877419,9.91469647 C175.620645,9.91469647 176.116129,10.4101803 176.116129,11.1534061 C176.116129,11.896632 175.620645,12.3921158 174.877419,12.3921158 L174.877419,12.3921158 L169.922581,12.3921158 C169.179355,12.3921158 168.683871,11.896632 168.683871,11.1534061 C168.683871,10.4101803 169.179355,9.91469647 169.922581,9.91469647 L169.922581,9.91469647 Z" id="Combined-Shape-Copy-3"></path>
                    </g>
                </g>
            </g>
        </g>
    </g>
</svg>