<?xml version="1.0" encoding="UTF-8"?>
<svg width="71px" height="70px" viewBox="0 0 71 70" version="1.1" xmlns="http://www.w3.org/2000/svg" xmlns:xlink="http://www.w3.org/1999/xlink">
    <title>Sell Tickets</title>
    <g id="screens" stroke="none" stroke-width="1" fill="none" fill-rule="evenodd">
        <g id="About-us-v3" transform="translate(-15.000000, -1492.000000)">
            <g id="Sell-Tickets" transform="translate(15.000000, 1492.000000)">
                <rect id="Rectangle" fill="#FFFFFF" x="1" y="0" width="70" height="70"></rect>
                <path d="M43.1327976,14.5767199 L43.1327976,18.5767199 L45.1327976,18.5767199 L45.1327976,14.5767199 L56.1327976,14.5767199 C57.7896519,14.5767199 59.1327976,15.9198657 59.1327976,17.5767199 L59.1327976,24.5767199 C56.9236586,24.5767199 55.1327976,26.3675809 55.1327976,28.5767199 C55.1327976,30.7858589 56.9236586,32.5767199 59.1327976,32.5767199 L59.1327976,39.5767199 C59.1327976,41.2335742 57.7896519,42.5767199 56.1327976,42.5767199 L45.1327976,42.5767199 L45.1327976,38.5767199 L43.1327976,38.5767199 L43.1327976,42.5767199 L7.13279762,42.5767199 C5.47594337,42.5767199 4.13279762,41.2335742 4.13279762,39.5767199 L4.13279762,32.5767199 C6.34193662,32.5767199 8.13279762,30.7858589 8.13279762,28.5767199 C8.13279762,26.3675809 6.34193662,24.5767199 4.13279762,24.5767199 L4.13279762,17.5767199 C4.13279762,15.9198657 5.47594337,14.5767199 7.13279762,14.5767199 L43.1327976,14.5767199 Z M45.1327976,32.5767199 L43.1327976,32.5767199 L43.1327976,36.5767199 L45.1327976,36.5767199 L45.1327976,32.5767199 Z M45.1327976,26.5767199 L43.1327976,26.5767199 L43.1327976,30.5767199 L45.1327976,30.5767199 L45.1327976,26.5767199 Z M45.1327976,20.5767199 L43.1327976,20.5767199 L43.1327976,24.5767199 L45.1327976,24.5767199 L45.1327976,20.5767199 Z" id="Combined-Shape" fill="#A1314B" transform="translate(31.632798, 28.576720) rotate(-30.000000) translate(-31.632798, -28.576720) "></path>
                <path d="M46,37 L46,41 L48,41 L48,37 L59,37 C60.6568542,37 62,38.3431458 62,40 L62,47 C59.790861,47 58,48.790861 58,51 C58,53.209139 59.790861,55 62,55 L62,62 C62,63.6568542 60.6568542,65 59,65 L48,65 L48,61 L46,61 L46,65 L10,65 C8.34314575,65 7,63.6568542 7,62 L7,55 C9.209139,55 11,53.209139 11,51 C11,48.790861 9.209139,47 7,47 L7,40 C7,38.3431458 8.34314575,37 10,37 L46,37 Z M48,55 L46,55 L46,59 L48,59 L48,55 Z M48,49 L46,49 L46,53 L48,53 L48,49 Z M48,43 L46,43 L46,47 L48,47 L48,43 Z" id="Combined-Shape" fill="#38B968"></path>
            </g>
        </g>
    </g>
</svg>