<svg xmlns="http://www.w3.org/2000/svg" xmlns:xlink="http://www.w3.org/1999/xlink" width="26" height="42" viewBox="0 0 26 42">
  <defs>
    <clipPath id="clip-Sports-claimed-small">
      <rect width="26" height="42"/>
    </clipPath>
  </defs>
  <g id="Sports-claimed-small" clip-path="url(#clip-Sports-claimed-small)">
    <g id="Group_150" data-name="Group 150" transform="translate(-98.7 -411.022)">
      <g id="Group_36" data-name="Group 36" transform="translate(99 421.163)">
        <g id="Group_13" data-name="Group 13" transform="translate(0 0)">
          <path id="Path_17" data-name="Path 17" d="M105.209,87A12.685,12.685,0,0,0,92.524,99.684c0,10.544,12.685,19.175,12.685,19.175s12.685-9.266,12.685-19.176A12.684,12.684,0,0,0,105.209,87Z" transform="translate(-92.524 -87)" fill="#1da0aa"/>
        </g>
        <g id="Group_32" data-name="Group 32" transform="translate(5.641 4.882)">
          <path id="Path_52" data-name="Path 52" d="M123.623,111.328a.262.262,0,0,0,.076.185l1.184,1.184a.261.261,0,1,0,.37-.37l-1.184-1.184a.261.261,0,0,0-.37,0A.258.258,0,0,0,123.623,111.328Z" transform="translate(-112.213 -102.751)" fill="#fff"/>
          <path id="Path_53" data-name="Path 53" d="M121.266,113.576a.262.262,0,0,0,0,.37l1.336,1.336a.261.261,0,1,0,.37-.37l-1.336-1.336A.26.26,0,0,0,121.266,113.576Z" transform="translate(-111.109 -103.855)" fill="#fff"/>
          <path id="Path_54" data-name="Path 54" d="M124.814,117.386a.262.262,0,0,0,.076.185l.577.577a.261.261,0,0,0,.37-.37l-.577-.577a.261.261,0,0,0-.446.185Z" transform="translate(-112.754 -105.501)" fill="#fff"/>
          <path id="Path_55" data-name="Path 55" d="M123,120.175a.261.261,0,0,0,0-.37L119.2,116.01a.262.262,0,0,0-.37.37l3.795,3.795A.262.262,0,0,0,123,120.175Z" transform="translate(-110.005 -104.96)" fill="#fff"/>
          <path id="Path_56" data-name="Path 56" d="M108.684,106.728a5.384,5.384,0,0,0,1.809-.491h0a5.376,5.376,0,0,0,1.523-1.07,3.542,3.542,0,0,0,.243-.26,5.412,5.412,0,0,0,.6-.828h0a5.416,5.416,0,0,0,.258-.493,5.348,5.348,0,0,0,.44-1.509c.016-.12.029-.241.038-.363.007-.1-.015-.21-.014-.3a2.02,2.02,0,0,0-.1-1.033v0a3.721,3.721,0,0,0-.671-1.932c-.176-.286-.376-.559-.55-.814h-.041s-.021,0-.022,0h-.01c-.049-.055-.105-.11-.158-.163a1.073,1.073,0,0,0-.082-.074,5.47,5.47,0,0,0-1.431-1.02,11.744,11.744,0,0,0-1.607-.51h0c-.306,0-.621-.029-.943-.018l-.186.024a5.3,5.3,0,0,0-1.558.351s0,0,0,0l0,0,0,0h0c-.118.043-.239.094-.37.157a5.434,5.434,0,0,0-1.269.838l-.04.036c-.071.06-.143.126-.215.2a5.483,5.483,0,0,0-.877,1.146c-.011.019-.022.039-.032.058l0,0a5.411,5.411,0,0,0-.667,2.244c-.01.128-.015.258-.015.388,0,.065,0,.131,0,.195a0,0,0,0,0,0,0,5.388,5.388,0,0,0,.353,1.766q.049.129.106.259l.013.025a5.344,5.344,0,0,0,.95,1.443l.019.021a1.687,1.687,0,0,0,.127.135l.015-.015a4.778,4.778,0,0,0,2.418,1.373h-.055v.046a5.092,5.092,0,0,0,.578.127l.023,0a5.4,5.4,0,0,0,1.27.06C108.594,106.734,108.643,106.732,108.684,106.728Zm2.965-1.933a4.869,4.869,0,0,1-1.254.9l-1.644-1.023-.141-1.453,1.476-1.372,1.311.184.822,2.021a.226.226,0,0,0,.016.027,4.95,4.95,0,0,1-.371.481C111.8,104.64,111.731,104.715,111.649,104.8Zm-5.583-6.227.466-1.9a4.766,4.766,0,0,1,1.283-.269l.177-.01a5.078,5.078,0,0,1,.7.028l.7,1.72-.535,1.119-1.968.237Zm6.289.15a4.832,4.832,0,0,1,.638,1.6l-1.432,1.21-1.384-.194-.852-1.838.54-1.128,2.105-.155c.008,0,.015,0,.023-.005A4.811,4.811,0,0,1,112.355,98.718Zm-8.55.323,1.859-.137.827.93-.395,2-1.121.427-1.72-1.067c0-.083.005-.165.011-.248A4.823,4.823,0,0,1,103.8,99.041Zm.948,5.805.526-2.142,1.035-.394,1.776.991.142,1.459-1.487,1.256A4.88,4.88,0,0,1,104.753,104.846Z" transform="translate(-102.73 -95.84)" fill="#fff"/>
        </g>
      </g>
      <path id="crown_1_" data-name="crown (1)" d="M17.07,47.509a.5.5,0,0,1-.013.148l-1.1,4.384a.5.5,0,0,1-.481.377L8.9,52.452H2.325a.5.5,0,0,1-.483-.378l-1.1-4.4a.5.5,0,0,1-.013-.152,1.047,1.047,0,1,1,.978-.19l1.372,1.383a1.862,1.862,0,0,0,2.807-.19l2.255-2.988a1.047,1.047,0,1,1,1.5-.018l0,0,2.239,3a1.869,1.869,0,0,0,1.49.747,1.848,1.848,0,0,0,1.315-.545l1.381-1.381a1.046,1.046,0,1,1,1,.171Zm-1.216,6.5a.5.5,0,0,0-.5-.5H2.469a.5.5,0,0,0-.5.5v1.2a.5.5,0,0,0,.5.5H15.356a.5.5,0,0,0,.5-.5Z" transform="translate(103 367.272)" fill="#1da0aa"/>
    </g>
  </g>
</svg>
