<svg xmlns="http://www.w3.org/2000/svg" xmlns:xlink="http://www.w3.org/1999/xlink" width="26" height="32" viewBox="0 0 26 32">
  <defs>
    <clipPath id="clip-Sports26_32">
      <rect width="26" height="32"/>
    </clipPath>
  </defs>
  <g id="Sports26_32" data-name="Sports26*32" clip-path="url(#clip-Sports26_32)">
    <g id="Group_46" data-name="Group 46">
      <g id="Group_13" data-name="Group 13" transform="translate(0 0)">
        <path id="Path_17" data-name="Path 17" d="M105.524,87a12.873,12.873,0,0,0-13,12.74c0,10.59,13,19.26,13,19.26s13-9.307,13-19.261A12.872,12.872,0,0,0,105.524,87Z" transform="translate(-92.524 -87)" fill="#1da0aa"/>
      </g>
      <g id="Group_32" data-name="Group 32" transform="translate(5.68 4.737)">
        <path id="Path_52" data-name="Path 52" d="M123.623,111.339a.273.273,0,0,0,.08.193l1.233,1.233a.272.272,0,1,0,.385-.385l-1.233-1.233a.272.272,0,0,0-.385,0A.268.268,0,0,0,123.623,111.339Z" transform="translate(-111.74 -102.407)" fill="#fff"/>
        <path id="Path_53" data-name="Path 53" d="M121.27,113.579a.273.273,0,0,0,0,.386l1.391,1.391a.272.272,0,1,0,.385-.385l-1.391-1.391A.271.271,0,0,0,121.27,113.579Z" transform="translate(-110.691 -103.456)" fill="#fff"/>
        <path id="Path_54" data-name="Path 54" d="M124.814,117.4a.273.273,0,0,0,.08.193l.6.6a.272.272,0,1,0,.385-.385l-.6-.6a.272.272,0,0,0-.465.192Z" transform="translate(-112.254 -105.019)" fill="#fff"/>
        <path id="Path_55" data-name="Path 55" d="M123.174,120.351a.272.272,0,0,0,0-.385l-3.952-3.952a.272.272,0,0,0-.385.386l3.952,3.952A.273.273,0,0,0,123.174,120.351Z" transform="translate(-109.642 -104.506)" fill="#fff"/>
        <path id="Path_56" data-name="Path 56" d="M108.93,107.18a5.608,5.608,0,0,0,1.884-.511h0a5.6,5.6,0,0,0,1.586-1.115,3.692,3.692,0,0,0,.253-.271,5.636,5.636,0,0,0,.63-.863h0a5.636,5.636,0,0,0,.269-.513,5.569,5.569,0,0,0,.458-1.572c.017-.125.03-.251.04-.378.007-.106-.016-.219-.015-.314a2.1,2.1,0,0,0-.108-1.076v0a3.875,3.875,0,0,0-.7-2.012c-.183-.3-.391-.582-.573-.847h-.043s-.022,0-.023,0h-.011c-.051-.057-.11-.114-.165-.169a1.115,1.115,0,0,0-.085-.077,5.7,5.7,0,0,0-1.49-1.062,12.23,12.23,0,0,0-1.674-.531h0c-.318,0-.647-.031-.982-.019l-.193.025a5.522,5.522,0,0,0-1.623.366s0,0,0,0l0,0,0,0h0c-.123.045-.249.1-.386.164a5.66,5.66,0,0,0-1.322.872l-.042.038c-.074.062-.149.131-.224.206a5.711,5.711,0,0,0-.913,1.194c-.011.02-.023.04-.033.06l0,0a5.635,5.635,0,0,0-.695,2.337c-.01.133-.015.268-.015.4,0,.068,0,.136,0,.2a0,0,0,0,0,0,0,5.611,5.611,0,0,0,.368,1.839q.051.135.111.27l.013.026a5.565,5.565,0,0,0,.99,1.5l.02.022a1.758,1.758,0,0,0,.133.141l.016-.015a4.976,4.976,0,0,0,2.518,1.43h-.057v.048a5.3,5.3,0,0,0,.6.132l.024.005a5.62,5.62,0,0,0,1.323.062C108.837,107.185,108.888,107.184,108.93,107.18Zm3.088-2.013a5.071,5.071,0,0,1-1.306.942L109,105.043l-.147-1.513,1.537-1.429,1.366.192.857,2.1a.235.235,0,0,0,.017.028,5.153,5.153,0,0,1-.386.5C112.176,105,112.1,105.083,112.019,105.166ZM106.2,98.681l.486-1.976a4.964,4.964,0,0,1,1.336-.28l.184-.011a5.287,5.287,0,0,1,.731.029l.73,1.792-.557,1.165-2.049.247Zm6.55.156a5.033,5.033,0,0,1,.665,1.669l-1.492,1.26-1.441-.2-.887-1.914.562-1.174,2.193-.161c.009,0,.015,0,.024-.006A5.01,5.01,0,0,1,112.754,98.837Zm-8.9.336,1.936-.143.862.969-.411,2.083-1.168.444-1.791-1.111c0-.086.006-.172.012-.258A5.023,5.023,0,0,1,103.849,99.173Zm.987,6.046.548-2.231,1.078-.41,1.85,1.032.148,1.52-1.548,1.308A5.082,5.082,0,0,1,104.837,105.219Z" transform="translate(-102.73 -95.84)" fill="#fff"/>
      </g>
    </g>
  </g>
</svg>
