<svg xmlns="http://www.w3.org/2000/svg" width="151" height="151" viewBox="0 0 151 151">
  <g id="Group_11" data-name="Group 11" transform="translate(0.5 0.5)">
    <g id="Group_10" data-name="Group 10">
      <g id="Group_9" data-name="Group 9" transform="translate(11 36)">
        <g id="Group_6" data-name="Group 6">
          <g id="Group_5" data-name="Group 5">
            <path id="Oval" d="M0,7.043a7.043,7.043,0,1,1,7.043,7.043A7.044,7.044,0,0,1,0,7.043Z" transform="translate(10.957 10.957)" fill="#666"/>
            <path id="Oval-2" data-name="Oval" d="M0,3.13A3.131,3.131,0,1,1,3.13,6.261,3.13,3.13,0,0,1,0,3.13Z" transform="translate(29.739 14.87)" fill="#666"/>
            <path id="Oval-3" data-name="Oval" d="M0,3.13A3.131,3.131,0,1,1,3.13,6.261,3.13,3.13,0,0,1,0,3.13Z" transform="translate(25.043 25.826)" fill="#666"/>
            <path id="Oval_Copy" data-name="Oval Copy" d="M0,3.13A3.131,3.131,0,1,1,3.13,6.261,3.13,3.13,0,0,1,0,3.13Z" transform="translate(3.13 24.261)" fill="#666"/>
            <path id="Oval_Copy_5" data-name="Oval Copy 5" d="M0,3.13A3.131,3.131,0,1,1,3.13,6.261,3.13,3.13,0,0,1,0,3.13Z" transform="translate(14.87 0)" fill="#666"/>
            <path id="Oval-4" data-name="Oval" d="M0,3.13A3.131,3.131,0,1,1,3.13,6.261,3.13,3.13,0,0,1,0,3.13Z" transform="translate(14.87 28.957)" fill="#666"/>
            <path id="Oval_Copy_2" data-name="Oval Copy 2" d="M0,3.13A3.131,3.131,0,1,1,3.13,6.261,3.13,3.13,0,0,1,0,3.13Z" transform="translate(0 14.87)" fill="#666"/>
            <path id="Oval_Copy_4" data-name="Oval Copy 4" d="M0,3.13A3.131,3.131,0,1,1,3.13,6.261,3.13,3.13,0,0,1,0,3.13Z" transform="translate(4.696 3.913)" fill="#666"/>
            <path id="Oval_Copy_6" data-name="Oval Copy 6" d="M0,3.13A3.131,3.131,0,1,1,3.13,6.261,3.13,3.13,0,0,1,0,3.13Z" transform="translate(25.043 3.913)" fill="#666"/>
          </g>
          <g id="Group_5_Copy" data-name="Group 5 Copy" transform="translate(46)">
            <path id="Oval-5" data-name="Oval" d="M0,7.043a7.043,7.043,0,1,1,7.043,7.043A7.044,7.044,0,0,1,0,7.043Z" transform="translate(10.957 10.957)" fill="#666"/>
            <path id="Oval-6" data-name="Oval" d="M0,3.13A3.131,3.131,0,1,1,3.13,6.261,3.13,3.13,0,0,1,0,3.13Z" transform="translate(29.739 14.87)" fill="#666"/>
            <path id="Oval-7" data-name="Oval" d="M0,3.13A3.131,3.131,0,1,1,3.13,6.261,3.13,3.13,0,0,1,0,3.13Z" transform="translate(25.043 25.826)" fill="#666"/>
            <path id="Oval_Copy-2" data-name="Oval Copy" d="M0,3.13A3.131,3.131,0,1,1,3.13,6.261,3.13,3.13,0,0,1,0,3.13Z" transform="translate(3.13 24.261)" fill="#666"/>
            <path id="Oval_Copy_5-2" data-name="Oval Copy 5" d="M0,3.13A3.131,3.131,0,1,1,3.13,6.261,3.13,3.13,0,0,1,0,3.13Z" transform="translate(14.87 0)" fill="#666"/>
            <path id="Oval-8" data-name="Oval" d="M0,3.13A3.131,3.131,0,1,1,3.13,6.261,3.13,3.13,0,0,1,0,3.13Z" transform="translate(14.87 28.957)" fill="#666"/>
            <path id="Oval_Copy_2-2" data-name="Oval Copy 2" d="M0,3.13A3.131,3.131,0,1,1,3.13,6.261,3.13,3.13,0,0,1,0,3.13Z" transform="translate(0 14.87)" fill="#666"/>
            <path id="Oval_Copy_4-2" data-name="Oval Copy 4" d="M0,3.13A3.131,3.131,0,1,1,3.13,6.261,3.13,3.13,0,0,1,0,3.13Z" transform="translate(4.696 3.913)" fill="#666"/>
            <path id="Oval_Copy_6-2" data-name="Oval Copy 6" d="M0,3.13A3.131,3.131,0,1,1,3.13,6.261,3.13,3.13,0,0,1,0,3.13Z" transform="translate(25.043 3.913)" fill="#666"/>
          </g>
          <g id="Group_5_Copy_2" data-name="Group 5 Copy 2" transform="translate(92)">
            <path id="Oval-9" data-name="Oval" d="M0,7.043a7.043,7.043,0,1,1,7.043,7.043A7.044,7.044,0,0,1,0,7.043Z" transform="translate(10.957 10.957)" fill="#666"/>
            <path id="Oval-10" data-name="Oval" d="M0,3.13A3.131,3.131,0,1,1,3.13,6.261,3.13,3.13,0,0,1,0,3.13Z" transform="translate(29.739 14.87)" fill="#666"/>
            <path id="Oval-11" data-name="Oval" d="M0,3.13A3.131,3.131,0,1,1,3.13,6.261,3.13,3.13,0,0,1,0,3.13Z" transform="translate(25.043 25.826)" fill="#666"/>
            <path id="Oval_Copy-3" data-name="Oval Copy" d="M0,3.13A3.131,3.131,0,1,1,3.13,6.261,3.13,3.13,0,0,1,0,3.13Z" transform="translate(3.13 24.261)" fill="#666"/>
            <path id="Oval_Copy_5-3" data-name="Oval Copy 5" d="M0,3.13A3.131,3.131,0,1,1,3.13,6.261,3.13,3.13,0,0,1,0,3.13Z" transform="translate(14.87 0)" fill="#666"/>
            <path id="Oval-12" data-name="Oval" d="M0,3.13A3.131,3.131,0,1,1,3.13,6.261,3.13,3.13,0,0,1,0,3.13Z" transform="translate(14.87 28.957)" fill="#666"/>
            <path id="Oval_Copy_2-3" data-name="Oval Copy 2" d="M0,3.13A3.131,3.131,0,1,1,3.13,6.261,3.13,3.13,0,0,1,0,3.13Z" transform="translate(0 14.87)" fill="#666"/>
            <path id="Oval_Copy_4-3" data-name="Oval Copy 4" d="M0,3.13A3.131,3.131,0,1,1,3.13,6.261,3.13,3.13,0,0,1,0,3.13Z" transform="translate(4.696 3.913)" fill="#666"/>
            <path id="Oval_Copy_6-3" data-name="Oval Copy 6" d="M0,3.13A3.131,3.131,0,1,1,3.13,6.261,3.13,3.13,0,0,1,0,3.13Z" transform="translate(25.043 3.913)" fill="#666"/>
          </g>
        </g>
        <g id="Group_6-2" data-name="Group 6" transform="translate(23 43)">
          <g id="Group_5-2" data-name="Group 5">
            <path id="Oval-13" data-name="Oval" d="M0,7.043a7.043,7.043,0,1,1,7.043,7.043A7.044,7.044,0,0,1,0,7.043Z" transform="translate(10.957 10.957)" fill="#666"/>
            <path id="Oval-14" data-name="Oval" d="M0,3.13A3.131,3.131,0,1,1,3.13,6.261,3.13,3.13,0,0,1,0,3.13Z" transform="translate(29.739 14.87)" fill="#666"/>
            <path id="Oval-15" data-name="Oval" d="M0,3.13A3.131,3.131,0,1,1,3.13,6.261,3.13,3.13,0,0,1,0,3.13Z" transform="translate(25.043 25.826)" fill="#666"/>
            <path id="Oval_Copy-4" data-name="Oval Copy" d="M0,3.13A3.131,3.131,0,1,1,3.13,6.261,3.13,3.13,0,0,1,0,3.13Z" transform="translate(3.13 24.261)" fill="#666"/>
            <path id="Oval_Copy_5-4" data-name="Oval Copy 5" d="M0,3.13A3.131,3.131,0,1,1,3.13,6.261,3.13,3.13,0,0,1,0,3.13Z" transform="translate(14.87 0)" fill="#666"/>
            <path id="Oval-16" data-name="Oval" d="M0,3.13A3.131,3.131,0,1,1,3.13,6.261,3.13,3.13,0,0,1,0,3.13Z" transform="translate(14.87 28.957)" fill="#666"/>
            <path id="Oval_Copy_2-4" data-name="Oval Copy 2" d="M0,3.13A3.131,3.131,0,1,1,3.13,6.261,3.13,3.13,0,0,1,0,3.13Z" transform="translate(0 14.87)" fill="#666"/>
            <path id="Oval_Copy_4-4" data-name="Oval Copy 4" d="M0,3.13A3.131,3.131,0,1,1,3.13,6.261,3.13,3.13,0,0,1,0,3.13Z" transform="translate(4.696 3.913)" fill="#666"/>
            <path id="Oval_Copy_6-4" data-name="Oval Copy 6" d="M0,3.13A3.131,3.131,0,1,1,3.13,6.261,3.13,3.13,0,0,1,0,3.13Z" transform="translate(25.043 3.913)" fill="#666"/>
          </g>
          <g id="Group_5_Copy-2" data-name="Group 5 Copy" transform="translate(46)">
            <path id="Oval-17" data-name="Oval" d="M0,7.043a7.043,7.043,0,1,1,7.043,7.043A7.044,7.044,0,0,1,0,7.043Z" transform="translate(10.957 10.957)" fill="#666"/>
            <path id="Oval-18" data-name="Oval" d="M0,3.13A3.131,3.131,0,1,1,3.13,6.261,3.13,3.13,0,0,1,0,3.13Z" transform="translate(29.739 14.87)" fill="#666"/>
            <path id="Oval-19" data-name="Oval" d="M0,3.13A3.131,3.131,0,1,1,3.13,6.261,3.13,3.13,0,0,1,0,3.13Z" transform="translate(25.043 25.826)" fill="#666"/>
            <path id="Oval_Copy-5" data-name="Oval Copy" d="M0,3.13A3.131,3.131,0,1,1,3.13,6.261,3.13,3.13,0,0,1,0,3.13Z" transform="translate(3.13 24.261)" fill="#666"/>
            <path id="Oval_Copy_5-5" data-name="Oval Copy 5" d="M0,3.13A3.131,3.131,0,1,1,3.13,6.261,3.13,3.13,0,0,1,0,3.13Z" transform="translate(14.87 0)" fill="#666"/>
            <path id="Oval-20" data-name="Oval" d="M0,3.13A3.131,3.131,0,1,1,3.13,6.261,3.13,3.13,0,0,1,0,3.13Z" transform="translate(14.87 28.957)" fill="#666"/>
            <path id="Oval_Copy_2-5" data-name="Oval Copy 2" d="M0,3.13A3.131,3.131,0,1,1,3.13,6.261,3.13,3.13,0,0,1,0,3.13Z" transform="translate(0 14.87)" fill="#666"/>
            <path id="Oval_Copy_4-5" data-name="Oval Copy 4" d="M0,3.13A3.131,3.131,0,1,1,3.13,6.261,3.13,3.13,0,0,1,0,3.13Z" transform="translate(4.696 3.913)" fill="#666"/>
            <path id="Oval_Copy_6-5" data-name="Oval Copy 6" d="M0,3.13A3.131,3.131,0,1,1,3.13,6.261,3.13,3.13,0,0,1,0,3.13Z" transform="translate(25.043 3.913)" fill="#666"/>
          </g>
        </g>
      </g>
    </g>
    <rect id="Rectangle" width="150" height="150" rx="2" fill="none" stroke="#cbcbcb" stroke-miterlimit="10" stroke-width="1"/>
  </g>
</svg>
