<?xml version="1.0" encoding="UTF-8"?>
<svg width="38px" height="42px" viewBox="0 0 38 42" version="1.1" xmlns="http://www.w3.org/2000/svg" xmlns:xlink="http://www.w3.org/1999/xlink">
    <!-- Generator: Sketch 63.1 (92452) - https://sketch.com -->
    <title>thumbs up</title>
    <desc>Created with Sketch.</desc>
    <g id="Screens" stroke="none" stroke-width="1" fill="none" fill-rule="evenodd">
        <g id="5-view-analytics-attendee/regular-user-eligible" transform="translate(-45.000000, -141.000000)" fill-rule="nonzero">
            <g id="Group-16" transform="translate(15.000000, 128.000000)">
                <g id="thumbs-up" transform="translate(30.000000, 13.000000)">
                    <path d="M32.8125,26.4140625 C34.1717578,26.4140625 35.2734375,27.5157422 35.2734375,28.875 C35.2734375,30.2334375 34.1709375,31.3359375 32.8125,31.3359375 L31.7460938,31.3359375 L31.7305078,31.4007422 C32.8207031,31.6525781 33.6328125,32.6295703 33.6328125,33.796875 C33.6328125,35.1553125 32.5303125,36.2578125 31.171875,36.2578125 L29.53125,36.2578125 C30.8905078,36.2578125 31.9921875,37.3594922 31.9921875,38.71875 C31.9921875,40.0780078 30.8905078,41.1796875 29.53125,41.1796875 C28.5531914,41.1796875 21.6423047,41.1796875 20.7096094,41.1796875 C16.2167578,41.1796875 15.0223828,40.6284375 10.6640625,39.5390625 L10.6640625,23.1328125 C10.7508516,23.0648086 23.7890625,20.6818828 23.7890625,12.796875 L23.7890625,11.9765625 C23.7890625,10.6173047 24.8907422,9.515625 26.25,9.515625 C27.6076172,9.515625 28.7084766,10.6148438 28.7109375,11.9724609 C28.7273437,11.9724609 29.2408594,17.1510938 27.0703125,21.4921875 L34.453125,21.4921875 C35.8123828,21.4921875 36.9140625,22.5938672 36.9140625,23.953125 C36.9140625,25.3115625 35.8115625,26.4140625 34.453125,26.4140625 L32.8125,26.4140625 Z" id="Path" fill="#FFBFAB"></path>
                    <path d="M10.6640625,23.1328125 L10.6640625,39.5390625 C10.6640625,40.4455078 9.92988281,41.1796875 9.0234375,41.1796875 L0.8203125,41.1796875 L0.8203125,21.4921875 L9.0234375,21.4921875 C9.92988281,21.4921875 10.6640625,22.2263672 10.6640625,23.1328125 Z" id="Path" fill="#7BD8E8"></path>
                    <path d="M27.0703125,4.59375 L27.0703125,0.8203125 C27.0703125,0.367335937 26.7029766,0 26.25,0 C25.7970234,0 25.4296875,0.367335937 25.4296875,0.8203125 L25.4296875,4.59375 C25.4296875,5.04672656 25.7970234,5.4140625 26.25,5.4140625 C26.7029766,5.4140625 27.0703125,5.04672656 27.0703125,4.59375 Z" id="Path" fill="#000000"></path>
                    <path d="M7.3828125,25.59375 C6.93,25.59375 6.5625,25.96125 6.5625,26.4140625 C6.5625,26.866875 6.93,27.234375 7.3828125,27.234375 C7.835625,27.234375 8.203125,26.866875 8.203125,26.4140625 C8.203125,25.96125 7.835625,25.59375 7.3828125,25.59375 Z" id="Path" fill="#000000"></path>
                    <path d="M34.453125,20.671875 L28.3293281,20.671875 C29.2773633,18.2435039 29.6611055,15.385207 29.5871133,12.8408438 C29.5730039,12.3553008 29.5543828,12.0745078 29.5291992,11.8977305 C29.4867891,10.1252813 28.0313906,8.6953125 26.25,8.6953125 C24.4407188,8.6953125 22.96875,10.1672813 22.96875,11.9765625 L22.96875,12.796875 C22.96875,17.9850234 16.3066641,20.9000039 11.2789688,22.1499961 C10.8988359,21.280957 10.0311094,20.671875 9.0234375,20.671875 L0.8203125,20.671875 C0.367335938,20.671875 0,21.0392109 0,21.4921875 L0,41.1796875 C0,41.6326641 0.367335938,42 0.8203125,42 L9.0234375,42 C10.0243828,42 10.8871055,41.398957 11.2711758,40.5391055 C11.6874844,40.6459102 12.0739336,40.7468086 12.4306875,40.8399961 C15.2948086,41.5880391 16.8725156,42 20.7096094,42 L29.53125,42 C31.3405312,42 32.8125,40.5280312 32.8125,38.71875 C32.8125,38.044125 32.607668,37.4165859 32.2571484,36.8945391 C33.5243672,36.4513242 34.453125,35.240543 34.453125,33.796875 C34.453125,33.1247109 34.2532969,32.4951211 33.9038438,31.9706953 C35.1654844,31.5267422 36.09375,30.31875 36.09375,28.875 C36.09375,28.200375 35.888918,27.5728359 35.5383984,27.0507891 C36.8056172,26.6075742 37.734375,25.396793 37.734375,23.953125 C37.734375,22.1438438 36.2624062,20.671875 34.453125,20.671875 Z M9.84375,39.5390625 C9.84375,39.9913828 9.47575781,40.359375 9.0234375,40.359375 L1.640625,40.359375 L1.640625,22.3125 L9.0234375,22.3125 C9.47575781,22.3125 9.84375,22.6804922 9.84375,23.1328125 L9.84375,39.5390625 Z M34.453125,25.59375 C32.6936367,25.59375 32.2742109,25.59375 30.3515625,25.59375 C29.8985859,25.59375 29.53125,25.9610859 29.53125,26.4140625 C29.53125,26.8670391 29.8985859,27.234375 30.3515625,27.234375 L32.8125,27.234375 C33.7171406,27.234375 34.453125,27.9703594 34.453125,28.875 C34.453125,29.7811172 33.7186172,30.515625 32.8125,30.515625 L28.7109375,30.515625 C28.2579609,30.515625 27.890625,30.8829609 27.890625,31.3359375 C27.890625,31.7889141 28.2579609,32.15625 28.7109375,32.15625 L31.171875,32.15625 C32.0657695,32.15625 32.8125,32.870332 32.8125,33.796875 C32.8125,34.7029922 32.0779922,35.4375 31.171875,35.4375 C29.4123867,35.4375 28.9929609,35.4375 27.0703125,35.4375 C26.6173359,35.4375 26.25,35.8048359 26.25,36.2578125 C26.25,36.7107891 26.6173359,37.078125 27.0703125,37.078125 L29.53125,37.078125 C30.4358906,37.078125 31.171875,37.8141094 31.171875,38.71875 C31.171875,39.6233906 30.4358906,40.359375 29.53125,40.359375 L20.7096094,40.359375 C17.0832539,40.359375 15.6669023,39.9894961 12.8452734,39.2526094 C12.431918,39.1446562 11.9785312,39.0262852 11.484375,38.9002852 L11.484375,23.7911133 C17.4208125,22.3770586 24.609375,18.9255117 24.609375,12.796875 L24.609375,11.9765625 C24.609375,11.0719219 25.3453594,10.3359375 26.25,10.3359375 C27.153,10.3359375 27.8889023,11.0707734 27.890625,11.9740195 L27.890625,11.9765625 C27.890625,12.3330703 28.3355625,16.7083711 26.5513828,20.671875 L23.7890625,20.671875 C23.3360859,20.671875 22.96875,21.0392109 22.96875,21.4921875 C22.96875,21.9451641 23.3360859,22.3125 23.7890625,22.3125 C24.3618867,22.3125 33.5181328,22.3125 34.453125,22.3125 C35.3577656,22.3125 36.09375,23.0484844 36.09375,23.953125 C36.09375,24.8592422 35.3592422,25.59375 34.453125,25.59375 Z" id="Shape" fill="#000000"></path>
                    <path d="M7.3828125,28.875 C6.92983594,28.875 6.5625,29.2423359 6.5625,29.6953125 L6.5625,36.2578125 C6.5625,36.7107891 6.92983594,37.078125 7.3828125,37.078125 C7.83578906,37.078125 8.203125,36.7107891 8.203125,36.2578125 L8.203125,29.6953125 C8.203125,29.2423359 7.83578906,28.875 7.3828125,28.875 Z" id="Path" fill="#000000"></path>
                    <path d="M15.5859375,11.15625 C15.5859375,11.6092266 15.9532734,11.9765625 16.40625,11.9765625 L19.6875,11.9765625 C20.1404766,11.9765625 20.5078125,11.6092266 20.5078125,11.15625 C20.5078125,10.7032734 20.1404766,10.3359375 19.6875,10.3359375 L16.40625,10.3359375 C15.9532734,10.3359375 15.5859375,10.7032734 15.5859375,11.15625 Z" id="Path" fill="#000000"></path>
                    <path d="M31.9921875,11.15625 C31.9921875,11.6092266 32.3595234,11.9765625 32.8125,11.9765625 L36.09375,11.9765625 C36.5467266,11.9765625 36.9140625,11.6092266 36.9140625,11.15625 C36.9140625,10.7032734 36.5467266,10.3359375 36.09375,10.3359375 L32.8125,10.3359375 C32.3595234,10.3359375 31.9921875,10.7032734 31.9921875,11.15625 Z" id="Path" fill="#000000"></path>
                    <path d="M32.6302266,3.61585547 L30.3104648,5.93561719 C29.9901328,6.25594922 29.9901328,6.77537109 30.3104648,7.09578516 C30.6309609,7.41611719 31.1501367,7.41603516 31.4706328,7.09578516 L33.7903945,4.77602344 C34.1107266,4.45569141 34.1107266,3.93626953 33.7903945,3.61585547 C33.4699805,3.29560547 32.9507227,3.29560547 32.6302266,3.61585547 Z" id="Path" fill="#000000"></path>
                    <path d="M22.1895352,7.09578516 C22.5098672,6.77545313 22.5098672,6.25603125 22.1895352,5.93561719 L19.8697734,3.61585547 C19.5493594,3.29560547 19.0301016,3.29560547 18.7096055,3.61585547 C18.3892734,3.9361875 18.3892734,4.45560938 18.7096055,4.77602344 L21.0293672,7.09578516 C21.3499453,7.41611719 21.8691211,7.41603516 22.1895352,7.09578516 Z" id="Path" fill="#000000"></path>
                </g>
            </g>
        </g>
    </g>
</svg>