<?xml version="1.0" encoding="UTF-8"?>
<svg width="70px" height="70px" viewBox="0 0 70 70" version="1.1" xmlns="http://www.w3.org/2000/svg" xmlns:xlink="http://www.w3.org/1999/xlink">
    <title>Track Sales</title>
    <g id="screens" stroke="none" stroke-width="1" fill="none" fill-rule="evenodd">
        <g id="About-us-v3" transform="translate(-815.000000, -1492.000000)">
            <g id="Track-Sales" transform="translate(815.000000, 1492.000000)">
                <rect id="Rectangle" fill="#FFFFFF" x="0" y="0" width="70" height="70"></rect>
                <rect id="Rectangle" fill="#A1314B" x="0" y="58" width="65" height="4"></rect>
                <rect id="Rectangle" fill="#A1314B" x="0" y="44" width="14" height="14"></rect>
                <rect id="Rectangle-Copy-3" fill="#A1314B" x="17" y="29" width="14" height="29"></rect>
                <rect id="Rectangle-Copy-4" fill="#A1314B" x="34" y="9" width="14" height="49"></rect>
                <circle id="Oval" fill="#38B968" cx="55" cy="48" r="12"></circle>
                <path d="M53.9355,54.0765 C53.2724967,53.9858329 52.6505862,53.8045014 52.06975,53.5325 C51.4889138,53.2604986 50.994502,52.9233353 50.5865,52.521 L51.2325,51.5605 C51.289167,51.4754996 51.3642495,51.4060836 51.45775,51.35225 C51.5512505,51.2984164 51.6489995,51.2715 51.751,51.2715 C51.8756673,51.2715 52.0088326,51.3154162 52.1505,51.40325 L52.4602775,51.5996943 C52.5163145,51.6358979 52.5745553,51.6738331 52.635,51.7135 C52.8163342,51.8325006 53.0231655,51.9514994 53.2555,52.0705 C53.4878345,52.1895006 53.7626651,52.277333 54.08,52.334 L54.403,48.526 C54.0006647,48.4126661 53.6025853,48.2795008 53.20875,48.1265 C52.8149147,47.9734992 52.4607516,47.7709179 52.14625,47.51875 C51.8317484,47.2665821 51.5781676,46.9478353 51.3855,46.5625 C51.1928324,46.1771647 51.0965,45.6955029 51.0965,45.1175 C51.0965,44.6868312 51.1829158,44.2660854 51.35575,43.85525 C51.5285842,43.4444146 51.7793317,43.0775016 52.108,42.7545 C52.4366683,42.4314984 52.8418309,42.1651677 53.3235,41.9555 C53.8051691,41.7458323 54.3576635,41.6268335 54.981,41.5985 L55.0745,40.5275 C55.0858334,40.3914993 55.1424995,40.2696672 55.2445,40.162 C55.3465005,40.0543328 55.4796658,40.0005 55.644,40.0005 L56.4175,40.0005 L56.273,41.675 C56.8736697,41.7713338 57.3921645,41.9413321 57.8285,42.185 C58.2648355,42.4286679 58.6444984,42.7034985 58.9675,43.0095 L58.4575,43.783 C58.3781663,43.8963339 58.2988337,43.9813331 58.2195,44.038 C58.1401663,44.0946669 58.0438339,44.123 57.9305,44.123 C57.8454996,44.123 57.7449172,44.0960836 57.62875,44.04225 L57.3737502,43.9194723 L57.3737502,43.9194723 L57.22925,43.84675 C57.0790826,43.7702496 56.9133342,43.6923337 56.732,43.613 C56.5506658,43.5336663 56.3495011,43.4685003 56.1285,43.4175 L55.831,46.9365 C56.239002,47.0611673 56.642748,47.1985826 57.04225,47.34875 C57.441752,47.4989174 57.8015817,47.6929988 58.12175,47.931 C58.4419183,48.1690012 58.7011657,48.4650816 58.8995,48.81925 C59.0978343,49.1734184 59.197,49.6168307 59.197,50.1495 C59.197,50.6765026 59.1091675,51.1709144 58.9335,51.63275 C58.7578325,52.0945856 58.5014184,52.5025816 58.16425,52.85675 C57.8270816,53.2109184 57.4120025,53.4984989 56.919,53.7195 C56.4259975,53.9405011 55.8621698,54.0736664 55.2275,54.119 L55.1255,55.3685 C55.1141666,55.498834 55.0575005,55.6192494 54.9555,55.72975 C54.8534995,55.8402506 54.7203342,55.8955 54.556,55.8955 L53.7825,55.8955 L53.9355,54.0765 Z M57.208,50.4725 C57.208,50.2571656 57.1697504,50.0687508 57.09325,49.90725 C57.0167496,49.7457492 56.909084,49.6026673 56.77025,49.478 C56.631416,49.3533327 56.4685009,49.2456671 56.2815,49.155 C56.0944991,49.0643329 55.8905011,48.982167 55.6695,48.9085 L55.3805,52.3595 C55.9811697,52.2801663 56.4359151,52.077585 56.74475,51.75175 C57.0535849,51.425915 57.208,50.9995026 57.208,50.4725 Z M53.077,44.9135 C53.077,44.7264991 53.109583,44.5494175 53.17475,44.38225 C53.239917,44.2150825 53.3433326,44.0635007 53.485,43.9275 C53.6266674,43.7914993 53.8079989,43.6767505 54.029,43.58325 C54.2500011,43.4897495 54.5163318,43.4231669 54.828,43.3835 L54.5645,46.5285 C54.3491656,46.4491663 54.1508342,46.3599172 53.9695,46.26075 C53.7881658,46.1615828 53.6309173,46.0482506 53.49775,45.92075 C53.3645827,45.7932494 53.261167,45.6473342 53.1875,45.483 C53.113833,45.3186658 53.077,45.1288344 53.077,44.9135 Z" id="$" fill="#FFFFFF" fill-rule="nonzero"></path>
            </g>
        </g>
    </g>
</svg>