<?xml version="1.0" encoding="utf-8"?>
<!-- Generator: Adobe Illustrator 20.0.0, SVG Export Plug-In . SVG Version: 6.00 Build 0)  -->
<svg version="1.1" id="Layer_1" xmlns="http://www.w3.org/2000/svg" xmlns:xlink="http://www.w3.org/1999/xlink" x="0px" y="0px"
	 viewBox="0 0 26 42" style="enable-background:new 0 0 26 42;" xml:space="preserve">
<style type="text/css">
	.st0{clip-path:url(#SVGID_2_);}
	.st1{fill:#31AD27;}
	.st2{fill:#FFFFFF;}
</style>
<g>
	<defs>
		<rect id="SVGID_1_" width="26" height="42"/>
	</defs>
	<clipPath id="SVGID_2_">
		<use xlink:href="#SVGID_1_"  style="overflow:visible;"/>
	</clipPath>
	<g id="Concerts-claimed-small" class="st0">
		<g id="Group_210" transform="translate(-715.7 -179.022)">
			<path class="st1" d="M728.7,189.2c-7,0-12.7,5.7-12.7,12.7c0,10.5,12.7,19.2,12.7,19.2s12.7-9.3,12.7-19.2
				C741.4,194.8,735.7,189.2,728.7,189.2z"/>
			<path class="st2" d="M721.4,198.5l0.9,0.5c0.2-0.2,0.5-0.3,0.7-0.3l6-0.7c0.1,0,0.3,0,0.3,0.2c0,0.1,0,0.3-0.2,0.3
				c0,0-0.1,0-0.1,0l-6,0.7c-0.1,0-0.2,0-0.3,0.1l6.2,3.7l7.6-4.5l-7.6-4.5L721.4,198.5z"/>
			<path class="st2" d="M728.8,203.6l-5.4-3.2v2.9c0,0.8,0.7,1.5,1.8,2.1c2.4,1,5.1,1,7.5,0c1.2-0.5,1.8-1.3,1.8-2.1v-2.9l-5.4,3.2
				C729,203.7,728.9,203.7,728.8,203.6z"/>
			<path class="st2" d="M722.5,209.5l-0.5-3.1l-1.1,3.6L722.5,209.5z"/>
			<path class="st2" d="M722.8,205.5c0-0.4-0.2-0.7-0.5-0.8v-4.6c0-0.3,0.2-0.6,0.5-0.8l-0.5-0.3c-0.1,0.1-0.3,0.3-0.3,0.4
				c-0.1,0.2-0.2,0.4-0.2,0.6v4.6c-0.4,0.1-0.7,0.6-0.5,1.1c0.1,0.4,0.6,0.7,1.1,0.5C722.6,206.2,722.8,205.9,722.8,205.5
				L722.8,205.5z"/>
			<path id="crown_1_" class="st1" d="M737.1,182.8c0,0,0,0.1,0,0.1l-1.1,4.4c-0.1,0.2-0.3,0.4-0.5,0.4l-6.6,0h-6.6
				c-0.2,0-0.4-0.2-0.5-0.4l-1.1-4.4c0,0,0-0.1,0-0.2c-0.6-0.2-0.9-0.8-0.7-1.3c0.2-0.6,0.8-0.9,1.3-0.7c0.6,0.2,0.9,0.8,0.7,1.3
				c-0.1,0.2-0.2,0.4-0.3,0.5l1.4,1.4c0.7,0.7,1.9,0.7,2.6,0c0.1-0.1,0.1-0.1,0.2-0.2l2.3-3c-0.4-0.4-0.4-1.1,0-1.5
				c0.4-0.4,1.1-0.4,1.5,0c0.4,0.4,0.4,1,0,1.5l0,0l2.2,3c0.4,0.5,0.9,0.7,1.5,0.7c0.5,0,1-0.2,1.3-0.5l1.4-1.4
				c-0.5-0.4-0.5-1-0.2-1.5c0.4-0.5,1-0.5,1.5-0.2c0.5,0.4,0.5,1,0.2,1.5C737.4,182.6,737.3,182.7,737.1,182.8L737.1,182.8z
				 M735.9,189.3c0-0.3-0.2-0.5-0.5-0.5h-12.9c-0.3,0-0.5,0.2-0.5,0.5v1.2c0,0.3,0.2,0.5,0.5,0.5h12.9c0.3,0,0.5-0.2,0.5-0.5
				L735.9,189.3z"/>
		</g>
	</g>
</g>
</svg>
